<svg width="426" height="424" viewBox="0 0 426 424" fill="none" xmlns="http://www.w3.org/2000/svg">
<g clip-path="url(#clip0)">
<path fill-rule="evenodd" clip-rule="evenodd" d="M15.3684 407.658L24.5852 366.995L0 21.2003L10.67 0C10.67 0 274.881 21.2003 400.62 0L426 39.5738L404.057 365.563L407.619 401.838L378.912 421.623C378.912 421.623 175.848 404.212 78.687 423.998L15.3684 407.658Z" fill="url(#paint0_linear)"/>
<path fill-rule="evenodd" clip-rule="evenodd" d="M25.475 13.1383L10.0033 31.9522L28.2206 366.594L37.6055 392.581L86.1874 410.818L295.415 401.699L362.767 403.522L394.234 369.784L421.283 45.1739L364.422 13.2593L125.382 23.2892L25.475 13.1383Z" fill="url(#paint1_linear)"/>
<path fill-rule="evenodd" clip-rule="evenodd" d="M10.6692 0L25.4756 13.1384L125.382 23.2892L364.422 13.2594L400.619 0C400.619 0 235.147 18.6829 10.6692 0Z" fill="#9E98BB"/>
<path fill-rule="evenodd" clip-rule="evenodd" d="M364.424 13.2594L421.286 45.1739L426.001 39.5738L400.621 0L364.424 13.2594Z" fill="#8079A5"/>
<path fill-rule="evenodd" clip-rule="evenodd" d="M10.67 0L25.4764 13.1384L10.0046 31.9522L0 18.2743L10.67 0Z" fill="#8079A5"/>
<path fill-rule="evenodd" clip-rule="evenodd" d="M86.1884 410.818L78.6868 424.002C78.6868 424.002 210.39 405.406 378.912 421.628L362.768 403.524L289.97 401.937L86.1884 410.818Z" fill="#3A2F66"/>
<path fill-rule="evenodd" clip-rule="evenodd" d="M407.62 401.839L394.236 369.784L362.768 403.521L378.913 421.625L407.62 401.839Z" fill="#4F3D70"/>
<path fill-rule="evenodd" clip-rule="evenodd" d="M78.6876 423.999L86.1893 410.817L37.6074 392.581L15.369 407.657L78.6876 423.999Z" fill="#4F3D70"/>
<path fill-rule="evenodd" clip-rule="evenodd" d="M15.369 407.658L37.6074 392.581L28.2225 366.594L24.5858 366.997L15.369 407.658Z" fill="#8079A5"/>
<path fill-rule="evenodd" clip-rule="evenodd" d="M409.885 181.99L392.58 200.411L388.023 205.198L406.123 227.122L409.885 211.976V181.99Z" fill="#4F3D70"/>
<path fill-rule="evenodd" clip-rule="evenodd" d="M23.1162 272.816V284.528V293.076L26.4863 324.193L30.7044 298.504L23.1162 272.816Z" fill="#8579A3"/>
<path fill-rule="evenodd" clip-rule="evenodd" d="M20.1599 19.6034L39.3428 14.5488L25.4757 13.1383L20.1599 19.6034Z" fill="#BEBAD3"/>
<path fill-rule="evenodd" clip-rule="evenodd" d="M347.422 14.3609L375.726 19.604V9.11986L347.422 14.3609Z" fill="#BEBAD3"/>
<path fill-rule="evenodd" clip-rule="evenodd" d="M339.58 401.936L372.973 392.581L362.767 403.521L339.58 401.936Z" fill="#8579A3"/>
<path fill-rule="evenodd" clip-rule="evenodd" d="M388.023 205.198L403.757 209.644L409.885 211.977L406.123 227.123L388.023 205.198Z" fill="#8579A3"/>
<path fill-rule="evenodd" clip-rule="evenodd" d="M409.885 181.992L407.62 142.285L414.271 129.371L409.885 118.006L417.444 91.2673L409.885 181.992Z" fill="#8579A3"/>
<path fill-rule="evenodd" clip-rule="evenodd" d="M404.018 252.378L398.955 266.405L400.619 293.173L404.018 276.665V252.378Z" fill="#8579A3"/>
<path fill-rule="evenodd" clip-rule="evenodd" d="M304.333 362.074C303.917 364.042 303.154 366.044 302.082 367.958L302.061 367.976C298.215 374.943 290.413 380.825 281.105 380.591C273.916 380.392 266.114 376.385 264.781 373.046C264.454 372.235 264.214 371.44 264.082 370.664C263.798 369.238 263.863 367.885 264.214 366.585C268.038 351.735 307.677 346.393 304.333 362.074Z" fill="url(#paint2_linear)"/>
<path fill-rule="evenodd" clip-rule="evenodd" d="M314.605 376.927C314.494 377.161 314.365 377.397 314.189 377.631C311.48 381.438 305.054 380.301 303.416 376.693V376.423C303.373 369.24 317.206 371.478 314.605 376.927Z" fill="url(#paint3_linear)"/>
<path fill-rule="evenodd" clip-rule="evenodd" d="M387.489 239.504C387.271 240.063 387.009 240.587 386.704 241.037C381.875 248.653 368.479 242.499 371.998 237.915C372.392 237.391 373.024 236.867 373.922 236.417C377.131 229.144 390.525 231.888 387.489 239.504Z" fill="url(#paint4_linear)"/>
<path fill-rule="evenodd" clip-rule="evenodd" d="M45.8425 122.608C45.6935 123.721 45.3548 124.74 44.9081 125.667C41.7277 132.203 32.3356 133.778 34.6008 124.106H34.1132C34.1684 123.241 34.3558 121.68 34.7857 120.011C35.5712 116.891 37.1254 113.368 40.0247 113.151C45.0378 112.767 46.198 120.011 45.8425 122.608Z" fill="url(#paint5_linear)"/>
<path fill-rule="evenodd" clip-rule="evenodd" d="M47.8468 96.4043C46.0501 101.828 41.7672 106.678 34.6018 108.888C27.2875 107.452 24.3882 105.226 23.3385 98.7531C22.6827 94.6427 23.6748 90.3162 25.3226 86.3626C25.7334 85.3588 26.1825 84.3689 26.6702 83.4266C29.5695 77.7253 34.4144 67.636 43.8642 72.5815C51.8871 76.7811 49.9414 90.0682 47.8468 96.4043Z" fill="url(#paint6_linear)"/>
<path fill-rule="evenodd" clip-rule="evenodd" d="M61.2964 63.5582C58.8655 65.5202 54.0565 66.2462 53.0284 62.4454V62.0427C53.0669 61.6558 53.2158 61.2849 53.4392 60.9457C54.8228 58.6901 59.3507 57.2837 61.7456 59.3071C63.4126 60.6997 62.7953 62.3521 61.2964 63.5582Z" fill="url(#paint7_linear)"/>
<path fill-rule="evenodd" clip-rule="evenodd" d="M302.061 367.977C298.215 374.944 290.413 380.826 281.105 380.592C273.916 380.393 266.114 376.386 264.781 373.047C264.454 372.236 264.214 371.441 264.082 370.665L264.214 366.586C264.214 366.586 270.529 378.352 284.23 375.934C294.065 374.204 299.681 370.125 302.061 367.977Z" fill="#8579A3"/>
<path fill-rule="evenodd" clip-rule="evenodd" d="M314.605 376.928C314.494 377.162 314.364 377.398 314.189 377.632C311.479 381.439 305.054 380.302 303.416 376.693V376.424C304.29 377.291 305.799 378.155 308.354 378.265C311.261 378.372 313.336 377.596 314.605 376.928Z" fill="#8579A3"/>
<path fill-rule="evenodd" clip-rule="evenodd" d="M386.702 241.036C381.874 248.652 368.478 242.498 371.997 237.914C373.373 239.485 375.843 241.362 379.667 241.451C382.814 241.524 385.129 241.288 386.702 241.036Z" fill="#8579A3"/>
<path fill-rule="evenodd" clip-rule="evenodd" d="M47.8468 96.4051C46.0501 101.829 41.7672 106.679 34.6018 108.889C27.2875 107.453 24.3882 105.227 23.3385 98.7539C22.6827 94.6435 23.6748 90.317 25.3226 86.3634C25.3226 86.3634 24.0135 96.0976 31.6449 101.474C39.2955 106.848 47.8468 96.4051 47.8468 96.4051Z" fill="#8579A3"/>
<path fill-rule="evenodd" clip-rule="evenodd" d="M44.9081 125.668C41.7277 132.205 32.3356 133.78 34.6008 124.107H34.1132C34.1684 123.242 34.3558 121.681 34.7857 120.013C35.2541 122.222 36.7122 127.46 39.8565 127.428C42.2514 127.414 43.9352 126.424 44.9081 125.668Z" fill="#8579A3"/>
<path fill-rule="evenodd" clip-rule="evenodd" d="M61.2964 63.5587C58.8655 65.5206 54.0565 66.2466 53.0284 62.4458V62.0431C53.0669 61.6563 53.2158 61.2853 53.4392 60.9461C53.9821 62.0113 55.2359 63.4337 57.8734 63.2175C59.2018 63.1103 60.362 63.279 61.2964 63.5587Z" fill="#8579A3"/>
<path fill-rule="evenodd" clip-rule="evenodd" d="M292.656 331.489C284.561 317.815 314.27 309.199 315.315 323.294C316.156 334.623 299.867 339.555 292.656 331.489Z" fill="#8275A0"/>
<path fill-rule="evenodd" clip-rule="evenodd" d="M92.6472 355.239C84.5522 341.565 114.261 332.949 115.306 347.044C116.147 358.375 99.8582 363.307 92.6472 355.239Z" fill="#8579A3"/>
<path fill-rule="evenodd" clip-rule="evenodd" d="M325.227 302.766C314.466 306.857 327.082 312.667 331.295 307.803C335.294 303.185 327.13 298.733 323.57 303.679L325.227 302.766Z" fill="#8579A3"/>
<path fill-rule="evenodd" clip-rule="evenodd" d="M82.0725 99.1314C78.0658 100.655 82.7643 102.819 84.3328 101.006C85.8221 99.2862 82.7811 97.6297 81.4551 99.4707L82.0725 99.1314Z" fill="#8579A3"/>
<path fill-rule="evenodd" clip-rule="evenodd" d="M319.659 270.202C309.825 273.939 321.355 279.248 325.203 274.804C328.859 270.585 321.398 266.518 318.146 271.035L319.659 270.202Z" fill="#8579A3"/>
<path fill-rule="evenodd" clip-rule="evenodd" d="M35.8695 30.9035C31.8628 32.427 36.5613 34.5893 38.1298 32.7801C39.6191 31.0602 36.5781 29.4018 35.2521 31.2447L35.8695 30.9035Z" fill="#8579A3"/>
<path fill-rule="evenodd" clip-rule="evenodd" d="M266.205 64.1163C262.198 65.6398 266.897 67.8041 268.465 65.9929C269.955 64.273 266.914 62.6146 265.588 64.4575L266.205 64.1163Z" fill="#8579A3"/>
<g style="mix-blend-mode:soft-light">
<path fill-rule="evenodd" clip-rule="evenodd" d="M15.3684 407.658L24.5852 366.995L0 21.2003L10.67 0C10.67 0 274.881 21.2003 400.62 0L426 39.5738L404.057 365.563L407.619 401.838L378.912 421.623C378.912 421.623 175.848 404.212 78.687 423.998L15.3684 407.658Z" fill="url(#paint8_linear)"/>
<path fill-rule="evenodd" clip-rule="evenodd" d="M25.475 13.1383L10.0033 31.9522L28.2206 366.594L37.6055 392.581L86.1874 410.818L295.415 401.699L362.767 403.522L394.234 369.784L421.283 45.1739L364.422 13.2593L125.382 23.2892L25.475 13.1383Z" fill="url(#paint9_linear)"/>
<path fill-rule="evenodd" clip-rule="evenodd" d="M10.6692 0L25.4756 13.1384L125.382 23.2892L364.422 13.2594L400.619 0C400.619 0 235.147 18.6829 10.6692 0Z" fill="#9E98BB"/>
<path fill-rule="evenodd" clip-rule="evenodd" d="M364.424 13.2594L421.286 45.1739L426.001 39.5738L400.621 0L364.424 13.2594Z" fill="#8079A5"/>
<path fill-rule="evenodd" clip-rule="evenodd" d="M10.67 0L25.4764 13.1384L10.0046 31.9522L0 18.2743L10.67 0Z" fill="#8079A5"/>
<path fill-rule="evenodd" clip-rule="evenodd" d="M86.1884 410.818L78.6868 424.002C78.6868 424.002 210.39 405.406 378.912 421.628L362.768 403.524L289.97 401.937L86.1884 410.818Z" fill="#3A2F66"/>
<path fill-rule="evenodd" clip-rule="evenodd" d="M407.62 401.839L394.236 369.784L362.768 403.521L378.913 421.625L407.62 401.839Z" fill="#4F3D70"/>
<path fill-rule="evenodd" clip-rule="evenodd" d="M78.6876 423.999L86.1893 410.817L37.6074 392.581L15.369 407.657L78.6876 423.999Z" fill="#4F3D70"/>
<path fill-rule="evenodd" clip-rule="evenodd" d="M15.369 407.658L37.6074 392.581L28.2225 366.594L24.5858 366.997L15.369 407.658Z" fill="#8079A5"/>
<path fill-rule="evenodd" clip-rule="evenodd" d="M409.885 181.99L392.58 200.411L388.023 205.198L406.123 227.122L409.885 211.976V181.99Z" fill="#4F3D70"/>
<path fill-rule="evenodd" clip-rule="evenodd" d="M23.1162 272.816V284.528V293.076L26.4863 324.193L30.7044 298.504L23.1162 272.816Z" fill="#8579A3"/>
<path fill-rule="evenodd" clip-rule="evenodd" d="M20.1599 19.6034L39.3428 14.5488L25.4757 13.1383L20.1599 19.6034Z" fill="#BEBAD3"/>
<path fill-rule="evenodd" clip-rule="evenodd" d="M347.422 14.3609L375.726 19.604V9.11986L347.422 14.3609Z" fill="#BEBAD3"/>
<path fill-rule="evenodd" clip-rule="evenodd" d="M339.58 401.936L372.973 392.581L362.767 403.521L339.58 401.936Z" fill="#8579A3"/>
<path fill-rule="evenodd" clip-rule="evenodd" d="M388.023 205.198L403.757 209.644L409.885 211.977L406.123 227.123L388.023 205.198Z" fill="#8579A3"/>
<path fill-rule="evenodd" clip-rule="evenodd" d="M409.885 181.992L407.62 142.285L414.271 129.371L409.885 118.006L417.444 91.2673L409.885 181.992Z" fill="#8579A3"/>
<path fill-rule="evenodd" clip-rule="evenodd" d="M404.018 252.378L398.955 266.405L400.619 293.173L404.018 276.665V252.378Z" fill="#8579A3"/>
<path fill-rule="evenodd" clip-rule="evenodd" d="M304.333 362.074C303.917 364.042 303.154 366.044 302.082 367.958L302.061 367.976C298.215 374.943 290.413 380.825 281.105 380.591C273.916 380.392 266.114 376.385 264.781 373.046C264.454 372.235 264.214 371.44 264.082 370.664C263.798 369.238 263.863 367.885 264.214 366.585C268.038 351.735 307.677 346.393 304.333 362.074Z" fill="url(#paint10_linear)"/>
<path fill-rule="evenodd" clip-rule="evenodd" d="M314.605 376.927C314.494 377.161 314.365 377.397 314.189 377.631C311.48 381.438 305.054 380.301 303.416 376.693V376.423C303.373 369.24 317.206 371.478 314.605 376.927Z" fill="url(#paint11_linear)"/>
<path fill-rule="evenodd" clip-rule="evenodd" d="M387.489 239.504C387.271 240.063 387.009 240.587 386.704 241.037C381.875 248.653 368.479 242.499 371.998 237.915C372.392 237.391 373.024 236.867 373.922 236.417C377.131 229.144 390.525 231.888 387.489 239.504Z" fill="url(#paint12_linear)"/>
<path fill-rule="evenodd" clip-rule="evenodd" d="M45.8425 122.608C45.6935 123.721 45.3548 124.74 44.9081 125.667C41.7277 132.203 32.3356 133.778 34.6008 124.106H34.1132C34.1684 123.241 34.3558 121.68 34.7857 120.011C35.5712 116.891 37.1254 113.368 40.0247 113.151C45.0378 112.767 46.198 120.011 45.8425 122.608Z" fill="url(#paint13_linear)"/>
<path fill-rule="evenodd" clip-rule="evenodd" d="M47.8468 96.4043C46.0501 101.828 41.7672 106.678 34.6018 108.888C27.2875 107.452 24.3882 105.226 23.3385 98.7531C22.6827 94.6427 23.6748 90.3162 25.3226 86.3626C25.7334 85.3588 26.1825 84.3689 26.6702 83.4266C29.5695 77.7253 34.4144 67.636 43.8642 72.5815C51.8871 76.7811 49.9414 90.0682 47.8468 96.4043Z" fill="url(#paint14_linear)"/>
<path fill-rule="evenodd" clip-rule="evenodd" d="M61.2964 63.5582C58.8655 65.5202 54.0565 66.2462 53.0284 62.4454V62.0427C53.0669 61.6558 53.2158 61.2849 53.4392 60.9457C54.8228 58.6901 59.3507 57.2837 61.7456 59.3071C63.4126 60.6997 62.7953 62.3521 61.2964 63.5582Z" fill="url(#paint15_linear)"/>
<path fill-rule="evenodd" clip-rule="evenodd" d="M302.061 367.977C298.215 374.944 290.413 380.826 281.105 380.592C273.916 380.393 266.114 376.386 264.781 373.047C264.454 372.236 264.214 371.441 264.082 370.665L264.214 366.586C264.214 366.586 270.529 378.352 284.23 375.934C294.065 374.204 299.681 370.125 302.061 367.977Z" fill="#8579A3"/>
<path fill-rule="evenodd" clip-rule="evenodd" d="M314.605 376.928C314.494 377.162 314.364 377.398 314.189 377.632C311.479 381.439 305.054 380.302 303.416 376.693V376.424C304.29 377.291 305.799 378.155 308.354 378.265C311.261 378.372 313.336 377.596 314.605 376.928Z" fill="#8579A3"/>
<path fill-rule="evenodd" clip-rule="evenodd" d="M386.702 241.036C381.874 248.652 368.478 242.498 371.997 237.914C373.373 239.485 375.843 241.362 379.667 241.451C382.814 241.524 385.129 241.288 386.702 241.036Z" fill="#8579A3"/>
<path fill-rule="evenodd" clip-rule="evenodd" d="M47.8468 96.4051C46.0501 101.829 41.7672 106.679 34.6018 108.889C27.2875 107.453 24.3882 105.227 23.3385 98.7539C22.6827 94.6435 23.6748 90.317 25.3226 86.3634C25.3226 86.3634 24.0135 96.0976 31.6449 101.474C39.2955 106.848 47.8468 96.4051 47.8468 96.4051Z" fill="#8579A3"/>
<path fill-rule="evenodd" clip-rule="evenodd" d="M44.9081 125.668C41.7277 132.205 32.3356 133.78 34.6008 124.107H34.1132C34.1684 123.242 34.3558 121.681 34.7857 120.013C35.2541 122.222 36.7122 127.46 39.8565 127.428C42.2514 127.414 43.9352 126.424 44.9081 125.668Z" fill="#8579A3"/>
<path fill-rule="evenodd" clip-rule="evenodd" d="M61.2964 63.5587C58.8655 65.5206 54.0565 66.2466 53.0284 62.4458V62.0431C53.0669 61.6563 53.2158 61.2853 53.4392 60.9461C53.9821 62.0113 55.2359 63.4337 57.8734 63.2175C59.2018 63.1103 60.362 63.279 61.2964 63.5587Z" fill="#8579A3"/>
<path fill-rule="evenodd" clip-rule="evenodd" d="M292.656 331.489C284.561 317.815 314.27 309.199 315.315 323.294C316.156 334.623 299.867 339.555 292.656 331.489Z" fill="#8275A0"/>
<path fill-rule="evenodd" clip-rule="evenodd" d="M92.6472 355.239C84.5522 341.565 114.261 332.949 115.306 347.044C116.147 358.375 99.8582 363.307 92.6472 355.239Z" fill="#8579A3"/>
<path fill-rule="evenodd" clip-rule="evenodd" d="M325.227 302.766C314.466 306.857 327.082 312.667 331.295 307.803C335.294 303.185 327.13 298.733 323.57 303.679L325.227 302.766Z" fill="#8579A3"/>
<path fill-rule="evenodd" clip-rule="evenodd" d="M82.0725 99.1314C78.0658 100.655 82.7643 102.819 84.3328 101.006C85.8221 99.2862 82.7811 97.6297 81.4551 99.4707L82.0725 99.1314Z" fill="#8579A3"/>
<path fill-rule="evenodd" clip-rule="evenodd" d="M319.659 270.202C309.825 273.939 321.355 279.248 325.203 274.804C328.859 270.585 321.398 266.518 318.146 271.035L319.659 270.202Z" fill="#8579A3"/>
<path fill-rule="evenodd" clip-rule="evenodd" d="M35.8695 30.9035C31.8628 32.427 36.5613 34.5893 38.1298 32.7801C39.6191 31.0602 36.5781 29.4018 35.2521 31.2447L35.8695 30.9035Z" fill="#8579A3"/>
<path fill-rule="evenodd" clip-rule="evenodd" d="M266.205 64.1163C262.198 65.6398 266.897 67.8041 268.465 65.9929C269.955 64.273 266.914 62.6146 265.588 64.4575L266.205 64.1163Z" fill="#8579A3"/>
</g>
</g>
<defs>
<linearGradient id="paint0_linear" x1="213" y1="424.001" x2="213" y2="0" gradientUnits="userSpaceOnUse">
<stop stop-color="#634175"/>
<stop offset="1" stop-color="#686370"/>
</linearGradient>
<linearGradient id="paint1_linear" x1="215.643" y1="410.817" x2="215.643" y2="13.1393" gradientUnits="userSpaceOnUse">
<stop stop-color="#7A5E89"/>
<stop offset="1" stop-color="#787291"/>
</linearGradient>
<linearGradient id="paint2_linear" x1="284.219" y1="380.597" x2="284.219" y2="352.588" gradientUnits="userSpaceOnUse">
<stop stop-color="#705F84"/>
<stop offset="1" stop-color="#4F4170"/>
</linearGradient>
<linearGradient id="paint3_linear" x1="309.173" y1="379.997" x2="309.173" y2="371.883" gradientUnits="userSpaceOnUse">
<stop stop-color="#705F84"/>
<stop offset="1" stop-color="#4F4170"/>
</linearGradient>
<linearGradient id="paint4_linear" x1="379.674" y1="244.633" x2="379.674" y2="232.168" gradientUnits="userSpaceOnUse">
<stop stop-color="#705F84"/>
<stop offset="1" stop-color="#4F4170"/>
</linearGradient>
<linearGradient id="paint5_linear" x1="40.0078" y1="130.964" x2="40.0078" y2="113.137" gradientUnits="userSpaceOnUse">
<stop stop-color="#705F84"/>
<stop offset="1" stop-color="#4F4170"/>
</linearGradient>
<linearGradient id="paint6_linear" x1="36.4115" y1="108.887" x2="36.4115" y2="71.256" gradientUnits="userSpaceOnUse">
<stop stop-color="#705F84"/>
<stop offset="1" stop-color="#4F4170"/>
</linearGradient>
<linearGradient id="paint7_linear" x1="57.8845" y1="65.1649" x2="57.8845" y2="58.3323" gradientUnits="userSpaceOnUse">
<stop stop-color="#705F84"/>
<stop offset="1" stop-color="#4F4170"/>
</linearGradient>
<linearGradient id="paint8_linear" x1="213" y1="424.001" x2="213" y2="0" gradientUnits="userSpaceOnUse">
<stop stop-color="#634175"/>
<stop offset="1" stop-color="#686370"/>
</linearGradient>
<linearGradient id="paint9_linear" x1="215.643" y1="410.817" x2="215.643" y2="13.1393" gradientUnits="userSpaceOnUse">
<stop stop-color="#7A5E89"/>
<stop offset="1" stop-color="#787291"/>
</linearGradient>
<linearGradient id="paint10_linear" x1="284.219" y1="380.597" x2="284.219" y2="352.588" gradientUnits="userSpaceOnUse">
<stop stop-color="#705F84"/>
<stop offset="1" stop-color="#4F4170"/>
</linearGradient>
<linearGradient id="paint11_linear" x1="309.173" y1="379.997" x2="309.173" y2="371.883" gradientUnits="userSpaceOnUse">
<stop stop-color="#705F84"/>
<stop offset="1" stop-color="#4F4170"/>
</linearGradient>
<linearGradient id="paint12_linear" x1="379.674" y1="244.633" x2="379.674" y2="232.168" gradientUnits="userSpaceOnUse">
<stop stop-color="#705F84"/>
<stop offset="1" stop-color="#4F4170"/>
</linearGradient>
<linearGradient id="paint13_linear" x1="40.0078" y1="130.964" x2="40.0078" y2="113.137" gradientUnits="userSpaceOnUse">
<stop stop-color="#705F84"/>
<stop offset="1" stop-color="#4F4170"/>
</linearGradient>
<linearGradient id="paint14_linear" x1="36.4115" y1="108.887" x2="36.4115" y2="71.256" gradientUnits="userSpaceOnUse">
<stop stop-color="#705F84"/>
<stop offset="1" stop-color="#4F4170"/>
</linearGradient>
<linearGradient id="paint15_linear" x1="57.8845" y1="65.1649" x2="57.8845" y2="58.3323" gradientUnits="userSpaceOnUse">
<stop stop-color="#705F84"/>
<stop offset="1" stop-color="#4F4170"/>
</linearGradient>
<clipPath id="clip0">
<rect width="426" height="424" fill="white"/>
</clipPath>
</defs>
</svg>
