<svg width="426" height="221" viewBox="0 0 426 221" fill="none" xmlns="http://www.w3.org/2000/svg">
<path fill-rule="evenodd" clip-rule="evenodd" d="M15.3684 212.482L24.5852 191.288L0 11.0502L10.67 0C10.67 0 274.881 11.0502 400.62 0L426 20.6269L404.057 190.541L407.619 209.448L378.912 219.761C378.912 219.761 175.848 210.686 78.687 220.999L15.3684 212.482Z" fill="url(#paint0_linear)"/>
<path fill-rule="evenodd" clip-rule="evenodd" d="M25.475 6.84792L10.0033 16.6542L28.2206 191.079L37.6055 204.624L86.1874 214.129L295.415 209.376L362.767 210.326L394.234 192.741L421.283 23.5457L364.422 6.91099L125.382 12.1388L25.475 6.84792Z" fill="url(#paint1_linear)"/>
<path fill-rule="evenodd" clip-rule="evenodd" d="M10.6692 0L25.4756 6.84806L125.382 12.1389L364.422 6.91113L400.619 0C400.619 0 235.147 9.73803 10.6692 0Z" fill="#9E98BB"/>
<path fill-rule="evenodd" clip-rule="evenodd" d="M364.424 6.91113L421.286 23.5458L426.001 20.6269L400.621 0L364.424 6.91113Z" fill="#4C456F"/>
<path fill-rule="evenodd" clip-rule="evenodd" d="M10.67 0L25.4764 6.84806L10.0046 16.6543L0 9.52503L10.67 0Z" fill="#8079A5"/>
<path fill-rule="evenodd" clip-rule="evenodd" d="M86.1884 214.129L78.6868 221.001C78.6868 221.001 210.39 211.308 378.912 219.763L362.768 210.327L289.97 209.5L86.1884 214.129Z" fill="#3A2F66"/>
<path fill-rule="evenodd" clip-rule="evenodd" d="M407.62 209.449L394.236 192.741L362.768 210.326L378.913 219.762L407.62 209.449Z" fill="#4F3D70"/>
<path fill-rule="evenodd" clip-rule="evenodd" d="M78.6876 220.999L86.1893 214.129L37.6074 204.623L15.369 212.481L78.6876 220.999Z" fill="#4F3D70"/>
<path fill-rule="evenodd" clip-rule="evenodd" d="M15.369 212.482L37.6074 204.623L28.2225 191.078L24.5858 191.288L15.369 212.482Z" fill="#8079A5"/>
<path fill-rule="evenodd" clip-rule="evenodd" d="M409.885 94.8576L392.58 104.459L388.023 106.954L406.123 118.382L409.885 110.487V94.8576Z" fill="#4F3D70"/>
<path fill-rule="evenodd" clip-rule="evenodd" d="M23.1162 142.199V148.303V152.759L26.4863 168.978L30.7044 155.588L23.1162 142.199Z" fill="#8579A3"/>
<path fill-rule="evenodd" clip-rule="evenodd" d="M20.1599 10.2177L39.3428 7.58308L25.4757 6.84792L20.1599 10.2177Z" fill="#BEBAD3"/>
<path fill-rule="evenodd" clip-rule="evenodd" d="M347.422 7.4849L375.726 10.2177V4.75312L347.422 7.4849Z" fill="#BEBAD3"/>
<path fill-rule="evenodd" clip-rule="evenodd" d="M339.58 209.499L372.973 204.623L362.767 210.326L339.58 209.499Z" fill="#8579A3"/>
<path fill-rule="evenodd" clip-rule="evenodd" d="M388.023 106.955L403.757 109.272L409.885 110.488L406.123 118.383L388.023 106.955Z" fill="#8579A3"/>
<path fill-rule="evenodd" clip-rule="evenodd" d="M409.885 94.8594L407.62 74.1632L414.271 67.432L409.885 61.5084L417.444 47.5713L409.885 94.8594Z" fill="#8579A3"/>
<path fill-rule="evenodd" clip-rule="evenodd" d="M404.018 131.546L398.955 138.857L400.619 152.81L404.018 144.205V131.546Z" fill="#8579A3"/>
<path fill-rule="evenodd" clip-rule="evenodd" d="M304.333 188.722C303.917 189.748 303.154 190.791 302.082 191.789L302.061 191.798C298.215 195.43 290.413 198.495 281.105 198.373C273.916 198.27 266.114 196.181 264.781 194.441C264.454 194.018 264.214 193.604 264.082 193.199C263.798 192.456 263.863 191.751 264.214 191.073C268.038 183.333 307.677 180.549 304.333 188.722Z" fill="url(#paint2_linear)"/>
<path fill-rule="evenodd" clip-rule="evenodd" d="M314.605 196.464C314.494 196.586 314.365 196.71 314.189 196.832C311.48 198.816 305.054 198.223 303.416 196.342V196.202C303.373 192.458 317.206 193.624 314.605 196.464Z" fill="url(#paint3_linear)"/>
<path fill-rule="evenodd" clip-rule="evenodd" d="M387.489 124.835C387.271 125.127 387.009 125.4 386.704 125.634C381.875 129.604 368.479 126.396 371.998 124.007C372.392 123.734 373.024 123.461 373.922 123.226C377.131 119.436 390.525 120.866 387.489 124.835Z" fill="url(#paint4_linear)"/>
<path fill-rule="evenodd" clip-rule="evenodd" d="M45.8425 63.9065C45.6935 64.4865 45.3548 65.018 44.9081 65.5009C41.7277 68.9078 32.3356 69.7288 34.6008 64.6871H34.1132C34.1684 64.2363 34.3558 63.4226 34.7857 62.553C35.5712 60.9265 37.1254 59.0902 40.0247 58.9775C45.0378 58.7769 46.198 62.553 45.8425 63.9065Z" fill="url(#paint5_linear)"/>
<path fill-rule="evenodd" clip-rule="evenodd" d="M47.8468 50.2484C46.0501 53.0753 41.7672 55.6034 34.6018 56.7552C27.2875 56.0066 24.3882 54.8465 23.3385 51.4726C22.6827 49.3302 23.6748 47.0751 25.3226 45.0144C25.7334 44.4912 26.1825 43.9752 26.6702 43.4841C29.5695 40.5124 34.4144 35.2536 43.8642 37.8313C51.8871 40.0203 49.9414 46.9459 47.8468 50.2484Z" fill="url(#paint6_linear)"/>
<path fill-rule="evenodd" clip-rule="evenodd" d="M61.2964 33.1279C58.8655 34.1505 54.0565 34.5289 53.0284 32.5478V32.3379C53.0669 32.1363 53.2158 31.9429 53.4392 31.7661C54.8228 30.5905 59.3507 29.8574 61.7456 30.9121C63.4126 31.6379 62.7953 32.4992 61.2964 33.1279Z" fill="url(#paint7_linear)"/>
<path fill-rule="evenodd" clip-rule="evenodd" d="M302.061 191.799C298.215 195.431 290.413 198.496 281.105 198.374C273.916 198.271 266.114 196.182 264.781 194.442C264.454 194.019 264.214 193.604 264.082 193.2L264.214 191.074C264.214 191.074 270.529 197.207 284.23 195.946C294.065 195.045 299.681 192.919 302.061 191.799Z" fill="#8579A3"/>
<path fill-rule="evenodd" clip-rule="evenodd" d="M314.605 196.464C314.494 196.586 314.364 196.709 314.189 196.831C311.479 198.816 305.054 198.223 303.416 196.342V196.202C304.29 196.654 305.799 197.104 308.354 197.161C311.261 197.217 313.336 196.813 314.605 196.464Z" fill="#8579A3"/>
<path fill-rule="evenodd" clip-rule="evenodd" d="M386.702 125.634C381.874 129.603 368.478 126.396 371.997 124.006C373.373 124.825 375.843 125.803 379.667 125.85C382.814 125.888 385.129 125.765 386.702 125.634Z" fill="#8579A3"/>
<path fill-rule="evenodd" clip-rule="evenodd" d="M47.8468 50.2486C46.0501 53.0755 41.7672 55.6036 34.6018 56.7555C27.2875 56.0069 24.3882 54.8467 23.3385 51.4729C22.6827 49.3304 23.6748 47.0753 25.3226 45.0146C25.3226 45.0146 24.0135 50.0884 31.6449 52.8904C39.2955 55.6915 47.8468 50.2486 47.8468 50.2486Z" fill="#8579A3"/>
<path fill-rule="evenodd" clip-rule="evenodd" d="M44.9081 65.5011C41.7277 68.9081 32.3356 69.7291 34.6008 64.6874H34.1132C34.1684 64.2366 34.3558 63.4228 34.7857 62.5533C35.2541 63.7051 36.7122 66.4348 39.8565 66.4183C42.2514 66.411 43.9352 65.8951 44.9081 65.5011Z" fill="#8579A3"/>
<path fill-rule="evenodd" clip-rule="evenodd" d="M61.2964 33.128C58.8655 34.1506 54.0565 34.529 53.0284 32.5479V32.338C53.0669 32.1364 53.2158 31.943 53.4392 31.7662C53.9821 32.3215 55.2359 33.0628 57.8734 32.9501C59.2018 32.8943 60.362 32.9822 61.2964 33.128Z" fill="#8579A3"/>
<path fill-rule="evenodd" clip-rule="evenodd" d="M292.656 172.781C284.561 165.654 314.27 161.163 315.315 168.509C316.156 174.415 299.867 176.985 292.656 172.781Z" fill="#8275A0"/>
<path fill-rule="evenodd" clip-rule="evenodd" d="M92.6472 185.16C84.5522 178.032 114.261 173.542 115.306 180.888C116.147 186.794 99.8582 189.365 92.6472 185.16Z" fill="#8579A3"/>
<path fill-rule="evenodd" clip-rule="evenodd" d="M325.227 157.81C314.466 159.942 327.082 162.97 331.295 160.435C335.294 158.028 327.13 155.708 323.57 158.285L325.227 157.81Z" fill="#8579A3"/>
<path fill-rule="evenodd" clip-rule="evenodd" d="M82.0725 51.6698C78.0658 52.4639 82.7643 53.592 84.3328 52.6469C85.8221 51.7505 82.7811 50.8871 81.4551 51.8466L82.0725 51.6698Z" fill="#8579A3"/>
<path fill-rule="evenodd" clip-rule="evenodd" d="M319.659 140.837C309.825 142.785 321.355 145.552 325.203 143.236C328.859 141.036 321.398 138.917 318.146 141.271L319.659 140.837Z" fill="#8579A3"/>
<path fill-rule="evenodd" clip-rule="evenodd" d="M35.8695 16.108C31.8628 16.9021 36.5613 18.0291 38.1298 17.0861C39.6191 16.1897 36.5781 15.3253 35.2521 16.2858L35.8695 16.108Z" fill="#8579A3"/>
<path fill-rule="evenodd" clip-rule="evenodd" d="M266.205 33.4189C262.198 34.213 266.897 35.3411 268.465 34.3971C269.955 33.5006 266.914 32.6362 265.588 33.5968L266.205 33.4189Z" fill="#8579A3"/>
<defs>
<linearGradient id="paint0_linear" x1="213" y1="221" x2="213" y2="0" gradientUnits="userSpaceOnUse">
<stop stop-color="#634175"/>
<stop offset="1" stop-color="#686370"/>
</linearGradient>
<linearGradient id="paint1_linear" x1="215.643" y1="214.129" x2="215.643" y2="6.84844" gradientUnits="userSpaceOnUse">
<stop stop-color="#7A5E89"/>
<stop offset="1" stop-color="#787291"/>
</linearGradient>
<linearGradient id="paint2_linear" x1="284.219" y1="198.377" x2="284.219" y2="183.778" gradientUnits="userSpaceOnUse">
<stop stop-color="#705F84"/>
<stop offset="1" stop-color="#4F4170"/>
</linearGradient>
<linearGradient id="paint3_linear" x1="309.173" y1="198.065" x2="309.173" y2="193.835" gradientUnits="userSpaceOnUse">
<stop stop-color="#705F84"/>
<stop offset="1" stop-color="#4F4170"/>
</linearGradient>
<linearGradient id="paint4_linear" x1="379.674" y1="127.509" x2="379.674" y2="121.012" gradientUnits="userSpaceOnUse">
<stop stop-color="#705F84"/>
<stop offset="1" stop-color="#4F4170"/>
</linearGradient>
<linearGradient id="paint5_linear" x1="40.0078" y1="68.2617" x2="40.0078" y2="58.9699" gradientUnits="userSpaceOnUse">
<stop stop-color="#705F84"/>
<stop offset="1" stop-color="#4F4170"/>
</linearGradient>
<linearGradient id="paint6_linear" x1="36.4115" y1="56.7548" x2="36.4115" y2="37.1404" gradientUnits="userSpaceOnUse">
<stop stop-color="#705F84"/>
<stop offset="1" stop-color="#4F4170"/>
</linearGradient>
<linearGradient id="paint7_linear" x1="57.8845" y1="33.9653" x2="57.8845" y2="30.404" gradientUnits="userSpaceOnUse">
<stop stop-color="#705F84"/>
<stop offset="1" stop-color="#4F4170"/>
</linearGradient>
</defs>
</svg>
