<svg width="427" height="553" viewBox="0 0 427 553" fill="none" xmlns="http://www.w3.org/2000/svg">
<g style="mix-blend-mode:soft-light">
<path fill-rule="evenodd" clip-rule="evenodd" d="M15.3684 530.724L24.5852 477.786L0 27.6004L10.67 0C10.67 0 274.881 27.6004 400.62 0L426 51.5205L404.057 475.921L407.619 523.147L378.912 548.906C378.912 548.906 175.848 526.238 78.687 551.997L15.3684 530.724Z" fill="url(#paint0_linear)"/>
<path fill-rule="evenodd" clip-rule="evenodd" d="M25.475 17.1047L10.0033 41.5982L28.2206 477.264L37.6055 511.097L86.1874 534.839L295.415 522.966L362.767 525.34L394.234 481.417L421.283 58.8114L364.422 17.2623L125.382 30.32L25.475 17.1047Z" fill="url(#paint1_linear)"/>
<path fill-rule="evenodd" clip-rule="evenodd" d="M10.6692 0L25.4756 17.1046L125.382 30.3199L364.422 17.2622L400.619 0C400.619 0 235.147 24.3231 10.6692 0Z" fill="#9E98BB"/>
<path fill-rule="evenodd" clip-rule="evenodd" d="M364.424 17.2622L421.286 58.8113L426.001 51.5205L400.621 0L364.424 17.2622Z" fill="#8079A5"/>
<path fill-rule="evenodd" clip-rule="evenodd" d="M10.67 0L25.4764 17.1046L10.0046 41.5982L0 23.791L10.67 0Z" fill="#8079A5"/>
<path fill-rule="evenodd" clip-rule="evenodd" d="M86.1884 534.839L78.6868 552.003C78.6868 552.003 210.39 527.794 378.912 548.912L362.768 525.343L289.97 523.277L86.1884 534.839Z" fill="#3A2F66"/>
<path fill-rule="evenodd" clip-rule="evenodd" d="M407.62 523.149L394.236 481.416L362.768 525.339L378.913 548.908L407.62 523.149Z" fill="#4F3D70"/>
<path fill-rule="evenodd" clip-rule="evenodd" d="M78.6876 551.999L86.1893 534.838L37.6074 511.096L15.369 530.724L78.6876 551.999Z" fill="#4F3D70"/>
<path fill-rule="evenodd" clip-rule="evenodd" d="M15.369 530.724L37.6074 511.096L28.2225 477.264L24.5858 477.788L15.369 530.724Z" fill="#8079A5"/>
<path fill-rule="evenodd" clip-rule="evenodd" d="M409.885 236.93L392.58 260.913L388.023 267.144L406.123 295.687L409.885 275.969V236.93Z" fill="#4F3D70"/>
<path fill-rule="evenodd" clip-rule="evenodd" d="M23.1162 355.176V370.423V381.552L26.4863 422.063L30.7044 388.618L23.1162 355.176Z" fill="#8579A3"/>
<path fill-rule="evenodd" clip-rule="evenodd" d="M20.1599 25.5215L39.3428 18.941L25.4757 17.1047L20.1599 25.5215Z" fill="#BEBAD3"/>
<path fill-rule="evenodd" clip-rule="evenodd" d="M347.422 18.6966L375.726 25.5224V11.8733L347.422 18.6966Z" fill="#BEBAD3"/>
<path fill-rule="evenodd" clip-rule="evenodd" d="M339.58 523.275L372.973 511.096L362.767 525.339L339.58 523.275Z" fill="#8579A3"/>
<path fill-rule="evenodd" clip-rule="evenodd" d="M388.023 267.145L403.757 272.932L409.885 275.969L406.123 295.688L388.023 267.145Z" fill="#8579A3"/>
<path fill-rule="evenodd" clip-rule="evenodd" d="M409.885 236.933L407.62 185.239L414.271 168.426L409.885 153.63L417.444 118.819L409.885 236.933Z" fill="#8579A3"/>
<path fill-rule="evenodd" clip-rule="evenodd" d="M404.018 328.567L398.955 346.829L400.619 381.679L404.018 360.186V328.567Z" fill="#8579A3"/>
<path fill-rule="evenodd" clip-rule="evenodd" d="M304.333 471.38C303.917 473.942 303.154 476.548 302.082 479.04L302.061 479.063C298.215 488.134 290.413 495.791 281.105 495.486C273.916 495.228 266.114 490.011 264.781 485.665C264.454 484.608 264.214 483.573 264.082 482.563C263.798 480.706 263.863 478.945 264.214 477.253C268.038 457.92 307.677 450.965 304.333 471.38Z" fill="url(#paint2_linear)"/>
<path fill-rule="evenodd" clip-rule="evenodd" d="M314.605 490.716C314.494 491.021 314.365 491.329 314.189 491.633C311.48 496.589 305.054 495.109 303.416 490.412V490.06C303.373 480.709 317.206 483.622 314.605 490.716Z" fill="url(#paint3_linear)"/>
<path fill-rule="evenodd" clip-rule="evenodd" d="M387.489 311.807C387.271 312.535 387.009 313.217 386.704 313.803C381.875 323.718 368.479 315.707 371.998 309.738C372.392 309.056 373.024 308.375 373.922 307.788C377.131 298.32 390.525 301.892 387.489 311.807Z" fill="url(#paint4_linear)"/>
<path fill-rule="evenodd" clip-rule="evenodd" d="M45.8425 159.622C45.6935 161.071 45.3548 162.398 44.9081 163.604C41.7277 172.114 32.3356 174.164 34.6008 161.572H34.1132C34.1684 160.446 34.3558 158.413 34.7857 156.241C35.5712 152.179 37.1254 147.592 40.0247 147.31C45.0378 146.809 46.198 156.241 45.8425 159.622Z" fill="url(#paint5_linear)"/>
<path fill-rule="evenodd" clip-rule="evenodd" d="M47.8468 125.508C46.0501 132.568 41.7672 138.883 34.6018 141.76C27.2875 139.89 24.3882 136.992 23.3385 128.565C22.6827 123.214 23.6748 117.581 25.3226 112.434C25.7334 111.128 26.1825 109.839 26.6702 108.612C29.5695 101.19 34.4144 88.0545 43.8642 94.4929C51.8871 99.9603 49.9414 117.259 47.8468 125.508Z" fill="url(#paint6_linear)"/>
<path fill-rule="evenodd" clip-rule="evenodd" d="M61.2964 82.7459C58.8655 85.3001 54.0565 86.2453 53.0284 81.297V80.7728C53.0669 80.2691 53.2158 79.7862 53.4392 79.3446C54.8228 76.4081 59.3507 74.5771 61.7456 77.2113C63.4126 79.0243 62.7953 81.1756 61.2964 82.7459Z" fill="url(#paint7_linear)"/>
<path fill-rule="evenodd" clip-rule="evenodd" d="M302.061 479.064C298.215 488.135 290.413 495.792 281.105 495.487C273.916 495.229 266.114 490.012 264.781 485.666C264.454 484.609 264.214 483.574 264.082 482.564L264.214 477.254C264.214 477.254 270.529 492.571 284.23 489.423C294.065 487.171 299.681 481.861 302.061 479.064Z" fill="#8579A3"/>
<path fill-rule="evenodd" clip-rule="evenodd" d="M314.605 490.717C314.494 491.022 314.364 491.329 314.189 491.634C311.479 496.59 305.054 495.11 303.416 490.412V490.061C304.29 491.19 305.799 492.316 308.354 492.458C311.261 492.597 313.336 491.587 314.605 490.717Z" fill="#8579A3"/>
<path fill-rule="evenodd" clip-rule="evenodd" d="M386.702 313.803C381.874 323.717 368.478 315.706 371.997 309.738C373.373 311.783 375.843 314.226 379.667 314.342C382.814 314.438 385.129 314.131 386.702 313.803Z" fill="#8579A3"/>
<path fill-rule="evenodd" clip-rule="evenodd" d="M47.8468 125.509C46.0501 132.57 41.7672 138.884 34.6018 141.761C27.2875 139.891 24.3882 136.994 23.3385 128.566C22.6827 123.215 23.6748 117.583 25.3226 112.435C25.3226 112.435 24.0135 125.108 31.6449 132.107C39.2955 139.104 47.8468 125.509 47.8468 125.509Z" fill="#8579A3"/>
<path fill-rule="evenodd" clip-rule="evenodd" d="M44.9081 163.606C41.7277 172.116 32.3356 174.166 34.6008 161.574H34.1132C34.1684 160.448 34.3558 158.415 34.7857 156.243C35.2541 159.12 36.7122 165.938 39.8565 165.897C42.2514 165.879 43.9352 164.59 44.9081 163.606Z" fill="#8579A3"/>
<path fill-rule="evenodd" clip-rule="evenodd" d="M61.2964 82.7465C58.8655 85.3007 54.0565 86.246 53.0284 81.2977V80.7734C53.0669 80.2698 53.2158 79.7868 53.4392 79.3452C53.9821 80.7321 55.2359 82.5838 57.8734 82.3023C59.2018 82.1628 60.362 82.3824 61.2964 82.7465Z" fill="#8579A3"/>
<path fill-rule="evenodd" clip-rule="evenodd" d="M292.656 431.561C284.561 413.759 314.27 402.542 315.315 420.892C316.156 435.641 299.867 442.061 292.656 431.561Z" fill="#8275A0"/>
<path fill-rule="evenodd" clip-rule="evenodd" d="M92.6472 462.481C84.5522 444.679 114.261 433.462 115.306 451.812C116.147 466.564 99.8582 472.984 92.6472 462.481Z" fill="#8579A3"/>
<path fill-rule="evenodd" clip-rule="evenodd" d="M325.227 394.167C314.466 399.492 327.082 407.057 331.295 400.724C335.294 394.712 327.13 388.917 323.57 395.355L325.227 394.167Z" fill="#8579A3"/>
<path fill-rule="evenodd" clip-rule="evenodd" d="M82.0725 129.058C78.0658 131.041 82.7643 133.859 84.3328 131.498C85.8221 129.259 82.7811 127.103 81.4551 129.5L82.0725 129.058Z" fill="#8579A3"/>
<path fill-rule="evenodd" clip-rule="evenodd" d="M319.659 351.772C309.825 356.638 321.355 363.549 325.203 357.764C328.859 352.27 321.398 346.976 318.146 352.857L319.659 351.772Z" fill="#8579A3"/>
<path fill-rule="evenodd" clip-rule="evenodd" d="M35.8695 40.2327C31.8628 42.2161 36.5613 45.0312 38.1298 42.6758C39.6191 40.4367 36.5781 38.2776 35.2521 40.6769L35.8695 40.2327Z" fill="#8579A3"/>
<path fill-rule="evenodd" clip-rule="evenodd" d="M266.205 83.4723C262.198 85.4558 266.897 88.2734 268.465 85.9155C269.955 83.6763 266.914 81.5173 265.588 83.9165L266.205 83.4723Z" fill="#8579A3"/>
</g>
<defs>
<linearGradient id="paint0_linear" x1="213" y1="552.001" x2="213" y2="0" gradientUnits="userSpaceOnUse">
<stop stop-color="#634175"/>
<stop offset="1" stop-color="#686370"/>
</linearGradient>
<linearGradient id="paint1_linear" x1="215.643" y1="534.838" x2="215.643" y2="17.106" gradientUnits="userSpaceOnUse">
<stop stop-color="#7A5E89"/>
<stop offset="1" stop-color="#787291"/>
</linearGradient>
<linearGradient id="paint2_linear" x1="284.219" y1="495.495" x2="284.219" y2="459.03" gradientUnits="userSpaceOnUse">
<stop stop-color="#705F84"/>
<stop offset="1" stop-color="#4F4170"/>
</linearGradient>
<linearGradient id="paint3_linear" x1="309.173" y1="494.713" x2="309.173" y2="484.149" gradientUnits="userSpaceOnUse">
<stop stop-color="#705F84"/>
<stop offset="1" stop-color="#4F4170"/>
</linearGradient>
<linearGradient id="paint4_linear" x1="379.674" y1="318.485" x2="379.674" y2="302.257" gradientUnits="userSpaceOnUse">
<stop stop-color="#705F84"/>
<stop offset="1" stop-color="#4F4170"/>
</linearGradient>
<linearGradient id="paint5_linear" x1="40.0078" y1="170.5" x2="40.0078" y2="147.292" gradientUnits="userSpaceOnUse">
<stop stop-color="#705F84"/>
<stop offset="1" stop-color="#4F4170"/>
</linearGradient>
<linearGradient id="paint6_linear" x1="36.4115" y1="141.759" x2="36.4115" y2="92.7672" gradientUnits="userSpaceOnUse">
<stop stop-color="#705F84"/>
<stop offset="1" stop-color="#4F4170"/>
</linearGradient>
<linearGradient id="paint7_linear" x1="57.8845" y1="84.8375" x2="57.8845" y2="75.9422" gradientUnits="userSpaceOnUse">
<stop stop-color="#705F84"/>
<stop offset="1" stop-color="#4F4170"/>
</linearGradient>
</defs>
</svg>
