<svg width="158" height="79" viewBox="0 0 158 79" fill="none" xmlns="http://www.w3.org/2000/svg">
<path d="M7.37395 66.8832L0 24.1647L13.6089 4.55572L137.015 0L154.667 8.49058L158 25.7039L154.412 67.2772L134.17 78.161L23.3302 79L7.37395 66.8832Z" fill="#262047"/>
<path d="M5.13159 25.3255L16.1963 9.38184L136.004 4.95862L150.372 11.8698L153.102 25.9683L149.803 64.1871L132.944 73.2524L24.9333 74.0701L11.8278 64.1179L5.13159 25.3255Z" fill="#7A6E92"/>
<path d="M16.1963 9.3811L19.5522 14.8524L9.17729 26.4629L5.13159 25.3247L16.1963 9.3811Z" fill="#72729B"/>
<path d="M16.1958 9.38184L19.5517 14.8531L75.9149 10.7064L132.431 12.1173L136.003 4.95862L16.1958 9.38184Z" fill="#AEA8CC"/>
<path d="M132.431 12.1173L145.127 14.8531L150.372 11.8698L136.003 4.95862L132.431 12.1173Z" fill="#72729B"/>
<path d="M145.127 14.8534L150.372 27.5701L153.102 25.9686L150.372 11.8701L145.127 14.8534Z" fill="#595172"/>
<path d="M150.371 27.57L147.925 59.5684L149.802 64.1874L153.102 25.9686L150.371 27.57Z" fill="#4E4866"/>
<path d="M147.925 59.5683L132.431 68.6909L132.943 73.2526L149.803 64.1873L147.925 59.5683Z" fill="#543D75"/>
<path d="M132.431 68.6911L67.4505 70.6956L28.5613 69.6933L24.9324 74.0704L132.943 73.2527L132.431 68.6911Z" fill="#312A56"/>
<path d="M11.8269 64.1182L16.1954 62.471L28.5614 69.6933L24.9324 74.0704L11.8269 64.1182Z" fill="#4C3F6D"/>
<path d="M9.17729 26.4634L16.1963 62.4704L11.8278 64.1176L5.13159 25.3251L9.17729 26.4634Z" fill="#4E4866"/>
<path d="M136.541 62.0737C136.541 63.8792 134.258 65.3405 131.441 65.3405C128.624 65.3405 126.341 63.8792 126.341 62.0737C126.341 61.9611 126.348 61.8419 126.369 61.7293C126.369 61.7223 126.369 61.7153 126.369 61.7153C126.389 61.5958 126.424 61.4836 126.459 61.371C126.959 59.9024 128.999 58.8065 131.441 58.8065C133.883 58.8065 135.924 59.9024 136.423 61.371C136.458 61.4832 136.493 61.5958 136.514 61.7153C136.514 61.7153 136.514 61.7223 136.514 61.7293C136.534 61.8419 136.541 61.9611 136.541 62.0737Z" fill="#665C7F"/>
<path d="M136.54 61.3709C136.54 61.4831 136.533 61.6027 136.513 61.7153C136.492 61.5957 136.457 61.4835 136.422 61.3709C135.923 59.9023 133.882 58.8064 131.44 58.8064C128.997 58.8064 126.958 59.9023 126.458 61.3709C126.423 61.4831 126.389 61.5957 126.368 61.7153C126.347 61.6027 126.34 61.4835 126.34 61.3709C126.34 59.5653 128.623 58.1038 131.44 58.1038C134.257 58.1041 136.54 59.5653 136.54 61.3709Z" fill="#4E4866"/>
<path d="M143.431 57.8037C143.431 58.993 141.927 59.9558 140.071 59.9558C138.215 59.9558 136.711 58.993 136.711 57.8037C136.711 57.7296 136.716 57.651 136.729 57.5769C136.729 57.5723 136.729 57.5678 136.729 57.5678C136.743 57.4891 136.766 57.415 136.789 57.3409C137.118 56.3736 138.462 55.6517 140.071 55.6517C141.68 55.6517 143.024 56.3736 143.353 57.3409C143.376 57.415 143.399 57.4891 143.412 57.5678C143.412 57.5678 143.412 57.5723 143.412 57.5769C143.426 57.651 143.431 57.7296 143.431 57.8037Z" fill="#665C7F"/>
<path d="M143.431 57.341C143.431 57.4151 143.426 57.4938 143.412 57.5679C143.398 57.4893 143.376 57.4151 143.353 57.341C143.024 56.3738 141.68 55.6519 140.071 55.6519C138.462 55.6519 137.118 56.3738 136.789 57.341C136.766 57.4151 136.743 57.4893 136.729 57.5679C136.716 57.4938 136.711 57.4151 136.711 57.341C136.711 56.1514 138.215 55.189 140.071 55.189C141.927 55.1887 143.431 56.1514 143.431 57.341Z" fill="#4E4866"/>
<path d="M23.6763 24.6481C24.1839 26.3792 22.4062 28.4376 19.7052 29.2493C17.0043 30.061 14.4052 29.3178 13.8977 27.5867C13.8663 27.479 13.8393 27.3623 13.8276 27.2487C13.8255 27.242 13.8238 27.235 13.8238 27.235C13.8103 27.1144 13.8117 26.9966 13.8135 26.8788C13.8797 25.327 15.5273 23.6885 17.8688 22.9848C20.2103 22.2811 22.4742 22.744 23.3656 24.0077C23.4305 24.1052 23.4954 24.2031 23.549 24.3118C23.549 24.3118 23.551 24.3185 23.5527 24.3255C23.6045 24.4279 23.6446 24.5405 23.6763 24.6481Z" fill="#665C7F"/>
<path d="M23.4788 23.9741C23.5102 24.0818 23.5372 24.1985 23.5489 24.3121C23.4954 24.2038 23.4305 24.1059 23.3656 24.008C22.4738 22.7443 20.2103 22.2811 17.8688 22.9851C15.5272 23.6888 13.8797 25.3273 13.8134 26.8791C13.8117 26.9969 13.8099 27.1147 13.8238 27.2353C13.7723 27.1336 13.7319 27.021 13.7005 26.9134C13.193 25.1822 14.971 23.1236 17.6716 22.3119C20.3722 21.5001 22.9713 22.2433 23.4788 23.9741Z" fill="#4E4866"/>
<path d="M29.0804 18.5687C29.4146 19.709 28.2435 21.065 26.4644 21.5999C24.6853 22.1347 22.9729 21.645 22.6386 20.5046C22.6179 20.4337 22.6 20.3568 22.5924 20.282C22.591 20.2774 22.59 20.2732 22.59 20.2732C22.581 20.1939 22.582 20.1163 22.5831 20.0387C22.6266 19.0165 23.712 17.937 25.2546 17.4734C26.7972 17.0099 28.2884 17.3147 28.8757 18.1474C28.9185 18.2118 28.9613 18.2761 28.9965 18.3477C28.9965 18.3477 28.9979 18.3523 28.9989 18.3568C29.0328 18.4236 29.0594 18.4977 29.0804 18.5687Z" fill="#665C7F"/>
<path d="M28.9508 18.1249C28.9715 18.1959 28.9894 18.2728 28.997 18.3476C28.9618 18.2763 28.919 18.2116 28.8762 18.1473C28.2889 17.3146 26.7977 17.0098 25.2551 17.4733C23.7126 17.9369 22.6274 19.0164 22.5836 20.0385C22.5825 20.1162 22.5811 20.1938 22.5905 20.2731C22.5566 20.206 22.5301 20.1319 22.5093 20.0609C22.1751 18.9206 23.3462 17.5642 25.1253 17.0297C26.9041 16.4952 28.6166 16.9846 28.9508 18.1249Z" fill="#4E4866"/>
<path d="M150.17 30.2057L150.917 36.8932L146.871 35.6347L150.17 30.2057Z" fill="#3A3651"/>
<path d="M150.917 36.8926L149.288 41.7416L146.871 35.6341L150.917 36.8926Z" fill="#8980A0"/>
<path d="M10.0547 31.0696L9.78259 37.7941L13.7292 36.2458L10.0547 31.0696Z" fill="#3A3651"/>
<path d="M9.78259 37.7944L12.2667 42.3109L13.7292 36.2461L9.78259 37.7944Z" fill="#8980A0"/>
</svg>
