<svg width="228" height="121" viewBox="0 0 228 121" fill="none" xmlns="http://www.w3.org/2000/svg">
<g clip-path="url(#clip0)">
<path d="M26.0571 119.271H22.7993V121H26.0571V119.271Z" fill="#10100F"/>
<path d="M228 117.542H224.743V119.271H228V117.542Z" fill="#2A2A28"/>
<path d="M211.714 117.542H208.457V119.271H211.714V117.542Z" fill="#D6AE82"/>
<path d="M19.5427 117.542H16.2858V119.271H19.5427V117.542Z" fill="#D7AE82"/>
<path d="M3.25692 117.542H0V119.271H3.25692V117.542Z" fill="#2A2A28"/>
<path d="M214.973 114.086H211.715V115.814H214.973V114.086Z" fill="#93979D"/>
<path d="M16.2855 114.086H13.0286V115.814H16.2855V114.086Z" fill="#94989D"/>
<path d="M52.1145 107.172H48.8575V108.9H52.1145V107.172Z" fill="#957E6C"/>
<path d="M45.6008 105.443H42.343V107.172H45.6008V105.443Z" fill="#282926"/>
<path d="M110.743 103.714H107.485V105.442H110.743V103.714Z" fill="#B07E62"/>
<path d="M35.8289 43.2142H32.5712V44.9429H35.8289V43.2142Z" fill="#2A2A28"/>
<path d="M228 20.7425H224.743V22.4712H228V20.7425Z" fill="#10100F"/>
<path d="M162.858 20.7425H159.6V22.4712H162.858V20.7425Z" fill="#8E7A6B"/>
<path d="M3.25692 19.0138H0V20.7419H3.25692V19.0138Z" fill="#292927"/>
<path d="M166.114 17.2851H162.857V19.0138H166.114V17.2851Z" fill="#8A796C"/>
<path d="M136.8 17.2851H133.543V19.0138H136.8V17.2851Z" fill="#8F7B6C"/>
<path d="M159.599 15.5573H156.342V17.2859H159.599V15.5573Z" fill="#977E6D"/>
<path d="M185.657 22.4712V20.7425V19.0146V17.2857H182.401V15.5573H179.143H175.885H172.628V17.2857H169.371V19.0146H166.114H162.857V20.7425H166.114V22.4712H162.857V24.2001H159.599V22.4712H156.342V20.7425V19.0146H153.086V17.2857V15.5573H149.829H146.572V17.2857H143.314V19.0146H140.057V20.7425H136.8V22.4712H133.543H130.286V20.7425H127.028V19.0146H123.771H120.514H117.257H114V17.2857H110.743V19.0146H107.485H104.229H100.971H97.7141H94.4571H91.1994H87.943H84.6856H81.4284H78.1714H74.9137H71.6568H68.3999V20.7425V22.4712H65.1429V24.2001H61.8857V25.9285H58.628V27.6572H55.3711H52.1142V25.9285V24.2001H48.8572V22.4712V20.7425H45.6001V19.0146H42.3426V20.7425V22.4712V24.2001V25.9285V27.6572V29.3853V31.114V32.8427V34.5714V36.3001H39.0848V38.0282V39.7569V41.4855V43.2142V44.9429V46.6716V48.4003V50.1284V51.8571V53.5858V55.3144V57.0431V58.7718V60.4999V62.2283V63.9573V65.686V67.4147V69.1428V70.8715V72.5999V74.3286V76.0575V77.7854V79.5141V81.2427V82.9714V84.7001V86.4291V88.1569V89.8856V91.6143V93.343V95.0716V96.8006V98.529V100.257H42.3426V98.529H45.6001V96.8006H48.8572H52.1142H55.3711H58.628H61.8857H65.1429H68.3999V98.529H71.6568V100.257H74.9137H78.1714V101.986H81.4284H84.6856H87.943H91.1994H94.4571H97.7141H100.971V100.257H104.229H107.485H110.743H114H117.257H120.514H123.771H127.028H130.286H133.543V98.529H136.8V96.8006H140.057H143.314H146.572H149.829V98.529V100.257H153.086H156.342H159.599H162.857V98.529V96.8006H166.114V95.0716V93.343H169.371V91.6143H172.628V93.343H175.885V95.0716V96.8006H179.143V98.529V100.257H182.401H185.657V98.529V96.8006V95.0716V93.343V91.6143V89.8856V88.1569V86.4291H188.914V84.7001V82.9714V81.2427V79.5141V77.7854V76.0575V74.3286V72.5999V70.8715V69.1428V67.4147V65.686V63.9573V62.2283V60.4999V58.7718V57.0431V55.3144V53.5858V51.8571V50.1284V48.4003V46.6716V44.9429V43.2142V41.4855V39.7569V38.0282V36.3001V34.5714V32.8427V31.114V29.3853V27.6572V25.9285V24.2001V22.4712H185.657Z" fill="#C78D61"/>
<path d="M58.6279 19.0152H55.371V20.7433H58.6279V19.0152Z" fill="#C78D61"/>
<path d="M61.886 15.5573H58.6283V17.2859H61.886V15.5573Z" fill="#9BA0A6"/>
<path d="M45.6008 13.8281H42.343V15.5568H45.6008V13.8281Z" fill="#B17D60"/>
<path d="M42.3431 100.257H39.0854V98.5286V96.8002V95.0712V93.3425V91.6138V89.8852V88.1565V86.4286V84.6997V82.971V81.2423V79.5136V77.7849V76.0571V74.3281V72.5994V70.871V69.1424V67.4142V65.6855V63.9569V62.2279V60.4995V58.7714V57.0427V55.314V53.5853V51.8566V50.128V48.3998V46.6712V44.9425V43.2138V41.4851V39.7564V38.0277V36.2996H42.3431V34.5709V32.8422V31.1136V29.3849V27.6568V25.9281V24.1997V22.4707V20.742V19.0142H45.6006V20.742H48.8578V22.4707V24.1997H52.1147V25.9281V27.6568H55.3716H58.6285V25.9281H61.8863V24.1997H65.1434V22.4707H68.4004V20.742V19.0142H71.6573H74.9142H78.172H81.4289H84.6861H87.9435H91.1999H94.4576H97.7146H100.971H104.229H107.486H110.743V17.2852H114.001V19.0142H117.258H120.515H123.771H127.029V20.742H130.287V22.4707H133.543H136.8V20.742H140.058V19.0142H143.314V17.2852H146.572V15.5568H149.829H153.086V17.2852V19.0142H156.343V20.742V22.4707H159.6V20.742V19.0142V17.2852H156.343V15.5568V13.8281H153.086H149.829H146.572H143.314H140.058H136.8V15.5568V17.2852V19.0142H133.543V17.2852V15.5568H130.287V13.8281H127.029H123.771H120.515H117.258H114.001H110.743H107.486H104.229H100.971H97.7146H94.4576H91.1999H87.9435H84.6861H81.4289H78.172H74.9142H71.6573H68.4004H65.1434V15.5568H61.8863V17.2852V19.0142H58.6285V20.742H55.3716V19.0142V17.2852V15.5568V13.8281H52.1147H48.8578H45.6006V15.5568H42.3431H39.0854V13.8281H35.829V15.5568V17.2852V19.0142V20.742V22.4707V24.1997V25.9281V27.6568V29.3849V31.1136V32.8422V34.5709V36.2996V38.0277V39.7564V41.4851V43.2138V44.9425V46.6712V48.3998V50.128V51.8566V53.5853V55.314V57.0427V58.7714V60.4995V62.2279V63.9569V65.6855V67.4142V69.1424V70.871V72.5994V74.3281V76.0571V77.7849V79.5136V81.2423V82.971V84.6997V86.4286V88.1565V89.8852V91.6138V93.3425V95.0712V96.8002V98.5286V100.257V101.985V103.714V105.443V107.171V108.9H39.0854H42.3431V107.171V105.443V103.714H45.6006V101.985V100.257V98.5286H42.3431V100.257Z" fill="#B87958"/>
<path d="M149.829 96.8008H146.572H143.315H140.058H136.801V98.5292H133.544V100.257H130.287H127.029H123.772H120.515H117.258H114.001H110.743H107.486H104.229H100.972V101.986H97.7148H94.4579H91.2002H87.9438H84.6863H81.4291H78.1722V100.257H74.9145H71.6576V98.5292H68.4006V96.8008H65.1437H61.8865H58.6288H55.3719H52.1149H48.858H45.6008V98.5292H48.858V100.257V101.986V103.715V105.443V107.172H52.1149V108.901H55.3719H58.6288H61.8865V107.172V105.443V103.715H65.1437V105.443H68.4006V107.172V108.901H71.6576H74.9145H78.1722H81.4291H84.6863H87.9438H91.2002H94.4579H97.7148H100.972H104.229H107.486V107.172V105.443V103.715H110.743H114.001V105.443V107.172V108.901H117.258H120.515H123.772H127.029H130.287H133.544H136.801H140.058H143.315H146.572V107.172V105.443V103.715V101.986V100.257H149.829V98.5292V96.8008Z" fill="#B87958"/>
<path d="M162.858 22.4702H159.6V24.1988H162.858V22.4702Z" fill="#B87958"/>
<path d="M166.115 20.7427H162.858V22.4714H166.115V20.7427Z" fill="#B87958"/>
<path d="M188.915 13.8281H185.658H182.401H179.144H175.886H172.629H169.372H166.115V15.5568V17.2852V19.0142H169.372V17.2852H172.629V15.5568H175.886H179.144H182.401V17.2852H185.658V19.0142V20.742V22.4707H188.915V24.1997V25.9281V27.6568V29.3849V31.1136V32.8422V34.5709V36.2996V38.0277V39.7564V41.4851V43.2138V44.9425V46.6712V48.3998V50.128V51.8566V53.5853V55.314V57.0427V58.7714V60.4995V62.2279V63.9569V65.6855V67.4142V69.1424V70.871V72.5994V74.3281V76.0571V77.7849V79.5136V81.2423V82.971V84.6997V86.4286H185.658V88.1565V89.8852V91.6138V93.3425V95.0712V96.8002V98.5286V100.257H182.401H179.144V98.5286V96.8002H175.886V95.0712V93.3425H172.629V91.6138H169.372V93.3425H166.115V95.0712V96.8002H162.858V98.5286V100.257H159.6H156.343H153.086H149.829V101.985V103.714V105.443V107.171V108.9H153.086H156.343H159.6H162.858H166.115V107.171V105.443V103.714H169.372V105.443V107.171V108.9H172.629H175.886H179.144H182.401H185.658H188.915H192.171V107.171V105.443V103.714V101.985V100.257V98.5286V96.8002V95.0712V93.3425V91.6138V89.8852V88.1565V86.4286V84.6997V82.971V81.2423V79.5136V77.7849V76.0571V74.3281V72.5994V70.871V69.1424V67.4142V65.6855V63.9569V62.2279V60.4995V58.7714V57.0427V55.314V53.5853V51.8566V50.128V48.3998V46.6712V44.9425V43.2138V41.4851V39.7564V38.0277V36.2996V34.5709V32.8422V31.1136V29.3849V27.6568V25.9281V24.1997V22.4707V20.742V19.0142V17.2852V15.5568V13.8281H188.915Z" fill="#B87958"/>
<path d="M136.8 12.099H133.543V13.8277H136.8V12.099Z" fill="#888C91"/>
<path d="M133.543 12.099H130.286V13.8277H133.543V12.099Z" fill="#90959A"/>
<path d="M224.743 5.18506H221.486V6.91374H224.743V5.18506Z" fill="#AA9276"/>
<path d="M6.51439 5.18506H3.2572V6.91374H6.51439V5.18506Z" fill="#A89276"/>
<path d="M221.486 3.4574H218.229V5.18608H221.486V3.4574Z" fill="#A89276"/>
<path d="M205.201 3.4574H201.944V5.18608H205.201V3.4574Z" fill="#292927"/>
<path d="M9.77178 3.4574H6.51404V5.18608H9.77178V3.4574Z" fill="#AA9276"/>
<path d="M228 1.72852H224.743V3.4572H228V1.72852Z" fill="#93979D"/>
<path d="M201.943 1.72852H198.686V3.4572H201.943V1.72852Z" fill="#90959A"/>
<path d="M29.3149 1.72852H26.0571V3.4572H29.3149V1.72852Z" fill="#909499"/>
<path d="M208.458 96.8008V95.0718V93.3431V91.6145V89.8858V88.1571V86.4292V84.7003V82.9716V81.2429V79.5142V77.7856V76.0577V74.3287V72.6001V70.8717V69.143V67.4148V65.6862V63.9575V62.2285V60.5001V58.772V57.0433V55.3146V53.5859V51.8573V50.1286V48.4004V46.6718V44.9431V43.2144V41.4857V39.757V38.0284V36.3002V34.5715V32.8429V31.1142V29.3855V27.6574V25.9287V24.2003V22.4713V20.7426V19.0148V17.2858V15.5574V13.8287V12.1001V10.3711V8.64324V6.91456V5.18588V3.4572V1.72852H205.201V3.4572V5.18588V6.91456H201.944H198.687V5.18588V3.4572H195.43V5.18588V6.91456V8.64324V10.3711V12.1001V13.8287V15.5574V17.2858V19.0148V20.7426V22.4713V24.2003V25.9287V27.6574V29.3855V31.1142V32.8429V34.5715V36.3002V38.0284V39.757V41.4857V43.2144V44.9431V46.6718V48.4004V50.1286V51.8573V53.5859V55.3146V57.0433V58.772V60.5001V62.2285V63.9575V65.6862V67.4148V69.143V70.8717V72.6001V74.3287V76.0577V77.7856V79.5142V81.2429V82.9716V84.7003V86.4292V88.1571V89.8858V91.6145V93.3431V95.0718V96.8008V98.5292V100.257V101.986V103.715V105.443V107.172V108.901V110.629V112.358V114.086V115.815V117.543H198.687V119.271H201.944H205.201H208.458V117.543H211.715V115.815V114.086V112.358V110.629V108.901V107.172V105.443V103.715V101.986V100.257V98.5292V96.8008H208.458Z" fill="#E1B07A"/>
<path d="M29.3151 5.18588V6.91456H26.0573H22.7996V5.18588V3.4572V1.72852H19.5427V3.4572V5.18588V6.91456V8.64324V10.3711V12.1001V13.8287V15.5574V17.2858V19.0148V20.7426V22.4713V24.2003V25.9287V27.6574V29.3855V31.1142V32.8429V34.5715V36.3002V38.0284V39.757V41.4857V43.2144V44.9431V46.6718V48.4004V50.1286V51.8573V53.5859V55.3146V57.0433V58.772V60.5001V62.2285V63.9575V65.6862V67.4148V69.143V70.8717V72.6001V74.3287V76.0577V77.7856V79.5142V81.2429V82.9716V84.7003V86.4292V88.1571V89.8858V91.6145V93.3431V95.0718V96.8008H16.2858V98.5292V100.257V101.986V103.715V105.443V107.172V108.901V110.629V112.358V114.086V115.815V117.543H19.5427V119.271H22.7996H26.0573H29.3151V117.543H32.5715V115.815V114.086V112.358V110.629V108.901V107.172V105.443V103.715V101.986V100.257V98.5292V96.8008V95.0718V93.3431V91.6145V89.8858V88.1571V86.4292V84.7003V82.9716V81.2429V79.5142V77.7856V76.0577V74.3287V72.6001V70.8717V69.143V67.4148V65.6862V63.9575V62.2285V60.5001V58.772V57.0433V55.3146V53.5859V51.8573V50.1286V48.4004V46.6718V44.9431V43.2144V41.4857V39.757V38.0284V36.3002V34.5715V32.8429V31.1142V29.3855V27.6574V25.9287V24.2003V22.4713V20.7426V19.0148V17.2858V15.5574V13.8287V12.1001V10.3711V8.64324V6.91456V5.18588V3.4572H29.3151V5.18588Z" fill="#E1B07A"/>
<path d="M221.487 6.91456V5.18588H218.23V3.4572V1.72852H214.973V3.4572V5.18588H211.715V6.91456H208.458V8.64324V10.3711V12.1001V13.8287V15.5574V17.2858V19.0148V20.7426V22.4713V24.2003V25.9287V27.6574V29.3855V31.1142V32.8429V34.5715V36.3002V38.0284V39.757V41.4857V43.2144V44.9431V46.6718V48.4004V50.1286V51.8573V53.5859V55.3146V57.0433V58.772V60.5001V62.2285V63.9575V65.6862V67.4148V69.143V70.8717V72.6001V74.3287V76.0577V77.7856V79.5142V81.2429V82.9716V84.7003V86.4292V88.1571V89.8858V91.6145V93.3431V95.0718V96.8008H211.715V98.5292V100.257V101.986V103.715V105.443V107.172V108.901V110.629H214.973V112.358V114.086H218.23V112.358V110.629H221.487V112.358V114.086V115.815V117.543H224.744V115.815V114.086V112.358V110.629V108.901V107.172V105.443V103.715V101.986V100.257V98.5292V96.8008V95.0718V93.3431V91.6145V89.8858V88.1571V86.4292V84.7003V82.9716V81.2429V79.5142V77.7856V76.0577V74.3287V72.6001V70.8717V69.143V67.4148V65.6862V63.9575V62.2285V60.5001V58.772V57.0433V55.3146V53.5859V51.8573V50.1286V48.4004V46.6718V44.9431V43.2144V41.4857V39.757V38.0284V36.3002V34.5715V32.8429V31.1142V29.3855V27.6574V25.9287V24.2003V22.4713V20.7426V19.0148V17.2858V15.5574V13.8287V12.1001V10.3711V8.64324V6.91456H221.487Z" fill="#CEA270"/>
<path d="M16.286 5.18588H13.0291V3.4572V1.72852H9.77214V3.4572V5.18588H6.5144V6.91456H3.2572V8.64324V10.3711V12.1001V13.8287V15.5574V17.2858V19.0148V20.7426V22.4713V24.2003V25.9287V27.6574V29.3855V31.1142V32.8429V34.5715V36.3002V38.0284V39.757V41.4857V43.2144V44.9431V46.6718V48.4004V50.1286V51.8573V53.5859V55.3146V57.0433V58.772V60.5001V62.2285V63.9575V65.6862V67.4148V69.143V70.8717V72.6001V74.3287V76.0577V77.7856V79.5142V81.2429V82.9716V84.7003V86.4292V88.1571V89.8858V91.6145V93.3431V95.0718V96.8008V98.5292V100.257V101.986V103.715V105.443V107.172V108.901V110.629V112.358V114.086V115.815V117.543H6.5144V115.815V114.086V112.358V110.629H9.77214V112.358V114.086H13.0291V112.358V110.629H16.286V108.901V107.172V105.443V103.715V101.986V100.257V98.5292V96.8008H19.5429V95.0718V93.3431V91.6145V89.8858V88.1571V86.4292V84.7003V82.9716V81.2429V79.5142V77.7856V76.0577V74.3287V72.6001V70.8717V69.143V67.4148V65.6862V63.9575V62.2285V60.5001V58.772V57.0433V55.3146V53.5859V51.8573V50.1286V48.4004V46.6718V44.9431V43.2144V41.4857V39.757V38.0284V36.3002V34.5715V32.8429V31.1142V29.3855V27.6574V25.9287V24.2003V22.4713V20.7426V19.0148V17.2858V15.5574V13.8287V12.1001V10.3711V8.64324V6.91456H16.286V5.18588Z" fill="#CEA270"/>
<path d="M3.25692 1.72852H0V3.4572H3.25692V1.72852Z" fill="#92969C"/>
<path d="M218.228 0H214.971V1.72813H218.228V0Z" fill="#999DA3"/>
<path d="M205.201 0H201.944V1.72813H205.201V0Z" fill="#90959A"/>
<path d="M26.0571 0H22.7993V1.72813H26.0571V0Z" fill="#90959A"/>
<path d="M68.3999 107.172H65.1429V108.9H68.3999V107.172Z" fill="black"/>
<path d="M214.973 110.628H211.715V112.357V114.085H214.973V112.357V110.628Z" fill="black"/>
<path d="M29.3149 119.271H26.0571V121H29.3149V119.271Z" fill="black"/>
<path d="M45.6008 107.172H42.343V108.9H45.6008V107.172Z" fill="black"/>
<path d="M68.4004 107.171V105.442H65.1435V103.714H61.8864V105.442V107.171H65.1435H68.4004Z" fill="black"/>
<path d="M149.828 103.715V101.986V100.257H146.571V101.986V103.715V105.443H149.828V103.715Z" fill="black"/>
<path d="M143.315 13.8277H146.573H149.83H153.087H156.344V12.099H153.087H149.83H146.573H143.315H140.058H136.801V13.8277H140.058H143.315Z" fill="black"/>
<path d="M205.201 119.271H201.944H198.686V121H201.944H205.201H208.457H211.714V119.271H208.457H205.201Z" fill="black"/>
<path d="M16.2858 119.271V121H19.5427H22.7996V119.271H19.5427H16.2858Z" fill="black"/>
<path d="M224.743 117.542H221.486V119.271H224.743V117.542Z" fill="black"/>
<path d="M6.51439 117.542H3.2572V119.271H6.51439V117.542Z" fill="black"/>
<path d="M195.428 117.543V115.815V114.086V112.358V110.629V108.901V107.172V105.443V103.715V101.986V100.257V98.5292V96.8008V95.0718V93.3431V91.6145V89.8858V88.1571V86.4292V84.7003V82.9716V81.2429V79.5142V77.7856V76.0577V74.3287V72.6001V70.8717V69.143V67.4148V65.6862V63.9575V62.2285V60.5001V58.772V57.0433V55.3146V53.5859V51.8573V50.1286V48.4004V46.6718V44.9431V43.2144V41.4857V39.757V38.0284V36.3002V34.5715V32.8429V31.1142V29.3855V27.6574V25.9287V24.2003V22.4713V20.7426V19.0148V17.2858V15.5574V13.8287V12.1001V10.3711V8.64324V6.91456V5.18588V3.4572H198.686V1.72852H195.428H192.171V3.4572V5.18588V6.91456V8.64324V10.3711V12.1001H188.914H185.657H182.4H179.143H175.885H172.628H169.371H166.114H162.857V13.8287V15.5574V17.2858H166.114V15.5574V13.8287H169.371H172.628H175.885H179.143H182.4H185.657H188.914H192.171V15.5574V17.2858V19.0148V20.7426V22.4713V24.2003V25.9287V27.6574V29.3855V31.1142V32.8429V34.5715V36.3002V38.0284V39.757V41.4857V43.2144V44.9431V46.6718V48.4004V50.1286V51.8573V53.5859V55.3146V57.0433V58.772V60.5001V62.2285V63.9575V65.6862V67.4148V69.143V70.8717V72.6001V74.3287V76.0577V77.7856V79.5142V81.2429V82.9716V84.7003V86.4292V88.1571V89.8858V91.6145V93.3431V95.0718V96.8008V98.5292V100.257V101.986V103.715V105.443V107.172V108.901H188.914H185.657H182.4H179.143H175.885H172.628H169.371V110.629H172.628H175.885H179.143H182.4H185.657H188.914H192.171V112.358V114.086V115.815V117.543V119.271H195.428H198.686V117.543H195.428Z" fill="black"/>
<path d="M221.485 114.085V112.357V110.628H218.228V112.357V114.085H214.971V115.814V117.542H218.228H221.485V115.814V114.085Z" fill="black"/>
<path d="M3.25692 114.086V112.357V110.629V108.901V107.172V105.443V103.715V101.986V100.257V98.529V96.8006V95.0717V93.343V91.6143V89.8856V88.1569V86.4291V84.7001V82.9714V81.2428V79.5141V77.7854V76.0575V74.3286V72.5999V70.8715V69.1428V67.4147V65.686V63.9573V62.2284V60.5V58.7718V57.0431V55.3145V53.5858V51.8571V50.1284V48.4003V46.6716V44.9429V43.2143V41.4856V39.7569V38.0282V36.3001V34.5714V32.8427V31.114V29.3854V27.6572V25.9285V24.2001V22.4712V20.7425H0V22.4712V24.2001V25.9285V27.6572V29.3854V31.114V32.8427V34.5714V36.3001V38.0282V39.7569V41.4856V43.2143V44.9429V46.6716V48.4003V50.1284V51.8571V53.5858V55.3145V57.0431V58.7718V60.5V62.2284V63.9573V65.686V67.4147V69.1428V70.8715V72.5999V74.3286V76.0575V77.7854V79.5141V81.2428V82.9714V84.7001V86.4291V88.1569V89.8856V91.6143V93.343V95.0717V96.8006V98.529V100.257V101.986V103.715V105.443V107.172V108.901V110.629V112.357V114.086V115.815V117.543H3.25692V115.815V114.086Z" fill="black"/>
<path d="M9.77178 112.357V110.628H6.51404V112.357V114.085V115.814V117.542H9.77178H13.0287V115.814V114.085H9.77178V112.357Z" fill="black"/>
<path d="M16.2855 112.357V110.628H13.0286V112.357V114.085H16.2855V112.357Z" fill="black"/>
<path d="M159.6 108.901H156.343H153.086H149.829V110.629H153.086H156.343H159.6H162.858H166.115V108.901H162.858H159.6Z" fill="black"/>
<path d="M140.057 108.901H136.8H133.543H130.286H127.028H123.771H120.514H117.257H114V110.629H117.257H120.514H123.771H127.028H130.286H133.543H136.8H140.057H143.314H146.572V108.901H143.314H140.057Z" fill="black"/>
<path d="M55.3714 108.901H52.1145H48.8575V110.629H52.1145H55.3714H58.6283H61.886V108.901H58.6283H55.3714Z" fill="black"/>
<path d="M35.8293 108.901V107.172V105.443V103.715V101.986V100.257V98.5292V96.8008V95.0719V93.3432V91.6145V89.8858V88.1571V86.4293V84.7003V82.9716V81.243V79.5143V77.7856V76.0577V74.3288V72.6001V70.8717V69.143V67.4149V65.6862V63.9575V62.2286V60.5001V58.772V57.0433V55.3147V53.586V51.8573V50.1286V48.4005V46.6718V44.9431H32.5718V46.6718V48.4005V50.1286V51.8573V53.586V55.3147V57.0433V58.772V60.5001V62.2286V63.9575V65.6862V67.4149V69.143V70.8717V72.6001V74.3288V76.0577V77.7856V79.5143V81.243V82.9716V84.7003V86.4293V88.1571V89.8858V91.6145V93.3432V95.0719V96.8008V98.5292V100.257V101.986V103.715V105.443V107.172V108.901V110.629V112.358V114.086V115.815V117.543H29.3154V119.271H32.5718H35.8293V117.543V115.815V114.086V112.358V110.629H39.0856H42.3434V108.901H39.0856H35.8293Z" fill="black"/>
<path d="M169.372 105.442V103.714H166.115V105.442V107.171V108.9H169.372V107.171V105.442Z" fill="black"/>
<path d="M114 105.442V103.714H110.743V105.442H107.485V107.171V108.9H104.229H100.971H97.7141H94.4571H91.1994H87.943H84.6856H81.4284H78.1715H74.9137H71.6568H68.3999H65.1429V110.628H68.3999H71.6568H74.9137H78.1715H81.4284H84.6856H87.943H91.1994H94.4571H97.7141H100.971H104.229H107.485H110.743V108.9H114V107.171V105.442Z" fill="black"/>
<path d="M45.6008 103.714H42.343V105.442H45.6008V103.714Z" fill="black"/>
<path d="M48.8578 101.986V100.257V98.5289H45.6006V100.257V101.986V103.714H48.8578V101.986Z" fill="black"/>
<path d="M224.744 24.2005V25.9289V27.6576V29.3857V31.1144V32.8431V34.5718V36.3005V38.0286V39.7573V41.486V43.2146V44.9433V46.672V48.4007V50.1288V51.8575V53.5862V55.3149V57.0435V58.7722V60.5003V62.2288V63.9577V65.6864V67.4151V69.1432V70.8719V72.6003V74.329V76.0579V77.7858V79.5145V81.2431V82.9718V84.7005V86.4295V88.1573V89.886V91.6147V93.3434V95.0721V96.801V98.5294V100.258V101.986V103.715V105.444V107.172V108.901V110.629V112.358V114.086V115.815V117.543H228V115.815V114.086V112.358V110.629V108.901V107.172V105.444V103.715V101.986V100.258V98.5294V96.801V95.0721V93.3434V91.6147V89.886V88.1573V86.4295V84.7005V82.9718V81.2431V79.5145V77.7858V76.0579V74.329V72.6003V70.8719V69.1432V67.4151V65.6864V63.9577V62.2288V60.5003V58.7722V57.0435V55.3149V53.5862V51.8575V50.1288V48.4007V46.672V44.9433V43.2146V41.486V39.7573V38.0286V36.3005V34.5718V32.8431V31.1144V29.3857V27.6576V25.9289V24.2005V22.4716H224.744V24.2005Z" fill="black"/>
<path d="M159.6 19.0141V20.7419H162.858V19.0141V17.2851H159.6V19.0141Z" fill="black"/>
<path d="M3.25692 17.2858V15.5574V13.8287V12.1001V10.3711V8.64324V6.91456V5.18588H6.51411V3.4572H9.77186V1.72852H6.51411H3.25692V3.4572H0V5.18588V6.91456V8.64324V10.3711V12.1001V13.8287V15.5574V17.2858V19.0148H3.25692V17.2858Z" fill="black"/>
<path d="M159.599 13.8281H156.342V15.5568H159.599V13.8281Z" fill="black"/>
<path d="M65.1435 13.8277H68.4005H71.6574H74.9143H78.1721H81.429H84.6862H87.9436H91.2H94.4577H97.7147H100.972H104.229H107.486H110.743H114.001H117.258H120.515H123.771H127.029H130.287V15.5564H133.544V17.2848H136.8V15.5564V13.8277H133.544H130.287V12.099H127.029H123.771H120.515H117.258H114.001H110.743H107.486H104.229H100.972H97.7147H94.4577H91.2H87.9436H84.6862H81.429H78.1721H74.9143H71.6574H68.4005H65.1435H61.8864V13.8277V15.5564H65.1435V13.8277Z" fill="black"/>
<path d="M198.686 6.91476H201.944H205.201V5.18608H201.944V3.4574H198.686V5.18608V6.91476Z" fill="black"/>
<path d="M32.5718 5.18588V6.91456V8.64324V10.3711V12.1001V13.8287V15.5574V17.2858V19.0148V20.7426V22.4713V24.2003V25.9287V27.6574V29.3855V31.1142V32.8429V34.5715V36.3002V38.0284V39.757V41.4857V43.2144H35.8293V41.4857V39.757V38.0284V36.3002V34.5715V32.8429V31.1142V29.3855V27.6574V25.9287V24.2003V22.4713V20.7426V19.0148V17.2858V15.5574V13.8287H39.0856V15.5574H42.3434V13.8287H45.6009H48.858H52.115H55.3719V15.5574V17.2858V19.0148H58.6288H61.8865V17.2858H58.6288V15.5574V13.8287V12.1001H55.3719H52.115H48.858H45.6009H42.3434H39.0856H35.8293V10.3711V8.64324V6.91456V5.18588V3.4572V1.72852H32.5718H29.3154V3.4572H32.5718V5.18588Z" fill="black"/>
<path d="M22.7993 5.18588V6.91456H26.0571H29.3148V5.18588V3.4572H26.0571V1.72852H22.7993V3.4572V5.18588Z" fill="black"/>
<path d="M224.744 3.4572V1.72852H221.486H218.229V3.4572H221.486V5.18588H224.744V6.91456V8.64324V10.3711V12.1001V13.8287V15.5574V17.2858V19.0148V20.7426H228V19.0148V17.2858V15.5574V13.8287V12.1001V10.3711V8.64324V6.91456V5.18588V3.4572H224.744Z" fill="black"/>
<path d="M208.457 3.45681V5.18549V6.91418H211.714V5.18549H214.972V3.45681V1.72813V0H211.714H208.457H205.2V1.72813H208.457V3.45681Z" fill="black"/>
<path d="M205.201 1.72852H201.944V3.4572H205.201V1.72852Z" fill="black"/>
<path d="M19.5424 0H16.2855H13.0286V1.72813V3.45681V5.18549H16.2855V6.91418H19.5424V5.18549V3.45681V1.72813H22.7993V0H19.5424Z" fill="black"/>
<path d="M13.0288 0H9.77185V1.72813H13.0288V0Z" fill="#999DA3"/>
</g>
<defs>
<clipPath id="clip0">
<rect width="228" height="121" fill="white"/>
</clipPath>
</defs>
</svg>
