<svg width="348" height="82" viewBox="0 0 348 82" fill="none" xmlns="http://www.w3.org/2000/svg">
<path d="M5.89162 66.3638L0 31.1835L10.8732 5.87896L331.233 0L345.337 10.9567L348 33.1697L345.133 66.8718L328.96 80.9169L18.6403 82L5.89162 66.3638Z" fill="#262047"/>
<path d="M4.09949 32.6819L12.9399 12.1073L330.425 6.39935L341.905 15.3179L344.086 33.5115L341.45 62.8846L327.98 74.583L19.9206 75.6382L9.44961 62.7958L4.09949 32.6819Z" fill="#9F3F33"/>
<path d="M12.9399 12.1053L15.6212 19.1658L7.33191 34.1487L4.09949 32.6799L12.9399 12.1053Z" fill="#BB4B3F"/>
<path d="M12.9401 12.1073L15.6213 19.1678L282.416 13.8166L327.571 15.6373L330.425 6.39935L12.9401 12.1073Z" fill="#DF734C"/>
<path d="M327.572 15.6373L337.715 19.1678L341.906 15.3179L330.426 6.39935L327.572 15.6373Z" fill="#BB4B3F"/>
<path d="M337.714 19.168L341.905 35.5783L344.086 33.5117L341.905 15.3181L337.714 19.168Z" fill="#7A282A"/>
<path d="M341.905 35.5782L339.951 56.9246L341.45 62.8848L344.086 33.5116L341.905 35.5782Z" fill="#661D22"/>
<path d="M339.952 56.9239L327.572 68.6963L327.981 74.5824L341.451 62.8841L339.952 56.9239Z" fill="#51141A"/>
<path d="M327.572 68.697L275.654 71.2833L22.8205 69.9899L19.921 75.6384L327.981 74.5832L327.572 68.697Z" fill="#420F16"/>
<path d="M9.44995 62.796L12.9403 60.6704L22.8204 69.99L19.921 75.6384L9.44995 62.796Z" fill="#51141A"/>
<path d="M7.33191 34.1498L12.94 60.6692L9.44961 62.7948L4.09949 32.681L7.33191 34.1498Z" fill="#7A282A"/>
<path d="M341.753 38.4641L341.911 47.1454L338.771 45.0893L341.753 38.4641Z" fill="#420F16"/>
<path d="M341.911 47.1466L340.298 53.206L338.771 45.0904L341.911 47.1466Z" fill="#DF734C"/>
<path d="M8.35962 39.422L8.86387 48.0676L11.8224 45.3885L8.35962 39.422Z" fill="#51141A"/>
<path d="M8.86377 48.07L11.3136 53.4044L11.8223 45.3908L8.86377 48.07Z" fill="#DF734C"/>
<path d="M334.146 37.1203L332.749 53.9208L325.613 60.6208L309.674 60.6569L288.607 60.6934L271.188 60.7295L250.114 60.7751L245.075 60.7841L232.69 60.8111L211.622 60.8472L199.78 60.8748L194.197 60.8838L173.125 60.9289L155.7 60.9654L134.632 61.0015L117.213 61.0376L104.567 61.0651L96.1343 61.0832L78.7149 61.1193L57.6476 61.1558L40.2227 61.1919L22.2378 61.228L22.1768 61.1558L22.1103 61.0651L20.5303 58.9796L16.6882 53.8752L13.8552 36.6489L18.54 24.8625L41.5421 24.6176L62.7205 24.3997L80.234 24.2098L101.418 23.9829L118.931 23.8015L140.115 23.575L157.629 23.3937L178.813 23.1668L196.326 22.9854L199.553 22.9493L217.51 22.759L235.024 22.5776L246.04 22.4599L256.202 22.3507L273.721 22.1694L288.03 22.0155L294.899 21.9429L312.413 21.7616L326.905 21.6073L331.296 25.2974L332.987 26.7121L334.146 37.1203Z" fill="#420F16"/>
</svg>
