<svg width="153" height="187" viewBox="0 0 153 187" fill="none" xmlns="http://www.w3.org/2000/svg">
<path fill-rule="evenodd" clip-rule="evenodd" d="M10.0591 174.323C10.0591 174.323 3.06198 169.446 1.02319 153.788H151.961C151.961 153.788 152.141 163.028 137.669 178.489C137.669 178.489 119.035 188.364 71.8506 186.839C23.5323 185.279 10.0591 174.323 10.0591 174.323Z" fill="url(#paint0_radial)"/>
<path fill-rule="evenodd" clip-rule="evenodd" d="M1.02528 153.788C-0.679964 148.34 28.1086 138.321 73.9927 138.321C117.737 138.321 150.093 148.514 151.963 153.788C153.832 159.061 123.548 171.455 73.9927 171.455C24.4377 171.455 3.00223 160.106 1.02528 153.788Z" fill="#FFD8EE"/>
<path fill-rule="evenodd" clip-rule="evenodd" d="M9.74262 150.35C9.74262 150.35 -3.10476 126.268 0.706728 108.487H151.645C151.645 108.487 151.727 137.813 137.353 154.517C137.353 154.517 118.719 164.392 71.5341 162.867C23.214 161.307 9.74262 150.35 9.74262 150.35Z" fill="url(#paint1_linear)"/>
<path fill-rule="evenodd" clip-rule="evenodd" d="M0.706763 108.488C-0.998476 103.039 27.7901 93.0205 73.6741 93.0205C117.418 93.0205 149.777 103.213 151.645 108.488C153.515 113.762 123.231 126.154 73.6741 126.154C24.1173 126.154 2.68559 114.805 0.706763 108.488Z" fill="#A4A0C2"/>
<path fill-rule="evenodd" clip-rule="evenodd" d="M132.197 109.586C132.272 109.885 132.123 110.221 131.785 110.558C127.044 115.266 84.507 123.263 56.8484 121.04C56.661 121.021 56.4923 121.002 56.3237 121.002C43.1877 119.9 33.8183 118.087 27.5407 116.051C21.3382 114.033 18.1338 111.828 17.2718 109.922C17.0469 109.455 16.9907 109.007 17.0469 108.596C17.6091 104.691 65.5057 100.655 89.098 104.317C98.9734 105.868 101.897 107.718 100.323 109.418C99.1233 110.763 95.1319 111.996 89.5665 112.893C85.3315 113.566 80.1595 114.052 74.6128 114.238C69.722 114.407 65.5432 114.388 62.0203 114.238C53.1755 113.883 48.3971 112.8 46.3921 112.221C45.605 111.996 45.249 111.847 45.249 111.847C45.249 111.847 48.9218 106.354 54.8246 108.185C60.7273 110.016 62.1889 112.781 62.1889 112.781C62.1889 112.781 86.3246 113.603 91.5715 110.333C91.9463 110.109 92.2274 109.866 92.396 109.586C94.9258 105.457 23.8679 103.401 23.6805 110.763C23.6805 111.099 23.7555 111.417 23.9616 111.735C27.7843 118.592 72.9638 123.562 102.346 114.799C106.956 113.435 109.411 111.922 110.067 110.371C112.803 104.018 85.0129 97.1795 50.7395 97.5345H50.2897C37.3786 97.7027 23.5868 98.8798 10.151 101.496L17.0469 99.3095C17.0469 99.3095 33.0874 94.6944 68.6351 96.021C104.202 97.3476 131.094 105.12 132.197 109.586Z" fill="#7B5B7B"/>
<path fill-rule="evenodd" clip-rule="evenodd" d="M62.0219 114.239C53.1772 113.884 48.3988 112.8 46.3937 112.221C47.9116 110.726 50.8723 108.652 54.8262 109.885C59.6796 111.399 61.5347 113.529 62.0219 114.239Z" fill="#5A475C"/>
<path fill-rule="evenodd" clip-rule="evenodd" d="M92.3958 111.305C92.6019 110.969 92.3021 110.633 91.5713 110.334C91.9461 110.11 92.2272 109.867 92.3958 109.586C94.9256 105.457 23.8677 103.402 23.6803 110.764C23.6803 111.1 23.7553 111.417 23.9614 111.735C23.774 111.959 23.6803 112.202 23.6803 112.464C23.6428 113.734 25.0482 114.949 27.5405 116.051C21.3379 114.033 18.1336 111.829 17.2716 109.923C20.832 106.148 66.3113 102.486 89.0978 106.036C95.7126 107.064 99.2168 108.26 100.322 109.418C99.1231 110.764 95.1317 111.997 89.5662 112.894C90.9904 112.464 92.0042 111.941 92.3958 111.305Z" fill="#5A475C"/>
<path fill-rule="evenodd" clip-rule="evenodd" d="M131.787 110.558C127.046 115.266 84.5089 123.263 56.8503 121.04C56.6629 121.021 56.4943 121.002 56.3256 121.002C71.1856 121.712 88.5191 120.629 102.348 116.499C108.645 114.612 110.931 112.482 110.069 110.371C112.805 104.018 85.0149 97.1796 50.7415 97.5346C56.0446 97.4411 62.0035 97.4785 68.6371 97.7214C102.311 98.9733 128.189 106.017 131.787 110.558Z" fill="#5A475C"/>
<path opacity="0.5" fill-rule="evenodd" clip-rule="evenodd" d="M9.74271 150.35C9.74271 150.35 22.0017 166.066 61.4564 168.984C117.731 173.147 137.353 154.517 137.353 154.517C137.353 154.517 68.2118 171.455 9.74271 150.35Z" fill="url(#paint2_linear)"/>
<path fill-rule="evenodd" clip-rule="evenodd" d="M17.5003 119.095C17.5003 119.095 34.1911 124.53 51.5995 124.439C69.0098 124.347 95.5403 125.311 95.5403 125.311C95.5403 125.311 74.7964 132.124 56.5203 131.021C38.2424 129.919 17.5003 119.095 17.5003 119.095Z" fill="#8B6F8B"/>
<path fill-rule="evenodd" clip-rule="evenodd" d="M127.552 120.435C127.552 120.435 139.446 112.897 143.13 111.55C146.814 110.203 150.039 111.55 150.039 111.55C150.039 111.55 144.766 121.851 127.552 120.435Z" fill="#8B6F8B"/>
<path fill-rule="evenodd" clip-rule="evenodd" d="M1.22217 109.586C1.22217 109.586 2.74939 109.128 5.20606 110.95C7.66272 112.774 16.2152 118.654 16.2152 118.654C16.2152 118.654 6.31165 121.423 3.36402 118.654C2.11789 117.486 1.22217 109.586 1.22217 109.586Z" fill="#8B6F8B"/>
<path fill-rule="evenodd" clip-rule="evenodd" d="M84.9195 186.979L86.6341 171.454C86.6341 171.454 104.009 170.896 117.731 167.856L111.544 185.131C111.544 185.131 93.7737 187.009 84.9195 186.979Z" fill="#FFCCB5"/>
<path fill-rule="evenodd" clip-rule="evenodd" d="M13.7021 176.454L10.1436 161.337C10.1436 161.337 19.7173 165.29 25.2078 166.518L25.7268 180.845C25.7268 180.845 19.1308 179.225 13.7021 176.454Z" fill="#FFCCB5"/>
<path fill-rule="evenodd" clip-rule="evenodd" d="M92.3959 109.586V111.305C92.3959 111.305 91.2921 112.37 90.2877 112.654L89.9598 111.12C89.9598 111.12 91.7269 110.373 92.3959 109.586Z" fill="#7B5B7B"/>
<path fill-rule="evenodd" clip-rule="evenodd" d="M110.232 109.455L110.11 111.957L108.073 114.11V112.419C108.073 112.419 110.147 111.615 110.232 109.455Z" fill="#7B5B7B"/>
<path fill-rule="evenodd" clip-rule="evenodd" d="M23.7065 112.789V110.322C23.7065 110.322 23.4442 111.703 25.3987 113.172L25.631 115.046C25.631 115.046 23.7065 114.035 23.7065 112.789Z" fill="#7B5B7B"/>
<path fill-rule="evenodd" clip-rule="evenodd" d="M57.3297 143.979L60.8432 140.711L69.0995 147.436L81.0756 135.988L85.0388 139.239L69.42 152.875L57.3297 143.979Z" fill="#8B6F8B"/>
<path fill-rule="evenodd" clip-rule="evenodd" d="M57.9203 143.43L69.5684 151.574L84.1735 138.602L81.0759 135.988L69.0999 147.436L60.8436 140.711L57.9203 143.43Z" fill="#48334A"/>
<g clip-path="url(#clip0)">
<path fill-rule="evenodd" clip-rule="evenodd" d="M103.355 20.8469C103.355 20.8469 109.451 25.2213 108.987 27.3017C108.523 29.3822 101.13 30.8174 101.13 30.8174C101.13 30.8174 98.8015 37.897 96.6553 38.1032C94.509 38.3095 90.8417 31.8064 90.8417 31.8064C90.8417 31.8064 83.3067 31.8076 82.4448 29.8538C81.5829 27.9011 86.7104 22.4461 86.7104 22.4461C86.7104 22.4461 84.381 15.3665 85.995 13.9542C87.6089 12.5407 94.4443 15.6728 94.4443 15.6728C94.4443 15.6728 100.54 11.2972 102.399 12.3767C104.259 13.4561 103.355 20.8469 103.355 20.8469Z" fill="url(#paint3_linear)"/>
<path fill-rule="evenodd" clip-rule="evenodd" d="M101.713 21.5536C101.713 21.5536 106.717 25.144 106.336 26.8518C105.956 28.5596 99.8868 29.7379 99.8868 29.7379C99.8868 29.7379 97.9762 35.5488 96.2145 35.7188C94.4528 35.8889 91.4435 30.5508 91.4435 30.5508C91.4435 30.5508 85.2588 30.5508 84.5507 28.948C83.8426 27.3451 88.052 22.8682 88.052 22.8682C88.052 22.8682 86.1402 17.0574 87.4648 15.8971C88.7894 14.7369 94.4003 17.307 94.4003 17.307C94.4003 17.307 99.4033 13.7154 100.929 14.6006C102.454 15.4883 101.713 21.5536 101.713 21.5536Z" fill="#432444"/>
<path fill-rule="evenodd" clip-rule="evenodd" d="M105.82 26.7626C105.454 28.4028 99.6426 29.5245 99.6426 29.5245C99.6426 29.5245 97.8114 35.0965 96.1267 35.2533C94.4907 35.4221 91.7317 30.622 91.573 30.3205C91.5607 30.3084 91.5608 30.3084 91.5608 30.3084C91.5608 30.3084 85.6397 30.3084 84.9561 28.7767C84.2846 27.233 88.3133 22.9514 88.3133 22.9514C88.3133 22.9514 86.4821 17.3915 87.7518 16.2698C89.0214 15.1602 94.3931 17.6206 94.3931 17.6206C94.3931 17.6206 99.1787 14.1833 100.644 15.0396C102.109 15.8839 101.388 21.6971 101.388 21.6971C101.388 21.6971 106.186 25.1344 105.82 26.7626Z" fill="url(#paint4_linear)"/>
<path fill-rule="evenodd" clip-rule="evenodd" d="M53.9909 15.0528C53.9909 15.0528 60.6164 11.5082 62.3158 12.8204C64.0152 14.1326 62.1339 21.3401 62.1339 21.3401C62.1339 21.3401 67.5934 26.4695 66.8561 28.4715C66.1187 30.4736 58.5984 30.9343 58.5984 30.9343C58.5984 30.9343 55.3473 37.6497 53.1913 37.5749C51.0365 37.5001 48.2689 30.5773 48.2689 30.5773C48.2689 30.5773 40.7999 29.598 40.2053 27.5489C39.6108 25.501 45.4207 20.7611 45.4207 20.7611C45.4207 20.7611 44.0558 13.4403 45.8443 12.2499C47.6329 11.0583 53.9909 15.0528 53.9909 15.0528Z" fill="url(#paint5_linear)"/>
<path fill-rule="evenodd" clip-rule="evenodd" d="M53.9275 16.8222C53.9275 16.8222 59.3663 13.9131 60.7605 14.9902C62.1559 16.0672 60.6116 21.9841 60.6116 21.9841C60.6116 21.9841 65.0932 26.1945 64.4877 27.8384C63.8822 29.481 57.7097 29.8597 57.7097 29.8597C57.7097 29.8597 55.0409 35.3715 53.2719 35.3099C51.503 35.2484 49.231 29.5655 49.231 29.5655C49.231 29.5655 43.1 28.761 42.6129 27.0798C42.1258 25.3985 46.8943 21.5089 46.8943 21.5089C46.8943 21.5089 45.7736 15.4979 47.241 14.521C48.7085 13.5441 53.9275 16.8222 53.9275 16.8222Z" fill="#432444"/>
<path fill-rule="evenodd" clip-rule="evenodd" d="M53.9152 17.1659C53.9152 17.1659 59.1232 14.3799 60.4588 15.411C61.7944 16.4422 60.316 22.1071 60.316 22.1071C60.316 22.1071 64.6072 26.139 64.0273 27.7129C63.4474 29.2868 57.5362 29.6486 57.5362 29.6486C57.5362 29.6486 54.981 34.9264 53.2865 34.8673C51.5932 34.8082 49.4176 29.3664 49.4176 29.3664C49.4176 29.3664 43.5467 28.5957 43.0803 26.9869C42.614 25.3768 47.1799 21.6524 47.1799 21.6524C47.1799 21.6524 46.1068 15.8983 47.5131 14.9624C48.9183 14.0265 53.9152 17.1659 53.9152 17.1659Z" fill="url(#paint6_linear)"/>
<path fill-rule="evenodd" clip-rule="evenodd" d="M80.9261 8.14334C80.9261 8.14334 89.6575 9.23845 90.3656 11.6277C91.0737 14.0157 84.3188 19.5913 84.3188 19.5913C84.3188 19.5913 85.962 28.1339 83.8817 29.5365C81.8015 30.9392 74.3471 26.3151 74.3471 26.3151C74.3471 26.3151 66.6314 30.499 64.6378 28.9781C62.6442 27.4573 64.7928 19.0245 64.7928 19.0245C64.7928 19.0245 58.381 13.0677 59.2295 10.7243C60.078 8.38094 68.8594 7.79359 68.8594 7.79359C68.8594 7.79359 72.611 -0.0723712 75.1284 -7.29371e-06C77.647 0.0735627 80.9261 8.14334 80.9261 8.14334Z" fill="url(#paint7_linear)"/>
<path fill-rule="evenodd" clip-rule="evenodd" d="M79.6467 9.77994C79.6467 9.77994 86.8142 10.6797 87.3953 12.6395C87.9764 14.6006 82.4314 19.1764 82.4314 19.1764C82.4314 19.1764 83.7804 26.1885 82.0725 27.3402C80.3645 28.492 74.2457 24.6966 74.2457 24.6966C74.2457 24.6966 67.9121 28.1302 66.2762 26.8819C64.6402 25.6337 66.4031 18.7121 66.4031 18.7121C66.4031 18.7121 61.1401 13.8227 61.836 11.899C62.5331 9.97532 69.7409 9.49289 69.7409 9.49289C69.7409 9.49289 72.821 3.03683 74.8879 3.09713C76.9548 3.15623 79.6467 9.77994 79.6467 9.77994Z" fill="#432444"/>
<path fill-rule="evenodd" clip-rule="evenodd" d="M79.3976 10.0984C79.3976 10.0984 86.2611 10.9595 86.8166 12.8373C87.3733 14.7152 82.0639 19.0956 82.0639 19.0956C82.0639 19.0956 83.3556 25.8098 81.7196 26.9133C80.085 28.0157 74.225 24.3818 74.225 24.3818C74.225 24.3818 68.1599 27.6707 66.5936 26.4743C65.026 25.2791 66.7144 18.6506 66.7144 18.6506C66.7144 18.6506 61.6748 13.9686 62.3414 12.127C63.008 10.2853 69.9106 9.82337 69.9106 9.82337C69.9106 9.82337 72.8601 3.64108 74.839 3.69897C76.8205 3.75565 79.3976 10.0984 79.3976 10.0984Z" fill="url(#paint8_linear)"/>
<path fill-rule="evenodd" clip-rule="evenodd" d="M101.894 55.871C101.894 71.5378 89.5025 82.2247 74.1518 82.2247C58.8011 82.2247 46.3047 71.5378 46.3047 55.871C46.3047 40.2042 58.7486 27.5031 74.0993 27.5031C89.45 27.5031 101.894 40.2042 101.894 55.871Z" fill="url(#paint9_linear)"/>
<path d="M74.0993 27.5032C89.45 27.5032 101.894 40.2042 101.894 55.871C101.894 71.5378 89.5025 82.2247 74.1518 82.2247C58.801 82.2247 46.3046 71.5378 46.3046 55.871C46.3046 40.2042 58.7486 27.5032 74.0993 27.5032ZM74.0993 26.2971C58.1003 26.2971 45.0838 39.5638 45.0838 55.871C45.0838 71.5824 57.5802 83.4308 74.1518 83.4308C90.6635 83.4308 103.115 71.5824 103.115 55.871C103.115 39.5638 90.0983 26.2971 74.0993 26.2971Z" fill="white"/>
<path fill-rule="evenodd" clip-rule="evenodd" d="M99.0177 55.4851C99.0177 68.9098 87.9094 77.2027 74.1482 77.2027C60.387 77.2027 49.1846 68.9098 49.1846 55.4851C49.1846 42.0603 60.3406 31.1768 74.1018 31.1768C87.8617 31.1768 99.0177 42.0603 99.0177 55.4851Z" fill="#80459A"/>
<path fill-rule="evenodd" clip-rule="evenodd" d="M78.5271 75.2525C65.9196 77.8117 54.0861 72.2916 51.5383 60.0018C51.3502 59.0731 51.2147 58.1336 51.1415 57.2158V57.2049C50.243 45.9366 58.0868 35.474 69.7225 33.121C79.9274 31.0466 89.9431 35.8346 94.7166 44.265C94.7166 44.265 94.7166 44.2759 94.7276 44.2855C95.8446 46.2563 96.6809 48.4235 97.1607 50.7452C99.7195 63.0459 91.1237 72.6932 78.5271 75.2525Z" fill="url(#paint10_radial)"/>
<path d="M56.8448 60.89C57.5248 60.35 57.8348 60.1 57.7748 60.14C59.7348 58.52 61.2748 57.19 62.3948 56.15C63.5348 55.11 64.4948 54.02 65.2748 52.88C66.0548 51.74 66.4448 50.63 66.4448 49.55C66.4448 48.73 66.2548 48.09 65.8748 47.63C65.4948 47.17 64.9248 46.94 64.1648 46.94C63.4048 46.94 62.8048 47.23 62.3648 47.81C61.9448 48.37 61.7348 49.17 61.7348 50.21H56.7848C56.8248 48.51 57.1848 47.09 57.8648 45.95C58.5648 44.81 59.4748 43.97 60.5948 43.43C61.7348 42.89 62.9948 42.62 64.3748 42.62C66.7548 42.62 68.5448 43.23 69.7448 44.45C70.9648 45.67 71.5748 47.26 71.5748 49.22C71.5748 51.36 70.8448 53.35 69.3848 55.19C67.9248 57.01 66.0648 58.79 63.8048 60.53H71.9048V64.7H56.8448V60.89ZM90.5835 47.57H81.2235V51.71C81.6235 51.27 82.1835 50.91 82.9035 50.63C83.6235 50.35 84.4035 50.21 85.2435 50.21C86.7435 50.21 87.9835 50.55 88.9635 51.23C89.9635 51.91 90.6935 52.79 91.1535 53.87C91.6135 54.95 91.8435 56.12 91.8435 57.38C91.8435 59.72 91.1835 61.58 89.8635 62.96C88.5435 64.32 86.6835 65 84.2835 65C82.6835 65 81.2935 64.73 80.1135 64.19C78.9335 63.63 78.0235 62.86 77.3835 61.88C76.7435 60.9 76.3935 59.77 76.3335 58.49H81.3435C81.4635 59.11 81.7535 59.63 82.2135 60.05C82.6735 60.45 83.3035 60.65 84.1035 60.65C85.0435 60.65 85.7435 60.35 86.2035 59.75C86.6635 59.15 86.8935 58.35 86.8935 57.35C86.8935 56.37 86.6535 55.62 86.1735 55.1C85.6935 54.58 84.9935 54.32 84.0735 54.32C83.3935 54.32 82.8335 54.49 82.3935 54.83C81.9535 55.15 81.6635 55.58 81.5235 56.12H76.5735V43.07H90.5835V47.57Z" fill="white"/>
<path opacity="0.2" fill-rule="evenodd" clip-rule="evenodd" d="M78.5272 75.2525C65.9197 77.8118 54.0862 72.2916 51.5383 60.0018C51.3503 59.0731 51.2148 58.1336 51.1416 57.2158C51.6323 58.2578 52.4015 64.2122 58.7534 67.0368C70.6236 72.3157 87.1231 67.003 92.6901 59.5628C98.08 52.3288 94.8534 44.6474 94.7289 44.2868C95.8459 46.2575 96.6822 48.4248 97.162 50.7465C99.7196 63.0459 91.1238 72.6932 78.5272 75.2525Z" fill="url(#paint11_linear)"/>
<path d="M58.7009 47.326C59.9711 47.326 61.0009 46.3087 61.0009 45.0538C61.0009 43.7989 59.9711 42.7816 58.7009 42.7816C57.4306 42.7816 56.4008 43.7989 56.4008 45.0538C56.4008 46.3087 57.4306 47.326 58.7009 47.326Z" fill="white"/>
<path fill-rule="evenodd" clip-rule="evenodd" d="M91.3399 67.8882C88.709 70.2497 85.884 71.4123 85.0294 70.4837C84.1748 69.555 85.6154 66.8872 88.2463 64.5257C90.8772 62.1642 93.7022 61.0016 94.5568 61.9303C95.4114 62.8589 93.9708 65.5267 91.3399 67.8882Z" fill="white"/>
<g style="mix-blend-mode:soft-light" opacity="0.5">
<path fill-rule="evenodd" clip-rule="evenodd" d="M53.5368 54.8639C53.5368 54.8639 62.2682 59.2118 66.203 47.3248C70.2268 35.1677 84.5911 35.6875 88.698 38.5567C88.698 38.5567 80.5184 31.1768 66.5985 35.6887C51.7923 40.4912 53.5368 54.8639 53.5368 54.8639Z" fill="url(#paint12_linear)"/>
</g>
</g>
<defs>
<radialGradient id="paint0_radial" cx="0" cy="0" r="1" gradientUnits="userSpaceOnUse" gradientTransform="translate(76.4937 170.395) scale(54.6484 54.4899)">
<stop stop-color="#FF9689"/>
<stop offset="0.9888" stop-color="#FF909C"/>
</radialGradient>
<linearGradient id="paint1_linear" x1="75.8227" y1="163.028" x2="75.8227" y2="108.487" gradientUnits="userSpaceOnUse">
<stop stop-color="#48365E"/>
<stop offset="1" stop-color="#685763"/>
</linearGradient>
<linearGradient id="paint2_linear" x1="9.74252" y1="159.971" x2="137.353" y2="159.971" gradientUnits="userSpaceOnUse">
<stop stop-color="#C77CBD"/>
<stop offset="1" stop-color="#974577"/>
</linearGradient>
<linearGradient id="paint3_linear" x1="95.898" y1="38.1225" x2="95.3451" y2="12.3404" gradientUnits="userSpaceOnUse">
<stop stop-color="#C1BDF1"/>
<stop offset="1" stop-color="#FBF9FE"/>
</linearGradient>
<linearGradient id="paint4_linear" x1="95.3598" y1="35.2572" x2="95.3598" y2="14.9021" gradientUnits="userSpaceOnUse">
<stop stop-color="#48365E"/>
<stop offset="1" stop-color="#685763"/>
</linearGradient>
<linearGradient id="paint5_linear" x1="66.5464" y1="29.1547" x2="42.8597" y2="18.3155" gradientUnits="userSpaceOnUse">
<stop stop-color="#C1BDF1"/>
<stop offset="1" stop-color="#FBF9FE"/>
</linearGradient>
<linearGradient id="paint6_linear" x1="53.5641" y1="34.8682" x2="53.564" y2="14.7883" gradientUnits="userSpaceOnUse">
<stop stop-color="#48365E"/>
<stop offset="1" stop-color="#685763"/>
</linearGradient>
<linearGradient id="paint7_linear" x1="83.1169" y1="29.9758" x2="68.1468" y2="3.72939" gradientUnits="userSpaceOnUse">
<stop stop-color="#C1BDF1"/>
<stop offset="1" stop-color="#FBF9FE"/>
</linearGradient>
<linearGradient id="paint8_linear" x1="74.5699" y1="27.1208" x2="74.5699" y2="3.69776" gradientUnits="userSpaceOnUse">
<stop stop-color="#48365E"/>
<stop offset="1" stop-color="#685763"/>
</linearGradient>
<linearGradient id="paint9_linear" x1="74.0993" y1="82.2249" x2="74.0993" y2="27.5035" gradientUnits="userSpaceOnUse">
<stop stop-color="#C1BDF1"/>
<stop offset="1" stop-color="#FBF9FE"/>
</linearGradient>
<radialGradient id="paint10_radial" cx="0" cy="0" r="1" gradientUnits="userSpaceOnUse" gradientTransform="translate(64.8564 46.5645) scale(22.5773 22.3043)">
<stop stop-color="#6AA2FF"/>
<stop offset="0.9973" stop-color="#9A3989"/>
</radialGradient>
<linearGradient id="paint11_linear" x1="51.1411" y1="60.0759" x2="97.6127" y2="60.0759" gradientUnits="userSpaceOnUse">
<stop stop-color="#C77CBD"/>
<stop offset="1" stop-color="#974577"/>
</linearGradient>
<linearGradient id="paint12_linear" x1="53.4738" y1="44.9345" x2="88.6981" y2="44.9345" gradientUnits="userSpaceOnUse">
<stop stop-color="#FF5942"/>
<stop offset="1"/>
</linearGradient>
<clipPath id="clip0">
<rect width="68.8499" height="83.4308" fill="white" transform="translate(40.1626)"/>
</clipPath>
</defs>
</svg>
