<svg width="153" height="190" viewBox="0 0 153 190" fill="none" xmlns="http://www.w3.org/2000/svg">
<path fill-rule="evenodd" clip-rule="evenodd" d="M10.0591 177.314C10.0591 177.314 3.06197 172.434 1.02318 156.767H151.961C151.961 156.767 152.143 166.012 137.669 181.484C137.669 181.484 119.035 191.365 71.8506 189.839C23.5324 188.278 10.0591 177.314 10.0591 177.314Z" fill="url(#paint0_radial)"/>
<path fill-rule="evenodd" clip-rule="evenodd" d="M1.02526 156.767C-0.679981 151.315 28.1086 141.29 73.9927 141.29C117.737 141.29 150.093 151.489 151.963 156.767C153.834 162.043 123.55 174.444 73.9927 174.444C24.4358 174.444 3.00221 163.088 1.02526 156.767Z" fill="#FFD8EE"/>
<path fill-rule="evenodd" clip-rule="evenodd" d="M9.74263 153.326C9.74263 153.326 -3.10477 129.228 0.706728 111.437H151.645C151.645 111.437 151.727 140.781 137.353 157.496C137.353 157.496 118.719 167.377 71.5342 165.851C23.214 164.29 9.74263 153.326 9.74263 153.326Z" fill="url(#paint1_linear)"/>
<g clip-path="url(#clip0)">
<path fill-rule="evenodd" clip-rule="evenodd" d="M65.1084 148.191L67.5821 145.949L73.395 150.562L81.8268 142.706L84.6171 144.937L73.6206 154.294L65.1084 148.191Z" fill="#4C95C7"/>
<path fill-rule="evenodd" clip-rule="evenodd" d="M65.5241 147.814L73.725 153.402L84.0077 144.501L81.8269 142.706L73.3952 150.562L67.5822 145.949L65.5241 147.814Z" fill="#00FFED"/>
<g style="mix-blend-mode:color-dodge" opacity="0.5">
<path d="M73.4993 159C82.0594 159 88.9987 154.299 88.9987 148.5C88.9987 142.701 82.0594 138 73.4993 138C64.9393 138 58 142.701 58 148.5C58 154.299 64.9393 159 73.4993 159Z" fill="url(#paint2_radial)"/>
</g>
</g>
<path fill-rule="evenodd" clip-rule="evenodd" d="M0.706771 111.437C-0.99847 105.983 27.7901 95.9596 73.6742 95.9596C117.418 95.9596 149.777 106.159 151.645 111.437C153.513 116.715 123.229 129.114 73.6742 129.114C24.1192 129.114 2.68373 117.756 0.706771 111.437Z" fill="#A4A0C2"/>
<path fill-rule="evenodd" clip-rule="evenodd" d="M132.198 112.536C132.272 112.835 132.123 113.172 131.785 113.508C127.044 118.22 84.507 126.222 56.8484 123.997C56.661 123.978 56.4923 123.959 56.3237 123.959C43.1877 122.856 33.8182 121.043 27.5407 119.005C21.3381 116.986 18.1338 114.779 17.2718 112.872C17.0469 112.405 16.9907 111.956 17.0469 111.545C17.6091 107.637 65.5057 103.599 89.098 107.263C98.9734 108.815 101.897 110.666 100.323 112.368C99.1233 113.714 95.132 114.948 89.5665 115.845C85.3315 116.518 80.1596 117.004 74.6129 117.191C69.722 117.36 65.5432 117.341 62.0203 117.191C53.1755 116.836 48.3971 115.752 46.3921 115.172C45.605 114.948 45.249 114.798 45.249 114.798C45.249 114.798 48.9218 109.301 54.8246 111.134C60.7273 112.966 62.189 115.733 62.189 115.733C62.189 115.733 86.3247 116.556 91.5716 113.284C91.9464 113.059 92.2274 112.816 92.3961 112.536C94.9258 108.404 23.8679 106.347 23.6805 113.714C23.6805 114.05 23.7555 114.368 23.9616 114.686C27.7843 121.548 72.9638 126.521 102.346 117.752C106.956 116.387 109.411 114.873 110.067 113.321C112.803 106.964 85.0129 100.121 50.7395 100.476H50.2898C37.3786 100.645 23.5868 101.823 10.151 104.44L17.0469 102.253C17.0469 102.253 33.0874 97.6346 68.6351 98.9621C104.202 100.29 131.092 108.067 132.198 112.536Z" fill="#4C95C7"/>
<path fill-rule="evenodd" clip-rule="evenodd" d="M62.022 117.192C53.1772 116.836 48.3988 115.752 46.3937 115.172C47.9116 113.677 50.8723 111.601 54.8263 112.835C59.6796 114.35 61.5329 116.481 62.022 117.192Z" fill="#00FFED"/>
<path fill-rule="evenodd" clip-rule="evenodd" d="M92.3959 114.256C92.602 113.92 92.3022 113.583 91.5714 113.284C91.9462 113.06 92.2272 112.817 92.3959 112.536C94.9257 108.404 23.8677 106.348 23.6803 113.714C23.6803 114.051 23.7553 114.369 23.9614 114.686C23.774 114.911 23.6803 115.154 23.6803 115.416C23.6428 116.687 25.0483 117.902 27.5405 119.005C21.338 116.986 18.1336 114.78 17.2716 112.873C20.832 109.096 66.3113 105.432 89.0979 108.984C95.7127 110.012 99.2169 111.209 100.322 112.368C99.1232 113.714 95.1318 114.948 89.5663 115.846C90.9905 115.416 92.0043 114.892 92.3959 114.256Z" fill="#00FFED"/>
<path fill-rule="evenodd" clip-rule="evenodd" d="M131.785 113.508C127.044 118.22 84.5072 126.222 56.8485 123.997C56.6611 123.978 56.4925 123.96 56.3238 123.96C71.1838 124.67 88.5173 123.586 102.347 119.454C108.643 117.565 110.929 115.434 110.067 113.321C112.803 106.964 85.0131 100.121 50.7396 100.477C56.0428 100.383 62.0017 100.42 68.6353 100.663C102.311 101.916 128.189 108.965 131.785 113.508Z" fill="#00FFED"/>
<path opacity="0.5" fill-rule="evenodd" clip-rule="evenodd" d="M9.7427 153.327C9.7427 153.327 22.0017 169.052 61.4565 171.973C117.731 176.138 137.353 157.496 137.353 157.496C137.353 157.496 68.2118 174.444 9.7427 153.327Z" fill="url(#paint3_linear)"/>
<path fill-rule="evenodd" clip-rule="evenodd" d="M17.5003 122.051C17.5003 122.051 34.191 127.49 51.5995 127.398C69.0079 127.306 95.5403 128.271 95.5403 128.271C95.5403 128.271 74.7964 135.088 56.5203 133.985C38.2424 132.882 17.5003 122.051 17.5003 122.051Z" fill="#8B6F8B"/>
<path fill-rule="evenodd" clip-rule="evenodd" d="M127.552 123.391C127.552 123.391 139.446 115.849 143.13 114.501C146.814 113.153 150.039 114.501 150.039 114.501C150.039 114.501 144.766 124.809 127.552 123.391Z" fill="#8B6F8B"/>
<path fill-rule="evenodd" clip-rule="evenodd" d="M1.22222 112.536C1.22222 112.536 2.74944 112.078 5.20611 113.901C7.66278 115.726 16.2152 121.609 16.2152 121.609C16.2152 121.609 6.31171 124.38 3.36408 121.609C2.11794 120.441 1.22222 112.536 1.22222 112.536Z" fill="#8B6F8B"/>
<path fill-rule="evenodd" clip-rule="evenodd" d="M84.9196 189.979L86.6342 174.444C86.6342 174.444 104.009 173.885 117.731 170.843L111.544 188.13C111.544 188.13 93.7737 190.009 84.9196 189.979Z" fill="#FFCCB5"/>
<path fill-rule="evenodd" clip-rule="evenodd" d="M13.7021 179.448L10.1436 164.32C10.1436 164.32 19.7173 168.276 25.2078 169.505L25.7269 183.841C25.7269 183.841 19.1308 182.22 13.7021 179.448Z" fill="#FFCCB5"/>
<path fill-rule="evenodd" clip-rule="evenodd" d="M92.396 112.536V114.256C92.396 114.256 91.2922 115.322 90.2878 115.606L89.9599 114.071C89.9599 114.071 91.727 113.323 92.396 112.536Z" fill="#4C95C7"/>
<path fill-rule="evenodd" clip-rule="evenodd" d="M110.232 112.405L110.11 114.909L108.075 117.062V115.37C108.073 115.37 110.147 114.566 110.232 112.405Z" fill="#4C95C7"/>
<path fill-rule="evenodd" clip-rule="evenodd" d="M23.7047 115.74V113.272C23.7047 113.272 23.4423 114.654 25.3968 116.124L25.6292 117.999C25.631 117.999 23.7047 116.987 23.7047 115.74Z" fill="#4C95C7"/>
<g clip-path="url(#clip1)">
<path fill-rule="evenodd" clip-rule="evenodd" d="M104.311 21.1218C104.311 21.1218 110.407 25.5539 109.943 27.6618C109.479 29.7697 102.086 31.2239 102.086 31.2239C102.086 31.2239 99.7577 38.3969 97.6115 38.6058C95.4652 38.8148 91.7979 32.2259 91.7979 32.2259C91.7979 32.2259 84.2629 32.2271 83.401 30.2488C82.5391 28.2704 87.6666 22.7434 87.6666 22.7434C87.6666 22.7434 85.3372 15.5716 86.9512 14.1395C88.5651 12.7073 95.4005 15.8808 95.4005 15.8808C95.4005 15.8808 101.496 11.4475 103.355 12.5412C105.215 13.6336 104.311 21.1218 104.311 21.1218Z" fill="url(#paint4_linear)"/>
<path fill-rule="evenodd" clip-rule="evenodd" d="M102.669 21.8379C102.669 21.8379 107.674 25.4757 107.291 27.206C106.911 28.9364 100.842 30.1302 100.842 30.1302C100.842 30.1302 98.9312 36.0177 97.1695 36.19C95.4079 36.3623 92.3985 30.9538 92.3985 30.9538C92.3985 30.9538 86.2138 30.9538 85.5057 29.3298C84.7976 27.7058 89.0071 23.1699 89.0071 23.1699C89.0071 23.1699 87.0952 17.2824 88.4198 16.1069C89.7444 14.9313 95.3554 17.5366 95.3554 17.5366C95.3554 17.5366 100.358 13.8975 101.884 14.7945C103.41 15.6926 102.669 21.8379 102.669 21.8379Z" fill="url(#paint5_linear)"/>
<path fill-rule="evenodd" clip-rule="evenodd" d="M106.776 27.1156C106.41 28.7775 100.599 29.9139 100.599 29.9139C100.599 29.9139 98.7676 35.5595 97.0829 35.7183C95.4469 35.8894 92.6879 31.0259 92.5292 30.7204C92.5169 30.7082 92.5169 30.7082 92.5169 30.7082C92.5169 30.7082 86.5959 30.7082 85.9123 29.1563C85.2408 27.5922 89.2695 23.2542 89.2695 23.2542C89.2695 23.2542 87.4383 17.6209 88.708 16.4845C89.9776 15.3602 95.3493 17.8531 95.3493 17.8531C95.3493 17.8531 100.135 14.3704 101.6 15.238C103.065 16.0934 102.345 21.9833 102.345 21.9833C102.345 21.9833 107.143 25.466 106.776 27.1156Z" fill="url(#paint6_radial)"/>
<path opacity="0.5" fill-rule="evenodd" clip-rule="evenodd" d="M89.0729 24.8134C89.0729 24.8134 86.663 27.4492 87.0243 28.5502C87.3857 29.6512 93.0088 29.6989 93.0088 29.6989C93.0088 29.6989 95.7472 33.1033 97.0852 33.1729C98.4232 33.2426 100.029 28.7555 100.029 28.7555C100.029 28.7555 105.112 28.3571 106.101 27.2916C106.101 27.2916 104.149 29.6402 100.48 29.6207C100.48 29.6207 98.5795 35.2527 97.018 35.4165C95.4566 35.5802 92.6377 30.3734 92.6377 30.3734C92.6377 30.3734 87.3723 31.2312 86.243 29.1893C85.458 27.7694 89.0729 24.8134 89.0729 24.8134Z" fill="white"/>
<path fill-rule="evenodd" clip-rule="evenodd" d="M96.1087 20.1052C95.8853 20.5133 95.3725 20.6624 94.9648 20.4388C94.557 20.2152 94.4081 19.7019 94.6315 19.2938C94.8549 18.8856 95.3676 18.7353 95.7754 18.9602C96.1831 19.1838 96.3321 19.697 96.1087 20.1052Z" fill="white"/>
<path fill-rule="evenodd" clip-rule="evenodd" d="M106.776 27.1156C106.41 28.7775 100.599 29.914 100.599 29.914C100.599 29.914 98.7675 35.5595 97.0828 35.7183C95.4469 35.8894 92.6878 31.026 92.5291 30.7205L101.6 15.2381C103.065 16.0934 102.345 21.9834 102.345 21.9834C102.345 21.9834 107.142 25.466 106.776 27.1156Z" fill="url(#paint7_linear)"/>
<path fill-rule="evenodd" clip-rule="evenodd" d="M54.9471 15.2514C54.9471 15.2514 61.5726 11.66 63.2719 12.9895C64.9713 14.319 63.0913 21.6215 63.0913 21.6215C63.0913 21.6215 68.5508 26.8186 67.8134 28.8471C67.0761 30.8755 59.5557 31.3423 59.5557 31.3423C59.5557 31.3423 56.3047 38.1463 54.1487 38.0705C51.9939 37.9948 49.2263 30.9806 49.2263 30.9806C49.2263 30.9806 41.7572 29.9872 41.1627 27.9123C40.5681 25.8373 46.3781 21.035 46.3781 21.035C46.3781 21.035 45.0132 13.6176 46.8017 12.4115C48.589 11.2042 54.9471 15.2514 54.9471 15.2514Z" fill="url(#paint8_linear)"/>
<path fill-rule="evenodd" clip-rule="evenodd" d="M54.8837 17.044C54.8837 17.044 60.3225 14.0966 61.7167 15.1878C63.1108 16.2791 61.5677 22.2741 61.5677 22.2741C61.5677 22.2741 66.0494 26.54 65.4439 28.2055C64.8383 29.8699 58.6658 30.2535 58.6658 30.2535C58.6658 30.2535 55.9971 35.838 54.2281 35.7756C52.4591 35.7133 50.1871 29.9554 50.1871 29.9554C50.1871 29.9554 44.0561 29.1403 43.569 27.4369C43.0819 25.7335 47.8505 21.7914 47.8505 21.7914C47.8505 21.7914 46.7297 15.7035 48.1984 14.7125C49.6646 13.7215 54.8837 17.044 54.8837 17.044Z" fill="url(#paint9_linear)"/>
<path fill-rule="evenodd" clip-rule="evenodd" d="M54.8714 17.3923C54.8714 17.3923 60.0794 14.5695 61.415 15.6143C62.7506 16.6591 61.2722 22.3987 61.2722 22.3987C61.2722 22.3987 65.5634 26.4838 64.9835 28.0785C64.4036 29.6731 58.4924 30.0397 58.4924 30.0397C58.4924 30.0397 55.9372 35.3871 54.2426 35.3272C52.5481 35.2673 50.3738 29.7538 50.3738 29.7538C50.3738 29.7538 44.5028 28.9729 44.0365 27.3428C43.5701 25.7127 48.136 21.938 48.136 21.938C48.136 21.938 47.0629 16.108 48.4693 15.1598C49.8745 14.2115 54.8714 17.3923 54.8714 17.3923Z" fill="url(#paint10_radial)"/>
<path opacity="0.5" fill-rule="evenodd" clip-rule="evenodd" d="M51.6961 30.6043C51.6961 30.6043 53.0317 33.9183 54.1792 34.0674C55.328 34.2165 57.7978 29.1599 57.7978 29.1599C57.7978 29.1599 62.0487 28.1567 62.6884 26.9787C63.3294 25.8007 59.9782 22.4134 59.9782 22.4134C59.9782 22.4134 61.8131 17.6514 61.2796 16.2987C61.2796 16.2987 62.5541 19.075 60.9524 22.3792C60.9524 22.3792 65.2082 26.5266 64.6808 28.0076C64.1547 29.4886 58.2458 29.7856 58.2458 29.7856C58.2458 29.7856 56.7467 34.9105 54.4185 35.0486C52.8009 35.1439 51.6961 30.6043 51.6961 30.6043Z" fill="white"/>
<path fill-rule="evenodd" clip-rule="evenodd" d="M50.4899 22.2191C50.7609 22.5979 50.6742 23.1245 50.297 23.3958C49.9185 23.6671 49.3923 23.5816 49.1213 23.2028C48.8503 22.8239 48.937 22.2973 49.3142 22.026C49.6914 21.7535 50.2188 21.8403 50.4899 22.2191Z" fill="white"/>
<path fill-rule="evenodd" clip-rule="evenodd" d="M81.8823 8.25074C81.8823 8.25074 90.6137 9.3603 91.3218 11.781C92.0299 14.2018 85.275 19.8497 85.275 19.8497C85.275 19.8497 86.9183 28.5049 84.838 29.9261C82.7577 31.3473 75.3033 26.6622 75.3033 26.6622C75.3033 26.6622 67.5876 30.9012 65.594 29.3603C63.6004 27.8194 65.7478 19.2754 65.7478 19.2754C65.7478 19.2754 59.336 13.2401 60.1845 10.8658C61.033 8.49147 69.8144 7.89637 69.8144 7.89637C69.8144 7.89637 73.5673 -0.0733344 76.0846 -1.60072e-05C78.6032 0.0745243 81.8823 8.25074 81.8823 8.25074Z" fill="url(#paint11_linear)"/>
<path fill-rule="evenodd" clip-rule="evenodd" d="M80.6029 9.90895C80.6029 9.90895 87.7704 10.8205 88.3515 12.8062C88.9326 14.792 83.3876 19.4293 83.3876 19.4293C83.3876 19.4293 84.7366 26.5339 83.0287 27.7009C81.3207 28.8679 75.2019 25.0223 75.2019 25.0223C75.2019 25.0223 68.8683 28.5013 67.2323 27.2365C65.5964 25.9718 67.3593 18.9589 67.3593 18.9589C67.3593 18.9589 62.0963 14.005 62.7922 12.056C63.4881 10.1069 70.6971 9.61812 70.6971 9.61812C70.6971 9.61812 73.7772 3.0769 75.8453 3.138C77.911 3.19788 80.6029 9.90895 80.6029 9.90895Z" fill="url(#paint12_linear)"/>
<path fill-rule="evenodd" clip-rule="evenodd" d="M80.3538 10.2315C80.3538 10.2315 87.2173 11.104 87.7728 13.0066C88.3295 14.908 83.0201 19.3475 83.0201 19.3475C83.0201 19.3475 84.3118 26.1502 82.6759 27.2671C81.0399 28.384 75.1812 24.7021 75.1812 24.7021C75.1812 24.7021 69.1161 28.0345 67.5498 26.8223C65.9822 25.6113 67.6706 18.8953 67.6706 18.8953C67.6706 18.8953 62.631 14.1516 63.2976 12.2857C63.9642 10.4197 70.8668 9.95171 70.8668 9.95171C70.8668 9.95171 73.8163 3.68788 75.7952 3.74653C77.7767 3.80519 80.3538 10.2315 80.3538 10.2315Z" fill="url(#paint13_radial)"/>
<path opacity="0.5" fill-rule="evenodd" clip-rule="evenodd" d="M68.3482 20.6037C68.3482 20.6037 67.3593 24.6594 68.3482 25.5832C69.3371 26.5083 75.1226 23.3935 75.1226 23.3935C75.1226 23.3935 79.8386 25.3401 81.2487 24.6582C82.6588 23.9763 81.7834 18.4775 81.7834 18.4775C81.7834 18.4775 86.7656 15.2099 87.1795 13.5627C87.1795 13.5627 86.4995 17.0661 82.7308 19.1104C82.7308 19.1104 83.9455 25.9474 82.439 26.9934C80.9313 28.0394 75.1226 24.2928 75.1226 24.2928C75.1226 24.2928 70.2112 28.1335 67.9087 26.6769C66.307 25.6639 68.3482 20.6037 68.3482 20.6037Z" fill="white"/>
<path fill-rule="evenodd" clip-rule="evenodd" d="M72.9104 11.8238C72.9104 12.3676 72.4697 12.8087 71.9264 12.8087C71.3831 12.8087 70.9424 12.3676 70.9424 11.8238C70.9424 11.2801 71.3831 10.8389 71.9264 10.8389C72.4697 10.8389 72.9104 11.2801 72.9104 11.8238Z" fill="white"/>
<path fill-rule="evenodd" clip-rule="evenodd" d="M102.763 56.5211C102.763 72.3945 90.372 83.2224 75.0212 83.2224C59.6705 83.2224 47.1741 72.3945 47.1741 56.5211C47.1741 40.6477 59.618 27.7791 74.9687 27.7791C90.3195 27.7791 102.763 40.6477 102.763 56.5211Z" fill="url(#paint14_linear)"/>
<path d="M74.9688 27.7791C90.3195 27.7791 102.763 40.6477 102.763 56.5211C102.763 72.3945 90.372 83.2224 75.0213 83.2224C59.6705 83.2224 47.1741 72.3945 47.1741 56.5211C47.1741 40.6477 59.618 27.7791 74.9688 27.7791ZM74.9688 26.5571C58.9698 26.5571 45.9533 39.9988 45.9533 56.5211C45.9533 72.4397 58.4497 84.4444 75.0213 84.4444C91.533 84.4444 103.984 72.4397 103.984 56.5211C103.984 39.9988 90.9677 26.5571 74.9688 26.5571Z" fill="white"/>
<path fill-rule="evenodd" clip-rule="evenodd" d="M99.8872 56.13C99.8872 69.7318 88.7788 78.1341 75.0176 78.1341C61.2564 78.1341 50.0541 69.7318 50.0541 56.13C50.0541 42.5282 61.21 31.5012 74.9712 31.5012C88.7324 31.5012 99.8872 42.527 99.8872 56.13Z" fill="url(#paint15_linear)"/>
<path fill-rule="evenodd" clip-rule="evenodd" d="M79.3967 76.157C66.7903 78.75 54.9556 73.157 52.4077 60.7051C52.2197 59.7642 52.0842 58.8123 52.011 57.8824V57.8726C51.1124 46.4557 58.9563 35.8551 70.592 33.4722C80.7969 31.3704 90.8139 36.2217 95.5861 44.7633C95.5861 44.7633 95.5861 44.7743 95.5971 44.784C96.7154 46.7807 97.5504 48.9766 98.0302 51.3289C100.589 63.7894 91.9932 73.5652 79.3967 76.157Z" fill="url(#paint16_radial)"/>
<path d="M72.0468 47.94L64.5168 66H59.2668L66.8868 48.51H57.5568V44.13H72.0468V47.94ZM90.5415 48.57H81.1815V52.71C81.5815 52.27 82.1415 51.91 82.8615 51.63C83.5815 51.35 84.3615 51.21 85.2015 51.21C86.7015 51.21 87.9415 51.55 88.9215 52.23C89.9215 52.91 90.6515 53.79 91.1115 54.87C91.5715 55.95 91.8015 57.12 91.8015 58.38C91.8015 60.72 91.1415 62.58 89.8215 63.96C88.5015 65.32 86.6415 66 84.2415 66C82.6415 66 81.2515 65.73 80.0715 65.19C78.8915 64.63 77.9815 63.86 77.3415 62.88C76.7015 61.9 76.3515 60.77 76.2915 59.49H81.3015C81.4215 60.11 81.7115 60.63 82.1715 61.05C82.6315 61.45 83.2615 61.65 84.0615 61.65C85.0015 61.65 85.7015 61.35 86.1615 60.75C86.6215 60.15 86.8515 59.35 86.8515 58.35C86.8515 57.37 86.6115 56.62 86.1315 56.1C85.6515 55.58 84.9515 55.32 84.0315 55.32C83.3515 55.32 82.7915 55.49 82.3515 55.83C81.9115 56.15 81.6215 56.58 81.4815 57.12H76.5315V44.07H90.5415V48.57Z" fill="white"/>
<path opacity="0.2" fill-rule="evenodd" clip-rule="evenodd" d="M79.3967 76.157C66.7904 78.75 54.9556 73.157 52.4078 60.7051C52.2197 59.7642 52.0842 58.8123 52.011 57.8824C52.5018 58.9382 53.2709 64.9711 59.6229 67.8329C71.493 73.1815 87.9925 67.7987 93.5595 60.2603C98.9495 52.9322 95.7229 45.1482 95.5983 44.7828C96.7166 46.7795 97.5517 48.9754 98.0314 51.3277C100.589 63.7894 91.9932 73.5652 79.3967 76.157Z" fill="url(#paint17_linear)"/>
<path fill-rule="evenodd" clip-rule="evenodd" d="M61.8705 45.56C61.8705 46.8308 60.8414 47.8622 59.5717 47.8622C58.302 47.8622 57.2717 46.8321 57.2717 45.56C57.2717 44.2891 58.3008 43.259 59.5717 43.259C60.8414 43.259 61.8705 44.2891 61.8705 45.56Z" fill="white"/>
<path fill-rule="evenodd" clip-rule="evenodd" d="M92.2094 68.6968C89.5785 71.0894 86.7535 72.2674 85.8989 71.3265C85.0443 70.3856 86.4849 67.6826 89.117 65.29C91.7479 62.8973 94.5729 61.7194 95.4275 62.6603C96.2808 63.6012 94.8415 66.3042 92.2094 68.6968Z" fill="white"/>
<g style="mix-blend-mode:soft-light">
<path fill-rule="evenodd" clip-rule="evenodd" d="M54.4075 55.5007C54.4075 55.5007 63.1389 59.9059 67.0736 47.8622C71.0975 35.5447 85.4618 36.0713 89.5687 38.9784C89.5687 38.9784 81.3891 31.5012 67.4692 36.0738C52.6617 40.9372 54.4075 55.5007 54.4075 55.5007Z" fill="url(#paint18_linear)"/>
</g>
</g>
<defs>
<radialGradient id="paint0_radial" cx="0" cy="0" r="1" gradientUnits="userSpaceOnUse" gradientTransform="translate(76.4938 173.384) scale(54.6485 54.5252)">
<stop stop-color="#FF9689"/>
<stop offset="0.9888" stop-color="#FF909C"/>
</radialGradient>
<linearGradient id="paint1_linear" x1="75.8228" y1="166.012" x2="75.8228" y2="111.436" gradientUnits="userSpaceOnUse">
<stop stop-color="#48365E"/>
<stop offset="1" stop-color="#685763"/>
</linearGradient>
<radialGradient id="paint2_radial" cx="0" cy="0" r="1" gradientUnits="userSpaceOnUse" gradientTransform="translate(73.4997 148.5) scale(15.5003 10.4998)">
<stop stop-color="#006FFF"/>
<stop offset="1"/>
</radialGradient>
<linearGradient id="paint3_linear" x1="9.74251" y1="162.953" x2="137.353" y2="162.953" gradientUnits="userSpaceOnUse">
<stop stop-color="#C77CBD"/>
<stop offset="1" stop-color="#974577"/>
</linearGradient>
<linearGradient id="paint4_linear" x1="96.8543" y1="38.6255" x2="96.2867" y2="12.5036" gradientUnits="userSpaceOnUse">
<stop stop-color="#C1BDF1"/>
<stop offset="1" stop-color="#FBF9FE"/>
</linearGradient>
<linearGradient id="paint5_linear" x1="86.9426" y1="18.6879" x2="106.212" y2="29.2524" gradientUnits="userSpaceOnUse">
<stop stop-color="#C44C25"/>
<stop offset="1" stop-color="#FF5E42"/>
</linearGradient>
<radialGradient id="paint6_radial" cx="0" cy="0" r="1" gradientUnits="userSpaceOnUse" gradientTransform="translate(94.0133 21.3612) scale(10.4042 10.4139)">
<stop stop-color="#FFC62D"/>
<stop offset="0.9973" stop-color="#FF9200"/>
</radialGradient>
<linearGradient id="paint7_linear" x1="99.6622" y1="35.7224" x2="99.6622" y2="15.2377" gradientUnits="userSpaceOnUse">
<stop stop-color="#48365E"/>
<stop offset="1" stop-color="#685763"/>
</linearGradient>
<linearGradient id="paint8_linear" x1="67.5028" y1="29.5394" x2="43.7095" y2="18.7931" gradientUnits="userSpaceOnUse">
<stop stop-color="#C1BDF1"/>
<stop offset="1" stop-color="#FBF9FE"/>
</linearGradient>
<linearGradient id="paint9_linear" x1="45.2569" y1="29.8834" x2="63.1163" y2="17.0747" gradientUnits="userSpaceOnUse">
<stop stop-color="#C44C25"/>
<stop offset="1" stop-color="#FF5E42"/>
</linearGradient>
<radialGradient id="paint10_radial" cx="0" cy="0" r="1" gradientUnits="userSpaceOnUse" gradientTransform="translate(49.9967 21.6557) rotate(-35.6989) scale(10.3386 10.3417)">
<stop stop-color="#FFC62D"/>
<stop offset="0.9973" stop-color="#FF9200"/>
</radialGradient>
<linearGradient id="paint11_linear" x1="84.0732" y1="30.3713" x2="68.805" y2="3.95076" gradientUnits="userSpaceOnUse">
<stop stop-color="#C1BDF1"/>
<stop offset="1" stop-color="#FBF9FE"/>
</linearGradient>
<linearGradient id="paint12_linear" x1="62.7282" y1="15.5286" x2="88.3939" y2="15.5286" gradientUnits="userSpaceOnUse">
<stop stop-color="#C44C25"/>
<stop offset="1" stop-color="#FF5E42"/>
</linearGradient>
<radialGradient id="paint13_radial" cx="0" cy="0" r="1" gradientUnits="userSpaceOnUse" gradientTransform="translate(72.8261 10.9529) scale(12.0733 12.0846)">
<stop stop-color="#FFC62D"/>
<stop offset="0.9973" stop-color="#FF9200"/>
</radialGradient>
<linearGradient id="paint14_linear" x1="74.9687" y1="83.2222" x2="74.9687" y2="27.779" gradientUnits="userSpaceOnUse">
<stop stop-color="#C1BDF1"/>
<stop offset="1" stop-color="#FBF9FE"/>
</linearGradient>
<linearGradient id="paint15_linear" x1="74.9707" y1="78.1339" x2="74.9707" y2="31.5009" gradientUnits="userSpaceOnUse">
<stop stop-color="#C44C25"/>
<stop offset="1" stop-color="#FF5E42"/>
</linearGradient>
<radialGradient id="paint16_radial" cx="0" cy="0" r="1" gradientUnits="userSpaceOnUse" gradientTransform="translate(65.726 47.0915) scale(22.5773 22.5984)">
<stop stop-color="#FFC62D"/>
<stop offset="0.9973" stop-color="#FF9200"/>
</radialGradient>
<linearGradient id="paint17_linear" x1="52.0106" y1="60.7809" x2="98.4823" y2="60.7809" gradientUnits="userSpaceOnUse">
<stop stop-color="#C77CBD"/>
<stop offset="1" stop-color="#974577"/>
</linearGradient>
<linearGradient id="paint18_linear" x1="54.3434" y1="45.4398" x2="89.5676" y2="45.4398" gradientUnits="userSpaceOnUse">
<stop stop-color="#FF5942"/>
<stop offset="1"/>
</linearGradient>
<clipPath id="clip0">
<rect width="31" height="21" fill="white" transform="translate(58 138)"/>
</clipPath>
<clipPath id="clip1">
<rect width="68.85" height="84.4444" fill="white" transform="translate(41.1188)"/>
</clipPath>
</defs>
</svg>
