<svg width="153" height="189" viewBox="0 0 153 189" fill="none" xmlns="http://www.w3.org/2000/svg">
<path fill-rule="evenodd" clip-rule="evenodd" d="M10.0591 176.381C10.0591 176.381 3.06197 171.527 1.02318 155.942H151.961C151.961 155.942 152.143 165.138 137.669 180.528C137.669 180.528 119.035 190.358 71.8506 188.84C23.5324 187.287 10.0591 176.381 10.0591 176.381Z" fill="url(#paint0_radial)"/>
<path fill-rule="evenodd" clip-rule="evenodd" d="M1.02526 155.942C-0.679981 150.518 28.1086 140.546 73.9927 140.546C117.737 140.546 150.093 150.691 151.963 155.942C153.834 161.19 123.55 173.526 73.9927 173.526C24.4358 173.526 3.00221 162.23 1.02526 155.942Z" fill="#FFD8EE"/>
<path fill-rule="evenodd" clip-rule="evenodd" d="M9.74263 152.519C9.74263 152.519 -3.10477 128.548 0.706728 110.85H151.645C151.645 110.85 151.727 140.04 137.353 156.667C137.353 156.667 118.719 166.496 71.5342 164.978C23.214 163.425 9.74263 152.519 9.74263 152.519Z" fill="url(#paint1_linear)"/>
<g clip-path="url(#clip0)">
<path fill-rule="evenodd" clip-rule="evenodd" d="M66.1084 148.191L68.5821 145.948L74.395 150.562L82.8268 142.706L85.6171 144.937L74.6206 154.294L66.1084 148.191Z" fill="#4C95C7"/>
<path fill-rule="evenodd" clip-rule="evenodd" d="M66.5241 147.814L74.725 153.402L85.0077 144.501L82.8269 142.706L74.3952 150.562L68.5822 145.948L66.5241 147.814Z" fill="#00FFED"/>
<g style="mix-blend-mode:color-dodge" opacity="0.5">
<path d="M74.4993 159C83.0594 159 89.9987 154.299 89.9987 148.5C89.9987 142.701 83.0594 138 74.4993 138C65.9393 138 59 142.701 59 148.5C59 154.299 65.9393 159 74.4993 159Z" fill="url(#paint2_radial)"/>
</g>
</g>
<path fill-rule="evenodd" clip-rule="evenodd" d="M0.706771 110.85C-0.99847 105.425 27.7901 95.4546 73.6742 95.4546C117.418 95.4546 149.777 105.6 151.645 110.85C153.513 116.1 123.229 128.435 73.6742 128.435C24.1192 128.435 2.68373 117.136 0.706771 110.85Z" fill="#A4A0C2"/>
<path fill-rule="evenodd" clip-rule="evenodd" d="M132.198 111.944C132.272 112.241 132.123 112.576 131.785 112.911C127.044 117.597 84.507 125.557 56.8484 123.344C56.661 123.326 56.4923 123.307 56.3237 123.307C43.1877 122.21 33.8182 120.406 27.5407 118.379C21.3381 116.37 18.1338 114.175 17.2718 112.278C17.0469 111.813 16.9907 111.367 17.0469 110.958C17.6091 107.071 65.5057 103.054 89.098 106.699C98.9734 108.242 101.897 110.084 100.323 111.776C99.1233 113.115 95.132 114.343 89.5665 115.235C85.3315 115.905 80.1596 116.389 74.6129 116.575C69.722 116.742 65.5432 116.723 62.0203 116.575C53.1755 116.221 48.3971 115.142 46.3921 114.566C45.605 114.343 45.249 114.194 45.249 114.194C45.249 114.194 48.9218 108.726 54.8246 110.549C60.7273 112.371 62.189 115.124 62.189 115.124C62.189 115.124 86.3247 115.942 91.5716 112.687C91.9464 112.464 92.2274 112.223 92.3961 111.944C94.9258 107.833 23.8679 105.788 23.6805 113.115C23.6805 113.45 23.7555 113.766 23.9616 114.082C27.7843 120.908 72.9638 125.855 102.346 117.132C106.956 115.775 109.411 114.268 110.067 112.725C112.803 106.401 85.0129 99.5943 50.7395 99.9477H50.2898C37.3786 100.115 23.5868 101.287 10.151 103.891L17.0469 101.715C17.0469 101.715 33.0874 97.1207 68.6351 98.4412C104.202 99.7617 131.092 107.499 132.198 111.944Z" fill="#4C95C7"/>
<path fill-rule="evenodd" clip-rule="evenodd" d="M62.022 116.575C53.1772 116.221 48.3988 115.143 46.3937 114.566C47.9116 113.078 50.8723 111.014 54.8263 112.241C59.6796 113.748 61.5329 115.868 62.022 116.575Z" fill="#00FFED"/>
<path fill-rule="evenodd" clip-rule="evenodd" d="M92.3959 113.655C92.602 113.32 92.3022 112.985 91.5714 112.688C91.9462 112.465 92.2272 112.223 92.3959 111.944C94.9257 107.834 23.8677 105.788 23.6803 113.116C23.6803 113.45 23.7553 113.767 23.9614 114.083C23.774 114.306 23.6803 114.548 23.6803 114.808C23.6428 116.073 25.0483 117.282 27.5405 118.379C21.338 116.37 18.1336 114.176 17.2716 112.279C20.832 108.522 66.3113 104.877 89.0979 108.41C95.7127 109.433 99.2169 110.623 100.322 111.777C99.1232 113.116 95.1318 114.343 89.5663 115.236C90.9905 114.808 92.0043 114.287 92.3959 113.655Z" fill="#00FFED"/>
<path fill-rule="evenodd" clip-rule="evenodd" d="M131.785 112.911C127.044 117.597 84.5072 125.558 56.8485 123.344C56.6611 123.326 56.4925 123.307 56.3238 123.307C71.1838 124.014 88.5173 122.935 102.347 118.825C108.643 116.947 110.929 114.826 110.067 112.725C112.803 106.401 85.0131 99.5944 50.7396 99.9477C56.0428 99.8547 62.0017 99.8919 68.6353 100.134C102.311 101.38 128.189 108.391 131.785 112.911Z" fill="#00FFED"/>
<path opacity="0.5" fill-rule="evenodd" clip-rule="evenodd" d="M9.7427 152.52C9.7427 152.52 22.0017 168.163 61.4565 171.068C117.731 175.211 137.353 156.667 137.353 156.667C137.353 156.667 68.2118 173.526 9.7427 152.52Z" fill="url(#paint3_linear)"/>
<path fill-rule="evenodd" clip-rule="evenodd" d="M17.5003 121.408C17.5003 121.408 34.191 126.819 51.5995 126.728C69.0079 126.636 95.5403 127.596 95.5403 127.596C95.5403 127.596 74.7964 134.377 56.5203 133.28C38.2424 132.182 17.5003 121.408 17.5003 121.408Z" fill="#8B6F8B"/>
<path fill-rule="evenodd" clip-rule="evenodd" d="M127.552 122.742C127.552 122.742 139.446 115.239 143.13 113.899C146.814 112.558 150.039 113.899 150.039 113.899C150.039 113.899 144.766 124.152 127.552 122.742Z" fill="#8B6F8B"/>
<path fill-rule="evenodd" clip-rule="evenodd" d="M1.22222 111.944C1.22222 111.944 2.74944 111.488 5.20611 113.301C7.66278 115.116 16.2152 120.969 16.2152 120.969C16.2152 120.969 6.31171 123.726 3.36408 120.969C2.11794 119.807 1.22222 111.944 1.22222 111.944Z" fill="#8B6F8B"/>
<path fill-rule="evenodd" clip-rule="evenodd" d="M84.9196 188.979L86.6342 173.526C86.6342 173.526 104.009 172.97 117.731 169.944L111.544 187.14C111.544 187.14 93.7737 189.009 84.9196 188.979Z" fill="#FFCCB5"/>
<path fill-rule="evenodd" clip-rule="evenodd" d="M13.7021 178.503L10.1436 163.455C10.1436 163.455 19.7173 167.391 25.2078 168.613L25.7269 182.874C25.7269 182.874 19.1308 181.261 13.7021 178.503Z" fill="#FFCCB5"/>
<path fill-rule="evenodd" clip-rule="evenodd" d="M92.396 111.944V113.655C92.396 113.655 91.2922 114.715 90.2878 114.998L89.9599 113.471C89.9599 113.471 91.727 112.727 92.396 111.944Z" fill="#4C95C7"/>
<path fill-rule="evenodd" clip-rule="evenodd" d="M110.232 111.813L110.11 114.304L108.075 116.446V114.763C108.073 114.763 110.147 113.963 110.232 111.813Z" fill="#4C95C7"/>
<path fill-rule="evenodd" clip-rule="evenodd" d="M23.7047 115.131V112.676C23.7047 112.676 23.4423 114.051 25.3968 115.513L25.6292 117.378C25.631 117.378 23.7047 116.372 23.7047 115.131Z" fill="#4C95C7"/>
<g clip-path="url(#clip1)">
<path fill-rule="evenodd" clip-rule="evenodd" d="M104.311 21.0107C104.311 21.0107 110.407 25.4194 109.943 27.5162C109.479 29.613 102.086 31.0595 102.086 31.0595C102.086 31.0595 99.7577 38.1948 97.6115 38.4026C95.4652 38.6105 91.7979 32.0563 91.7979 32.0563C91.7979 32.0563 84.2629 32.0575 83.401 30.0895C82.5391 28.1216 87.6666 22.6237 87.6666 22.6237C87.6666 22.6237 85.3372 15.4897 86.9512 14.0651C88.5651 12.6404 95.4005 15.7972 95.4005 15.7972C95.4005 15.7972 101.496 11.3872 103.355 12.4751C105.215 13.5618 104.311 21.0107 104.311 21.0107Z" fill="url(#paint4_linear)"/>
<path fill-rule="evenodd" clip-rule="evenodd" d="M102.669 21.723C102.669 21.723 107.674 25.3416 107.291 27.0628C106.911 28.784 100.842 29.9716 100.842 29.9716C100.842 29.9716 98.9312 35.8281 97.1695 35.9995C95.4079 36.1709 92.3985 30.7909 92.3985 30.7909C92.3985 30.7909 86.2138 30.7909 85.5057 29.1755C84.7976 27.56 89.0071 23.0479 89.0071 23.0479C89.0071 23.0479 87.0952 17.1914 88.4198 16.0221C89.7444 14.8527 95.3554 17.4443 95.3554 17.4443C95.3554 17.4443 100.358 13.8244 101.884 14.7166C103.41 15.61 102.669 21.723 102.669 21.723Z" fill="#544260"/>
<path opacity="0.5" fill-rule="evenodd" clip-rule="evenodd" d="M89.0729 24.6828C89.0729 24.6828 86.663 27.3047 87.0243 28.3999C87.3857 29.4951 93.0088 29.5426 93.0088 29.5426C93.0088 29.5426 95.7472 32.9291 97.0852 32.9983C98.4232 33.0676 100.029 28.6042 100.029 28.6042C100.029 28.6042 105.112 28.2079 106.101 27.1479C106.101 27.1479 104.149 29.4842 100.48 29.4648C100.48 29.4648 98.5795 35.0672 97.0181 35.2301C95.4566 35.393 92.6377 30.2135 92.6377 30.2135C92.6377 30.2135 87.3723 31.0668 86.243 29.0357C85.458 27.6232 89.0729 24.6828 89.0729 24.6828Z" fill="white"/>
<path fill-rule="evenodd" clip-rule="evenodd" d="M96.1087 19.9994C95.8853 20.4053 95.3725 20.5536 94.9648 20.3312C94.557 20.1088 94.4081 19.5982 94.6315 19.1922C94.8549 18.7862 95.3676 18.6367 95.7754 18.8604C96.1832 19.0828 96.3321 19.5934 96.1087 19.9994Z" fill="white"/>
<path fill-rule="evenodd" clip-rule="evenodd" d="M54.9471 15.1711C54.9471 15.1711 61.5725 11.5986 63.2719 12.9212C64.9713 14.2437 63.0913 21.5077 63.0913 21.5077C63.0913 21.5077 68.5508 26.6774 67.8134 28.6952C67.076 30.713 59.5557 31.1774 59.5557 31.1774C59.5557 31.1774 56.3047 37.9455 54.1487 37.8701C51.9939 37.7948 49.2263 30.8176 49.2263 30.8176C49.2263 30.8176 41.7572 29.8293 41.1627 27.7653C40.5681 25.7014 46.3781 20.9243 46.3781 20.9243C46.3781 20.9243 45.0132 13.5459 46.8017 12.3462C48.589 11.1452 54.9471 15.1711 54.9471 15.1711Z" fill="url(#paint5_linear)"/>
<path fill-rule="evenodd" clip-rule="evenodd" d="M54.8837 16.9543C54.8837 16.9543 60.3225 14.0224 61.7166 15.1079C63.1108 16.1934 61.5677 22.1568 61.5677 22.1568C61.5677 22.1568 66.0494 26.4003 65.4438 28.0571C64.8383 29.7126 58.6658 30.0943 58.6658 30.0943C58.6658 30.0943 55.9971 35.6493 54.2281 35.5873C52.4591 35.5253 50.1871 29.7977 50.1871 29.7977C50.1871 29.7977 44.0561 28.9869 43.569 27.2925C43.0819 25.598 47.8504 21.6767 47.8504 21.6767C47.8504 21.6767 46.7297 15.6209 48.1984 14.6351C49.6646 13.6492 54.8837 16.9543 54.8837 16.9543Z" fill="url(#paint6_linear)"/>
<path fill-rule="evenodd" clip-rule="evenodd" d="M54.8714 17.3007C54.8714 17.3007 60.0794 14.4928 61.415 15.5321C62.7506 16.5714 61.2722 22.2808 61.2722 22.2808C61.2722 22.2808 65.5634 26.3444 64.9835 27.9307C64.4036 29.5169 58.4924 29.8816 58.4924 29.8816C58.4924 29.8816 55.9372 35.2008 54.2426 35.1413C52.5481 35.0817 50.3738 29.5972 50.3738 29.5972C50.3738 29.5972 44.5028 28.8204 44.0365 27.1989C43.5701 25.5774 48.136 21.8226 48.136 21.8226C48.136 21.8226 47.0629 16.0232 48.4693 15.0799C49.8745 14.1367 54.8714 17.3007 54.8714 17.3007Z" fill="url(#paint7_radial)"/>
<path opacity="0.5" fill-rule="evenodd" clip-rule="evenodd" d="M51.6961 30.4432C51.6961 30.4432 53.0317 33.7398 54.1792 33.8881C55.328 34.0364 57.7978 29.0064 57.7978 29.0064C57.7978 29.0064 62.0487 28.0085 62.6884 26.8367C63.3294 25.6649 59.9782 22.2954 59.9782 22.2954C59.9782 22.2954 61.8131 17.5585 61.2796 16.2129C61.2796 16.2129 62.5541 18.9746 60.9524 22.2614C60.9524 22.2614 65.2082 26.387 64.6808 27.8602C64.1547 29.3334 58.2458 29.6288 58.2458 29.6288C58.2458 29.6288 56.7467 34.7268 54.4185 34.8641C52.8009 34.959 51.6961 30.4432 51.6961 30.4432Z" fill="white"/>
<path fill-rule="evenodd" clip-rule="evenodd" d="M50.4899 22.1021C50.7609 22.4789 50.6742 23.0028 50.297 23.2727C49.9185 23.5425 49.3923 23.4575 49.1213 23.0806C48.8503 22.7038 48.937 22.1799 49.3142 21.9101C49.6914 21.639 50.2188 21.7253 50.4899 22.1021Z" fill="white"/>
<path fill-rule="evenodd" clip-rule="evenodd" d="M81.8823 8.20732C81.8823 8.20732 90.6137 9.31103 91.3218 11.719C92.0299 14.127 85.275 19.7452 85.275 19.7452C85.275 19.7452 86.9183 28.3549 84.838 29.7686C82.7577 31.1823 75.3033 26.5219 75.3033 26.5219C75.3033 26.5219 67.5876 30.7386 65.594 29.2058C63.6004 27.673 65.7478 19.1739 65.7478 19.1739C65.7478 19.1739 59.336 13.1704 60.1845 10.8086C61.033 8.44678 69.8144 7.85481 69.8144 7.85481C69.8144 7.85481 73.5673 -0.0729511 76.0846 -1.86534e-05C78.6032 0.0741294 81.8823 8.20732 81.8823 8.20732Z" fill="url(#paint8_linear)"/>
<path fill-rule="evenodd" clip-rule="evenodd" d="M80.6029 9.85679C80.6029 9.85679 87.7704 10.7636 88.3515 12.7388C88.9326 14.7141 83.3876 19.3271 83.3876 19.3271C83.3876 19.3271 84.7366 26.3942 83.0287 27.5551C81.3207 28.7159 75.2019 24.8906 75.2019 24.8906C75.2019 24.8906 68.8683 28.3512 67.2323 27.0932C65.5964 25.8351 67.3593 18.8591 67.3593 18.8591C67.3593 18.8591 62.0963 13.9313 62.7922 11.9925C63.488 10.0537 70.6971 9.56749 70.6971 9.56749C70.6971 9.56749 73.7772 3.06069 75.8453 3.12147C77.911 3.18103 80.6029 9.85679 80.6029 9.85679Z" fill="url(#paint9_linear)"/>
<path fill-rule="evenodd" clip-rule="evenodd" d="M80.3538 10.1777C80.3538 10.1777 87.2173 11.0456 87.7728 12.9382C88.3295 14.8296 83.0201 19.2456 83.0201 19.2456C83.0201 19.2456 84.3118 26.0125 82.6759 27.1235C81.0399 28.2346 75.1812 24.5721 75.1812 24.5721C75.1812 24.5721 69.1161 27.8869 67.5498 26.6811C65.9822 25.4765 67.6706 18.7959 67.6706 18.7959C67.6706 18.7959 62.631 14.0771 63.2976 12.221C63.9642 10.3649 70.8668 9.89932 70.8668 9.89932C70.8668 9.89932 73.8163 3.66846 75.7952 3.7268C77.7767 3.78515 80.3538 10.1777 80.3538 10.1777Z" fill="url(#paint10_radial)"/>
<path opacity="0.5" fill-rule="evenodd" clip-rule="evenodd" d="M68.3482 20.4953C68.3482 20.4953 67.3593 24.5296 68.3482 25.4486C69.3371 26.3687 75.1226 23.2703 75.1226 23.2703C75.1226 23.2703 79.8386 25.2067 81.2487 24.5284C82.6588 23.8501 81.7834 18.3802 81.7834 18.3802C81.7834 18.3802 86.7656 15.1299 87.1795 13.4913C87.1795 13.4913 86.4995 16.9763 82.7308 19.0099C82.7308 19.0099 83.9455 25.8108 82.439 26.8513C80.9313 27.8918 75.1226 24.165 75.1226 24.165C75.1226 24.165 70.2112 27.9854 67.9087 26.5365C66.3069 25.5288 68.3482 20.4953 68.3482 20.4953Z" fill="white"/>
<path fill-rule="evenodd" clip-rule="evenodd" d="M72.9104 11.7616C72.9104 12.3025 72.4697 12.7413 71.9264 12.7413C71.3831 12.7413 70.9424 12.3025 70.9424 11.7616C70.9424 11.2207 71.3831 10.7819 71.9264 10.7819C72.4697 10.7819 72.9104 11.2207 72.9104 11.7616Z" fill="white"/>
<path fill-rule="evenodd" clip-rule="evenodd" d="M102.763 56.2236C102.763 72.0135 90.372 82.7844 75.0212 82.7844C59.6705 82.7844 47.1741 72.0135 47.1741 56.2236C47.1741 40.4338 59.618 27.6329 74.9687 27.6329C90.3195 27.6329 102.763 40.4338 102.763 56.2236Z" fill="url(#paint11_linear)"/>
<path d="M74.9688 27.6329C90.3195 27.6329 102.763 40.4337 102.763 56.2236C102.763 72.0135 90.372 82.7844 75.0213 82.7844C59.6705 82.7844 47.1741 72.0135 47.1741 56.2236C47.1741 40.4337 59.618 27.6329 74.9688 27.6329ZM74.9688 26.4173C58.9698 26.4173 45.9533 39.7883 45.9533 56.2236C45.9533 72.0585 58.4497 84 75.0213 84C91.533 84 103.984 72.0585 103.984 56.2236C103.984 39.7883 90.9677 26.4173 74.9688 26.4173Z" fill="white"/>
<path fill-rule="evenodd" clip-rule="evenodd" d="M99.8872 55.8346C99.8872 69.3648 88.7788 77.7229 75.0176 77.7229C61.2564 77.7229 50.0541 69.3648 50.0541 55.8346C50.0541 42.3044 61.21 31.3354 74.9712 31.3354C88.7324 31.3354 99.8872 42.3032 99.8872 55.8346Z" fill="url(#paint12_linear)"/>
<path fill-rule="evenodd" clip-rule="evenodd" d="M79.3967 75.7562C66.7903 78.3355 54.9556 72.772 52.4077 60.3856C52.2197 59.4497 52.0842 58.5028 52.011 57.5777V57.568C51.1124 46.2112 58.9563 35.6664 70.592 33.2961C80.7969 31.2053 90.8139 36.031 95.5861 44.5277C95.5861 44.5277 95.5861 44.5386 95.5971 44.5483C96.7154 46.5345 97.5504 48.7189 98.0302 51.0588C100.589 63.4537 91.9932 73.178 79.3967 75.7562Z" fill="url(#paint13_radial)"/>
<path d="M72.229 48.57H62.869V52.71C63.269 52.27 63.829 51.91 64.549 51.63C65.269 51.35 66.049 51.21 66.889 51.21C68.389 51.21 69.629 51.55 70.609 52.23C71.609 52.91 72.339 53.79 72.799 54.87C73.259 55.95 73.489 57.12 73.489 58.38C73.489 60.72 72.829 62.58 71.509 63.96C70.189 65.32 68.329 66 65.929 66C64.329 66 62.939 65.73 61.759 65.19C60.579 64.63 59.669 63.86 59.029 62.88C58.389 61.9 58.039 60.77 57.979 59.49H62.989C63.109 60.11 63.399 60.63 63.859 61.05C64.319 61.45 64.949 61.65 65.749 61.65C66.689 61.65 67.389 61.35 67.849 60.75C68.309 60.15 68.539 59.35 68.539 58.35C68.539 57.37 68.299 56.62 67.819 56.1C67.339 55.58 66.639 55.32 65.719 55.32C65.039 55.32 64.479 55.49 64.039 55.83C63.599 56.15 63.309 56.58 63.169 57.12H58.219V44.07H72.229V48.57ZM77.3207 54.75C77.3207 51.31 77.9807 48.6 79.3007 46.62C80.6407 44.64 82.7907 43.65 85.7507 43.65C88.7107 43.65 90.8507 44.64 92.1707 46.62C93.5107 48.6 94.1807 51.31 94.1807 54.75C94.1807 58.23 93.5107 60.96 92.1707 62.94C90.8507 64.92 88.7107 65.91 85.7507 65.91C82.7907 65.91 80.6407 64.92 79.3007 62.94C77.9807 60.96 77.3207 58.23 77.3207 54.75ZM89.1407 54.75C89.1407 52.73 88.9207 51.18 88.4807 50.1C88.0407 49 87.1307 48.45 85.7507 48.45C84.3707 48.45 83.4607 49 83.0207 50.1C82.5807 51.18 82.3607 52.73 82.3607 54.75C82.3607 56.11 82.4407 57.24 82.6007 58.14C82.7607 59.02 83.0807 59.74 83.5607 60.3C84.0607 60.84 84.7907 61.11 85.7507 61.11C86.7107 61.11 87.4307 60.84 87.9107 60.3C88.4107 59.74 88.7407 59.02 88.9007 58.14C89.0607 57.24 89.1407 56.11 89.1407 54.75Z" fill="white"/>
<path opacity="0.2" fill-rule="evenodd" clip-rule="evenodd" d="M79.3967 75.7562C66.7904 78.3356 54.9556 72.772 52.4078 60.3857C52.2197 59.4497 52.0842 58.5028 52.011 57.5778C52.5018 58.628 53.2709 64.6291 59.6229 67.4759C71.493 72.7963 87.9925 67.4419 93.5595 59.9432C98.9495 52.6536 95.7229 44.9106 95.5983 44.5471C96.7166 46.5333 97.5517 48.7177 98.0314 51.0576C100.589 63.4537 91.9932 73.178 79.3967 75.7562Z" fill="url(#paint14_linear)"/>
<path fill-rule="evenodd" clip-rule="evenodd" d="M61.8705 45.3202C61.8705 46.5844 60.8414 47.6103 59.5717 47.6103C58.302 47.6103 57.2717 46.5856 57.2717 45.3202C57.2717 44.056 58.3008 43.0313 59.5717 43.0313C60.8414 43.0313 61.8705 44.056 61.8705 45.3202Z" fill="white"/>
<path fill-rule="evenodd" clip-rule="evenodd" d="M92.2094 68.3353C89.5785 70.7153 86.7535 71.8871 85.8989 70.9511C85.0443 70.0151 86.4849 67.3264 89.117 64.9463C91.7479 62.5663 94.5729 61.3945 95.4275 62.3305C96.2808 63.2665 94.8415 65.9552 92.2094 68.3353Z" fill="white"/>
<g style="mix-blend-mode:soft-light">
<path fill-rule="evenodd" clip-rule="evenodd" d="M54.4075 55.2086C54.4075 55.2086 63.1389 59.5907 67.0736 47.6103C71.0975 35.3576 85.4618 35.8815 89.5687 38.7733C89.5687 38.7733 81.3891 31.3354 67.4692 35.8839C52.6617 40.7218 54.4075 55.2086 54.4075 55.2086Z" fill="url(#paint15_linear)"/>
</g>
</g>
<defs>
<radialGradient id="paint0_radial" cx="0" cy="0" r="1" gradientUnits="userSpaceOnUse" gradientTransform="translate(76.4938 172.471) scale(54.6485 54.2383)">
<stop stop-color="#FF9689"/>
<stop offset="0.9888" stop-color="#FF909C"/>
</radialGradient>
<linearGradient id="paint1_linear" x1="75.8228" y1="165.138" x2="75.8228" y2="110.85" gradientUnits="userSpaceOnUse">
<stop stop-color="#48365E"/>
<stop offset="1" stop-color="#685763"/>
</linearGradient>
<radialGradient id="paint2_radial" cx="0" cy="0" r="1" gradientUnits="userSpaceOnUse" gradientTransform="translate(74.4997 148.5) scale(15.5003 10.4998)">
<stop stop-color="#006FFF"/>
<stop offset="1"/>
</radialGradient>
<linearGradient id="paint3_linear" x1="9.74251" y1="162.095" x2="137.353" y2="162.095" gradientUnits="userSpaceOnUse">
<stop stop-color="#C77CBD"/>
<stop offset="1" stop-color="#974577"/>
</linearGradient>
<linearGradient id="paint4_linear" x1="96.8543" y1="38.4222" x2="96.2927" y2="12.4376" gradientUnits="userSpaceOnUse">
<stop stop-color="#C1BDF1"/>
<stop offset="1" stop-color="#FBF9FE"/>
</linearGradient>
<linearGradient id="paint5_linear" x1="67.5028" y1="29.3839" x2="43.7522" y2="18.6002" gradientUnits="userSpaceOnUse">
<stop stop-color="#C1BDF1"/>
<stop offset="1" stop-color="#FBF9FE"/>
</linearGradient>
<linearGradient id="paint6_linear" x1="45.2569" y1="29.7262" x2="63.0521" y2="16.8959" gradientUnits="userSpaceOnUse">
<stop stop-color="#C44C25"/>
<stop offset="1" stop-color="#FF5E42"/>
</linearGradient>
<radialGradient id="paint7_radial" cx="0" cy="0" r="1" gradientUnits="userSpaceOnUse" gradientTransform="translate(49.9967 21.5417) rotate(-35.5558) scale(10.3201 10.3057)">
<stop stop-color="#FFC62D"/>
<stop offset="0.9973" stop-color="#FF9200"/>
</radialGradient>
<linearGradient id="paint8_linear" x1="84.0732" y1="30.2114" x2="68.9255" y2="3.8607" gradientUnits="userSpaceOnUse">
<stop stop-color="#C1BDF1"/>
<stop offset="1" stop-color="#FBF9FE"/>
</linearGradient>
<linearGradient id="paint9_linear" x1="62.7282" y1="15.4468" x2="88.3939" y2="15.4468" gradientUnits="userSpaceOnUse">
<stop stop-color="#C44C25"/>
<stop offset="1" stop-color="#FF5E42"/>
</linearGradient>
<radialGradient id="paint10_radial" cx="0" cy="0" r="1" gradientUnits="userSpaceOnUse" gradientTransform="translate(72.8261 10.8952) scale(12.0733 12.021)">
<stop stop-color="#FFC62D"/>
<stop offset="0.9973" stop-color="#FF9200"/>
</radialGradient>
<linearGradient id="paint11_linear" x1="74.9687" y1="82.7842" x2="74.9687" y2="27.6328" gradientUnits="userSpaceOnUse">
<stop stop-color="#C1BDF1"/>
<stop offset="1" stop-color="#FBF9FE"/>
</linearGradient>
<linearGradient id="paint12_linear" x1="74.9707" y1="77.7226" x2="74.9707" y2="31.3351" gradientUnits="userSpaceOnUse">
<stop stop-color="#C44C25"/>
<stop offset="1" stop-color="#FF5E42"/>
</linearGradient>
<radialGradient id="paint13_radial" cx="0" cy="0" r="1" gradientUnits="userSpaceOnUse" gradientTransform="translate(65.726 46.8437) scale(22.5773 22.4795)">
<stop stop-color="#FFC62D"/>
<stop offset="0.9973" stop-color="#FF9200"/>
</radialGradient>
<linearGradient id="paint14_linear" x1="52.0106" y1="60.461" x2="98.4823" y2="60.461" gradientUnits="userSpaceOnUse">
<stop stop-color="#C77CBD"/>
<stop offset="1" stop-color="#974577"/>
</linearGradient>
<linearGradient id="paint15_linear" x1="54.3434" y1="45.2007" x2="89.5676" y2="45.2007" gradientUnits="userSpaceOnUse">
<stop stop-color="#FF5942"/>
<stop offset="1"/>
</linearGradient>
<clipPath id="clip0">
<rect width="31" height="21" fill="white" transform="translate(59 138)"/>
</clipPath>
<clipPath id="clip1">
<rect width="68.85" height="84" fill="white" transform="translate(41.1188)"/>
</clipPath>
</defs>
</svg>
