<svg width="175" height="59" viewBox="0 0 175 59" fill="none" xmlns="http://www.w3.org/2000/svg">
<g clip-path="url(#clip0)">
<path d="M4.88696 12.5757V37.6705H21.0708V45.8963H27.1735V51.6412H35.2662V57.4999H139.045V51.6412H147.136V45.8963H153.241V37.6705H169.425V12.5757H4.88696Z" fill="#9B4E3B" stroke="#31263A" stroke-width="1.23618" stroke-miterlimit="10" stroke-linecap="round" stroke-linejoin="round"/>
<path opacity="0.5" d="M169.424 31.8701V28.5622H166.17V31.8003H162.916V28.5622H159.661H156.407V31.8003H153.152V28.5622H149.898V31.8003V31.8701V35.0385H146.644V31.8003H143.389H140.135H136.882V35.0385H133.628H130.375V31.8701V31.8003V28.5622H127.12V31.8003H123.866V35.0385H120.612V31.8003H117.357H113.582V35.0385H109.805V31.8003H106.035V28.5622H102.26V31.8003V31.8701V35.0385H98.4832H94.7078V31.8003H90.931H87.1556H83.3802V35.0385H79.6048V31.8701V31.8003V28.5622H75.8294V31.8003H72.054V28.5622H68.2786H64.5018V31.8003H60.7264V28.5622H56.9495V31.8003H53.6951V35.0385H50.4407V31.8003H47.1864V28.5622H43.932V31.8003V31.8701V35.0385H40.6776H37.4232V31.8003H34.1688H30.9144H27.6615V35.0385H24.4071V31.8701V31.8003V28.5622H21.1543V31.8003H17.8999V28.5622H14.6455H11.3911V31.8003H8.13671V28.5622H4.88232V31.8701H8.13671V35.0385H4.88232V37.6727H11.3896V35.1083H14.644V37.6727H21.0662V38.3464H21.1513V41.5845H21.0662V45.8985H27.1689V51.6433H35.2601V57.502H139.039V51.6433H147.132V45.8985H153.235V41.5845H153.149V38.3464H153.235V37.6727H159.657V35.1083H162.911V37.6727H169.418V35.0385H166.164V31.8701H169.424ZM17.9014 35.04H14.647V31.8701H17.9014V35.04ZM24.4086 38.2781H21.1557V35.1098H24.4086V38.2781ZM30.9159 41.5845H27.663V38.3464H30.9159V41.5845ZM34.1703 38.2781H30.9159V35.1098H34.1703H37.4247V38.2781H34.1703ZM40.6776 41.5845H37.4232V38.3464H40.6776V41.5845ZM50.4392 38.2781V38.3479V41.586H47.1849V38.2781H43.9305V35.1098H47.1849H50.4392V38.2781ZM53.6936 35.1083H56.948V38.2766H53.6936V35.1083ZM60.7234 41.5845H56.9465V38.3464H60.7234V41.5845ZM60.7234 35.04H56.9465V31.8701H60.7234V35.04ZM68.2757 38.2781H64.4988V35.1098H68.2757V38.2781ZM68.2757 31.8701H72.051V35.0385H68.2757V31.8701ZM75.8264 41.5845H72.051V38.3464H75.8264V41.5845ZM79.6033 38.2781H75.8279V35.1098H79.6033V38.2781ZM87.1556 41.5845H83.3802V38.3464H87.1556V41.5845ZM87.1556 38.2781V35.1098H90.931H94.7078V38.2781H90.931H87.1556ZM98.4832 41.5845H94.7078V38.3464H98.4832V41.5845ZM109.811 38.2781V38.3479V41.586H106.035V38.2781H102.26V35.1098H106.035H109.811V38.2781ZM120.618 38.2781H117.363H113.588V35.1098H117.363H120.618V38.2781ZM130.379 38.2781H127.125V41.586H123.87V38.3479V38.2781V35.1098H127.125H130.379V38.2781ZM136.886 41.5845H133.632V38.3464H136.886V41.5845ZM136.886 38.2781V35.1098H140.139H143.394V38.2781H140.139H136.886ZM146.648 41.5845H143.394V38.3464H146.648V41.5845ZM153.155 38.2781H149.901V35.1098H153.155V38.2781ZM159.663 35.04H156.408V31.8701H159.663V35.04Z" fill="#31263A"/>
<path d="M173.192 1.67188H1.1189V20.1887C1.1189 22.3874 2.87298 24.1703 5.0361 24.1703C7.19922 24.1703 8.95331 22.3874 8.95331 20.1887V13.5956C8.95331 15.7943 10.7074 17.5773 12.8705 17.5773C15.0336 17.5773 16.7877 15.7943 16.7877 13.5956V27.5329C16.7877 29.7316 18.5418 31.5146 20.7049 31.5146C22.868 31.5146 24.6221 29.7316 24.6221 27.5329V13.5956C24.6221 15.7943 26.3762 17.5773 28.5393 17.5773C30.7025 17.5773 32.4565 15.7943 32.4565 13.5956V16.6471C32.4565 18.8458 34.2106 20.6287 36.3737 20.6287C38.5369 20.6287 40.291 18.8458 40.291 16.6471V13.5956C40.291 15.7943 42.045 17.5773 44.2082 17.5773C46.3713 17.5773 48.1254 15.7943 48.1254 13.5956V20.1887C48.1254 22.3874 49.8794 24.1703 52.0426 24.1703C54.2057 24.1703 55.9598 22.3874 55.9598 20.1887V26.1293C55.9598 28.328 57.7139 30.111 59.877 30.111C62.0401 30.111 63.7942 28.328 63.7942 26.1293V17.5773C63.7942 19.776 65.5483 21.5589 67.7114 21.5589C69.8745 21.5589 71.6286 19.776 71.6286 17.5773V13.5956C71.6286 15.7943 73.3827 17.5773 75.5458 17.5773C77.7089 17.5773 79.463 15.7943 79.463 13.5956V20.1887C79.463 22.3874 81.2171 24.1703 83.3802 24.1703C85.5433 24.1703 87.2974 22.3874 87.2974 20.1887V25.5421C87.2974 27.7408 89.0515 29.5237 91.2146 29.5237C93.3778 29.5237 95.1318 27.7408 95.1318 25.5421V20.1887C95.1318 22.3874 96.8859 24.1703 99.049 24.1703C101.212 24.1703 102.966 22.3874 102.966 20.1887V16.6471C102.966 18.8458 104.72 20.6287 106.883 20.6287C109.047 20.6287 110.801 18.8458 110.801 16.6471V33.0259C110.801 35.2246 112.555 37.0075 114.718 37.0075C116.881 37.0075 118.635 35.2246 118.635 33.0259V18.166C118.635 20.3647 120.389 22.1477 122.552 22.1477C124.715 22.1477 126.469 20.3647 126.469 18.166V23.5512C126.469 25.75 128.224 27.5329 130.387 27.5329C132.55 27.5329 134.304 25.75 134.304 23.5512V19.5696C134.304 21.7683 136.058 23.5512 138.221 23.5512C140.384 23.5512 142.138 21.7683 142.138 19.5696V28.1535C142.138 30.3522 143.892 32.1352 146.056 32.1352C148.219 32.1352 149.973 30.3522 149.973 28.1535V19.5696C149.973 21.7683 151.727 23.5512 153.89 23.5512C156.053 23.5512 157.807 21.7683 157.807 19.5696V10.708C157.807 12.9067 159.561 14.6896 161.724 14.6896C163.887 14.6896 165.642 12.9067 165.642 10.708V19.5696C165.642 21.7683 167.396 23.5512 169.559 23.5512C171.19 23.5512 172.588 22.5376 173.177 21.0961V1.67188H173.192Z" fill="#3CA745" stroke="#31263A" stroke-width="1.23618" stroke-miterlimit="10" stroke-linecap="round" stroke-linejoin="round"/>
<g opacity="0.5">
<path d="M55.9638 14.4436C55.9638 16.6423 54.2097 18.4253 52.0466 18.4253C49.8835 18.4253 48.1294 16.6423 48.1294 14.4436V20.1885C48.1294 22.3872 49.8835 24.1701 52.0466 24.1701C54.2097 24.1701 55.9638 22.3872 55.9638 20.1885V14.4436Z" fill="#251913"/>
<path d="M78.505 10.4623C77.7869 11.3015 76.7315 11.8341 75.5522 11.8341C74.3728 11.8341 73.3174 11.3015 72.5993 10.4623H71.635V11.8341C71.635 14.0328 69.8809 15.8157 67.7177 15.8157C65.5546 15.8157 63.8005 14.0328 63.8005 11.8341V17.5789C63.8005 19.7777 65.5546 21.5606 67.7177 21.5606C69.8809 21.5606 71.635 19.7777 71.635 17.5789V13.5958C71.635 15.7945 73.389 17.5774 75.5522 17.5774C77.7153 17.5774 79.4694 15.7945 79.4694 13.5958V10.4623H78.505Z" fill="#251913"/>
<path d="M59.8799 24.3674C57.7167 24.3674 55.9626 22.5845 55.9626 20.3857V26.1306C55.9626 28.3293 57.7167 30.1123 59.8799 30.1123C62.043 30.1123 63.7971 28.3293 63.7971 26.1306V20.3857C63.7986 22.5845 62.0445 24.3674 59.8799 24.3674Z" fill="#251913"/>
<path d="M5.03513 18.4268C2.872 18.4268 1.11792 16.6438 1.11792 14.4451V20.19C1.11792 22.3887 2.872 24.1716 5.03513 24.1716C7.19825 24.1716 8.95233 22.3887 8.95233 20.19V14.4436C8.95233 16.6438 7.19825 18.4268 5.03513 18.4268Z" fill="#251913"/>
<path d="M110.81 10.9014C110.81 13.1001 109.056 14.883 106.893 14.883C104.73 14.883 102.976 13.1001 102.976 10.9014V14.443C102.976 16.6417 101.222 18.4246 99.0587 18.4246C96.8956 18.4246 95.1415 16.6417 95.1415 14.443V19.7964C95.1415 21.9951 93.3874 23.778 91.2243 23.778C89.0612 23.778 87.3071 21.9951 87.3071 19.7964V14.443C87.3071 16.6417 85.553 18.4246 83.3899 18.4246C81.2267 18.4246 79.4727 16.6417 79.4727 14.443V20.1878C79.4727 22.3866 81.2267 24.1695 83.3899 24.1695C85.553 24.1695 87.3071 22.3866 87.3071 20.1878V25.5412C87.3071 27.7399 89.0612 29.5229 91.2243 29.5229C93.3874 29.5229 95.1415 27.7399 95.1415 25.5412V20.1878C95.1415 22.3866 96.8956 24.1695 99.0587 24.1695C101.222 24.1695 102.976 22.3866 102.976 20.1878V16.6462C102.976 18.845 104.73 20.6279 106.893 20.6279C109.056 20.6279 110.81 18.845 110.81 16.6462V10.9014Z" fill="#251913"/>
<path d="M15.8237 10.4623C15.1056 11.3015 14.0502 11.8341 12.8708 11.8341C11.6915 11.8341 10.6361 11.3015 9.91801 10.4623H8.95215V13.5958C8.95215 15.7945 10.7062 17.5774 12.8694 17.5774C15.0325 17.5774 16.7866 15.7945 16.7866 13.5958V10.4623H15.8237Z" fill="#251913"/>
<path d="M47.1639 10.4623C46.4458 11.3015 45.3904 11.8341 44.211 11.8341C43.0317 11.8341 41.9762 11.3015 41.2582 10.4623H40.2938V10.9024C40.2938 13.1011 38.5397 14.884 36.3766 14.884C34.2135 14.884 32.4594 13.1011 32.4594 10.9024V10.4623H31.495C30.777 11.3015 29.7215 11.8341 28.5422 11.8341C27.3629 11.8341 26.3074 11.3015 25.5894 10.4623H24.625V13.5958C24.625 15.7945 26.3791 17.5774 28.5422 17.5774C30.7053 17.5774 32.4594 15.7945 32.4594 13.5958V16.6473C32.4594 18.846 34.2135 20.6289 36.3766 20.6289C38.5397 20.6289 40.2938 18.846 40.2938 16.6473V13.5958C40.2938 15.7945 42.0479 17.5774 44.211 17.5774C46.3741 17.5774 48.1282 15.7945 48.1282 13.5958V10.4623H47.1639Z" fill="#251913"/>
<path d="M20.7063 25.7701C18.5431 25.7701 16.7891 23.9872 16.7891 21.7885V27.5333C16.7891 29.732 18.5431 31.515 20.7063 31.515C22.8694 31.515 24.6235 29.732 24.6235 27.5333V21.7885C24.6235 23.9887 22.8694 25.7701 20.7063 25.7701Z" fill="#251913"/>
<path d="M146.068 26.3896C143.905 26.3896 142.151 24.6067 142.151 22.408V28.1528C142.151 30.3515 143.905 32.1345 146.068 32.1345C148.231 32.1345 149.985 30.3515 149.985 28.1528V22.408C149.985 24.6067 148.231 26.3896 146.068 26.3896Z" fill="#251913"/>
<path d="M114.728 31.2639C112.564 31.2639 110.81 29.4809 110.81 27.2822V33.0271C110.81 35.2258 112.564 37.0088 114.728 37.0088C116.891 37.0088 118.645 35.2258 118.645 33.0271V27.2822C118.645 29.4809 116.891 31.2639 114.728 31.2639Z" fill="#251913"/>
<path d="M173.191 15.3506C172.601 16.7921 171.204 17.8058 169.572 17.8058C167.409 17.8058 165.655 16.0228 165.655 13.8241V19.569C165.655 21.7677 167.409 23.5506 169.572 23.5506C171.204 23.5506 172.601 22.537 173.191 21.0955V15.3506Z" fill="#251913"/>
<path d="M142.149 13.8249C142.149 16.0236 140.395 17.8066 138.232 17.8066C136.069 17.8066 134.315 16.0236 134.315 13.8249V17.8066C134.315 20.0053 132.561 21.7882 130.398 21.7882C128.235 21.7882 126.481 20.0053 126.481 17.8066V12.4213C126.481 14.62 124.727 16.403 122.563 16.403C120.4 16.403 118.646 14.62 118.646 12.4213V18.1662C118.646 20.3649 120.4 22.1478 122.563 22.1478C124.727 22.1478 126.481 20.3649 126.481 18.1662V23.5514C126.481 25.7502 128.235 27.5331 130.398 27.5331C132.561 27.5331 134.315 25.7502 134.315 23.5514V19.5698C134.315 21.7685 136.069 23.5514 138.232 23.5514C140.395 23.5514 142.149 21.7685 142.149 19.5698V13.8249Z" fill="#251913"/>
<path d="M153.902 17.8058C151.739 17.8058 149.985 16.0228 149.985 13.8241V19.569C149.985 21.7677 151.739 23.5506 153.902 23.5506C156.065 23.5506 157.819 21.7677 157.819 19.569V13.8241C157.819 16.0228 156.065 17.8058 153.902 17.8058Z" fill="#251913"/>
<path d="M157.82 10.4623V10.7066C157.82 12.9054 159.574 14.6883 161.737 14.6883C163.9 14.6883 165.654 12.9054 165.654 10.7066V10.4623H157.82Z" fill="#251913"/>
</g>
<path opacity="0.5" d="M171.936 2.54535H0.590576V6.80924H171.936V2.54535Z" fill="#DDDE3E"/>
</g>
<defs>
<clipPath id="clip0">
<rect width="174.313" height="58.1042" fill="white" transform="translate(0 0.531921)"/>
</clipPath>
</defs>
</svg>
