<svg width="153" height="189" viewBox="0 0 153 189" fill="none" xmlns="http://www.w3.org/2000/svg">
<path fill-rule="evenodd" clip-rule="evenodd" d="M10.0591 176.381C10.0591 176.381 3.06196 171.527 1.02316 155.942H151.961C151.961 155.942 152.143 165.138 137.669 180.528C137.669 180.528 119.035 190.358 71.8506 188.84C23.5323 187.287 10.0591 176.381 10.0591 176.381Z" fill="url(#paint0_radial)"/>
<path fill-rule="evenodd" clip-rule="evenodd" d="M1.02528 155.942C-0.679966 150.518 28.1086 140.546 73.9927 140.546C117.737 140.546 150.093 150.691 151.963 155.942C153.834 161.19 123.55 173.526 73.9927 173.526C24.4358 173.526 3.00223 162.23 1.02528 155.942Z" fill="#FFD8EE"/>
<path fill-rule="evenodd" clip-rule="evenodd" d="M9.74263 152.519C9.74263 152.519 -3.10477 128.548 0.706728 110.85H151.645C151.645 110.85 151.727 140.04 137.353 156.667C137.353 156.667 118.719 166.496 71.5342 164.978C23.214 163.425 9.74263 152.519 9.74263 152.519Z" fill="url(#paint1_linear)"/>
<g clip-path="url(#clip0)">
<path fill-rule="evenodd" clip-rule="evenodd" d="M66.1084 149.191L68.5821 146.948L74.395 151.562L82.8268 143.706L85.6171 145.937L74.6206 155.294L66.1084 149.191Z" fill="#4C95C7"/>
<path fill-rule="evenodd" clip-rule="evenodd" d="M66.5241 148.814L74.725 154.402L85.0077 145.501L82.8269 143.706L74.3952 151.562L68.5822 146.948L66.5241 148.814Z" fill="#00FFED"/>
<g style="mix-blend-mode:color-dodge" opacity="0.5">
<path d="M74.4993 160C83.0594 160 89.9987 155.299 89.9987 149.5C89.9987 143.701 83.0594 139 74.4993 139C65.9393 139 59 143.701 59 149.5C59 155.299 65.9393 160 74.4993 160Z" fill="url(#paint2_radial)"/>
</g>
</g>
<path fill-rule="evenodd" clip-rule="evenodd" d="M0.706763 110.85C-0.998477 105.425 27.7901 95.4546 73.6742 95.4546C117.418 95.4546 149.777 105.6 151.645 110.85C153.513 116.1 123.229 128.435 73.6742 128.435C24.1192 128.435 2.68372 117.136 0.706763 110.85Z" fill="#A4A0C2"/>
<path fill-rule="evenodd" clip-rule="evenodd" d="M132.198 111.944C132.272 112.241 132.123 112.576 131.785 112.911C127.044 117.597 84.507 125.557 56.8484 123.344C56.661 123.326 56.4923 123.307 56.3237 123.307C43.1877 122.21 33.8182 120.406 27.5407 118.379C21.3381 116.37 18.1338 114.175 17.2718 112.278C17.0469 111.813 16.9907 111.367 17.0469 110.958C17.6091 107.071 65.5057 103.054 89.098 106.699C98.9734 108.243 101.897 110.084 100.323 111.776C99.1233 113.115 95.132 114.343 89.5665 115.235C85.3315 115.905 80.1596 116.389 74.6128 116.575C69.722 116.742 65.5432 116.723 62.0203 116.575C53.1755 116.221 48.3971 115.142 46.3921 114.566C45.605 114.343 45.249 114.194 45.249 114.194C45.249 114.194 48.9218 108.726 54.8246 110.549C60.7273 112.371 62.1889 115.124 62.1889 115.124C62.1889 115.124 86.3247 115.942 91.5716 112.687C91.9463 112.464 92.2274 112.223 92.3961 111.944C94.9258 107.833 23.8679 105.788 23.6805 113.115C23.6805 113.45 23.7554 113.766 23.9616 114.082C27.7843 120.908 72.9638 125.855 102.346 117.132C106.956 115.775 109.411 114.268 110.067 112.725C112.803 106.401 85.0129 99.5943 50.7395 99.9477H50.2897C37.3786 100.115 23.5868 101.287 10.151 103.891L17.0469 101.715C17.0469 101.715 33.0874 97.1208 68.6351 98.4412C104.202 99.7617 131.092 107.499 132.198 111.944Z" fill="#4C95C7"/>
<path fill-rule="evenodd" clip-rule="evenodd" d="M62.022 116.575C53.1772 116.221 48.3988 115.143 46.3937 114.566C47.9116 113.078 50.8723 111.014 54.8263 112.241C59.6796 113.748 61.5329 115.868 62.022 116.575Z" fill="#00FFED"/>
<path fill-rule="evenodd" clip-rule="evenodd" d="M92.3959 113.655C92.602 113.32 92.3022 112.985 91.5714 112.688C91.9462 112.465 92.2272 112.223 92.3959 111.944C94.9256 107.834 23.8677 105.788 23.6803 113.116C23.6803 113.45 23.7553 113.767 23.9614 114.083C23.774 114.306 23.6803 114.548 23.6803 114.808C23.6428 116.073 25.0483 117.282 27.5405 118.379C21.3379 116.37 18.1336 114.176 17.2716 112.279C20.832 108.522 66.3113 104.877 89.0978 108.41C95.7127 109.433 99.2169 110.623 100.322 111.777C99.1232 113.116 95.1318 114.343 89.5663 115.236C90.9905 114.808 92.0042 114.287 92.3959 113.655Z" fill="#00FFED"/>
<path fill-rule="evenodd" clip-rule="evenodd" d="M131.785 112.911C127.044 117.597 84.5071 125.558 56.8485 123.344C56.6611 123.326 56.4925 123.307 56.3238 123.307C71.1838 124.014 88.5173 122.935 102.347 118.825C108.643 116.947 110.929 114.826 110.067 112.725C112.803 106.401 85.0131 99.5944 50.7396 99.9477C56.0427 99.8547 62.0017 99.8919 68.6353 100.134C102.311 101.38 128.189 108.391 131.785 112.911Z" fill="#00FFED"/>
<path opacity="0.5" fill-rule="evenodd" clip-rule="evenodd" d="M9.74271 152.52C9.74271 152.52 22.0017 168.163 61.4565 171.068C117.731 175.211 137.353 156.667 137.353 156.667C137.353 156.667 68.2119 173.526 9.74271 152.52Z" fill="url(#paint3_linear)"/>
<path fill-rule="evenodd" clip-rule="evenodd" d="M17.5003 121.408C17.5003 121.408 34.191 126.819 51.5995 126.728C69.0079 126.636 95.5404 127.596 95.5404 127.596C95.5404 127.596 74.7964 134.377 56.5203 133.28C38.2424 132.182 17.5003 121.408 17.5003 121.408Z" fill="#8B6F8B"/>
<path fill-rule="evenodd" clip-rule="evenodd" d="M127.552 122.742C127.552 122.742 139.446 115.239 143.13 113.899C146.814 112.558 150.039 113.899 150.039 113.899C150.039 113.899 144.766 124.152 127.552 122.742Z" fill="#8B6F8B"/>
<path fill-rule="evenodd" clip-rule="evenodd" d="M1.22223 111.944C1.22223 111.944 2.74945 111.488 5.20612 113.301C7.66279 115.116 16.2152 120.969 16.2152 120.969C16.2152 120.969 6.31172 123.726 3.36409 120.969C2.11795 119.807 1.22223 111.944 1.22223 111.944Z" fill="#8B6F8B"/>
<path fill-rule="evenodd" clip-rule="evenodd" d="M84.9196 188.979L86.6342 173.526C86.6342 173.526 104.009 172.97 117.731 169.944L111.544 187.14C111.544 187.14 93.7738 189.009 84.9196 188.979Z" fill="#FFCCB5"/>
<path fill-rule="evenodd" clip-rule="evenodd" d="M13.7021 178.503L10.1436 163.455C10.1436 163.455 19.7173 167.391 25.2078 168.613L25.7269 182.874C25.7269 182.874 19.1308 181.261 13.7021 178.503Z" fill="#FFCCB5"/>
<path fill-rule="evenodd" clip-rule="evenodd" d="M92.396 111.944V113.655C92.396 113.655 91.2922 114.715 90.2878 114.998L89.9599 113.471C89.9599 113.471 91.727 112.727 92.396 111.944Z" fill="#4C95C7"/>
<path fill-rule="evenodd" clip-rule="evenodd" d="M110.232 111.813L110.11 114.304L108.075 116.446V114.763C108.073 114.763 110.147 113.963 110.232 111.813Z" fill="#4C95C7"/>
<path fill-rule="evenodd" clip-rule="evenodd" d="M23.7047 115.131V112.676C23.7047 112.676 23.4423 114.051 25.3968 115.513L25.6292 117.378C25.631 117.378 23.7047 116.372 23.7047 115.131Z" fill="#4C95C7"/>
<g clip-path="url(#clip1)">
<path fill-rule="evenodd" clip-rule="evenodd" d="M104.311 20.8431C104.311 20.8431 110.407 25.2167 109.943 27.2968C109.479 29.3769 102.086 30.8118 102.086 30.8118C102.086 30.8118 99.7576 37.8901 97.6114 38.0963C95.4652 38.3025 91.799 31.8006 91.799 31.8006C91.799 31.8006 84.2641 31.8018 83.4022 29.8496C82.5402 27.8973 87.6677 22.4433 87.6677 22.4433C87.6677 22.4433 85.3384 15.3649 86.9523 13.9517C88.5663 12.5384 95.4017 15.67 95.4017 15.67C95.4017 15.67 101.497 11.2952 103.357 12.3744C105.215 13.4537 104.311 20.8431 104.311 20.8431Z" fill="url(#paint4_linear)"/>
<path fill-rule="evenodd" clip-rule="evenodd" d="M102.669 21.5497C102.669 21.5497 107.674 25.1395 107.293 26.847C106.912 28.5545 100.843 29.7326 100.843 29.7326C100.843 29.7326 98.9324 35.5424 97.1707 35.7124C95.4091 35.8824 92.3997 30.5453 92.3997 30.5453C92.3997 30.5453 86.215 30.5465 85.5069 28.944C84.7988 27.3414 89.0082 22.8653 89.0082 22.8653C89.0082 22.8653 87.0964 17.0555 88.421 15.8955C89.7456 14.7355 95.3566 17.3063 95.3566 17.3063C95.3566 17.3063 100.36 13.7153 101.886 14.6004C103.41 15.4855 102.669 21.5497 102.669 21.5497Z" fill="url(#paint5_linear)"/>
<path fill-rule="evenodd" clip-rule="evenodd" d="M102.349 21.6884C102.349 21.6884 107.141 25.1263 106.776 26.7614C106.411 28.3965 100.6 29.524 100.6 29.524C100.6 29.524 98.77 35.0878 97.084 35.2494C95.3968 35.4109 92.5157 30.3018 92.5157 30.3018C92.5157 30.3018 86.5934 30.3018 85.9159 28.7679C85.2383 27.2329 89.2683 22.9473 89.2683 22.9473C89.2683 22.9473 87.4382 17.3847 88.7055 16.2742C89.9739 15.1636 95.3468 17.6247 95.3468 17.6247C95.3468 17.6247 100.137 14.1856 101.599 15.0346C103.059 15.8811 102.349 21.6884 102.349 21.6884Z" fill="url(#paint6_radial)"/>
<path opacity="0.5" fill-rule="evenodd" clip-rule="evenodd" d="M89.0729 24.486C89.0729 24.486 86.663 27.087 87.0244 28.1734C87.3858 29.2599 93.0089 29.3069 93.0089 29.3069C93.0089 29.3069 95.7472 32.6664 97.0853 32.7352C98.4233 32.8039 100.03 28.376 100.03 28.376C100.03 28.376 105.113 27.9829 106.102 26.9314C106.102 26.9314 104.15 29.2491 100.482 29.2298C100.482 29.2298 98.5808 34.7875 97.0193 34.9491C95.4579 35.1107 92.639 29.9726 92.639 29.9726C92.639 29.9726 87.3735 30.8191 86.2443 28.8041C85.4581 27.4029 89.0729 24.486 89.0729 24.486Z" fill="white"/>
<path fill-rule="evenodd" clip-rule="evenodd" d="M96.1085 19.8398C95.8851 20.2426 95.3724 20.3909 94.9646 20.169C94.5568 19.9484 94.4067 19.4419 94.6313 19.0392C94.8547 18.6364 95.3675 18.4881 95.7752 18.71C96.183 18.9318 96.3319 19.4371 96.1085 19.8398Z" fill="white"/>
<path fill-rule="evenodd" clip-rule="evenodd" d="M54.9471 15.0501C54.9471 15.0501 61.5726 11.5061 63.272 12.818C64.9713 14.13 63.0913 21.3361 63.0913 21.3361C63.0913 21.3361 68.5508 26.4646 67.8134 28.4663C67.0761 30.468 59.5557 30.9286 59.5557 30.9286C59.5557 30.9286 56.3047 37.6428 54.1487 37.568C51.9939 37.4933 49.2263 30.5717 49.2263 30.5717C49.2263 30.5717 41.7572 29.5914 41.1627 27.5438C40.5682 25.4963 46.3781 20.7573 46.3781 20.7573C46.3781 20.7573 45.0132 13.4378 46.8017 12.2477C48.589 11.0563 54.9471 15.0501 54.9471 15.0501Z" fill="url(#paint7_linear)"/>
<path fill-rule="evenodd" clip-rule="evenodd" d="M54.8837 16.819C54.8837 16.819 60.3225 13.9105 61.7167 14.9874C63.1109 16.0642 61.5677 21.9801 61.5677 21.9801C61.5677 21.9801 66.0494 26.1897 65.4439 27.8333C64.8383 29.4756 58.6658 29.8542 58.6658 29.8542C58.6658 29.8542 55.9971 35.365 54.2281 35.3035C52.4591 35.242 50.1871 29.56 50.1871 29.56C50.1871 29.56 44.0561 28.7557 43.569 27.0748C43.0819 25.3938 47.8505 21.5038 47.8505 21.5038C47.8505 21.5038 46.7298 15.4962 48.1984 14.5183C49.6646 13.5404 54.8837 16.819 54.8837 16.819Z" fill="url(#paint8_linear)"/>
<path fill-rule="evenodd" clip-rule="evenodd" d="M54.8714 17.1627C54.8714 17.1627 60.0794 14.3772 61.415 15.4082C62.7506 16.4392 61.2722 22.1031 61.2722 22.1031C61.2722 22.1031 65.5634 26.1342 64.9835 27.7078C64.4036 29.2815 58.4924 29.6432 58.4924 29.6432C58.4924 29.6432 55.9372 34.92 54.2426 34.8609C52.5481 34.8018 50.3738 29.3611 50.3738 29.3611C50.3738 29.3611 44.5028 28.5905 44.0365 26.9819C43.5701 25.3733 48.136 21.6485 48.136 21.6485C48.136 21.6485 47.0629 15.8954 48.4693 14.9596C49.8745 14.0239 54.8714 17.1627 54.8714 17.1627Z" fill="url(#paint9_radial)"/>
<path opacity="0.5" fill-rule="evenodd" clip-rule="evenodd" d="M51.6961 30.2004C51.6961 30.2004 53.0317 33.4706 54.1792 33.6177C55.328 33.7649 57.7978 28.7751 57.7978 28.7751C57.7978 28.7751 62.0475 27.7851 62.6884 26.6226C63.3294 25.4602 59.9782 22.1176 59.9782 22.1176C59.9782 22.1176 61.8131 17.4184 61.2796 16.0835C61.2796 16.0835 62.5541 18.8232 60.9524 22.0838C60.9524 22.0838 65.2082 26.1765 64.6808 27.6379C64.1547 29.0994 58.2458 29.3925 58.2458 29.3925C58.2458 29.3925 56.7467 34.4498 54.4185 34.586C52.8009 34.6801 51.6961 30.2004 51.6961 30.2004Z" fill="white"/>
<path fill-rule="evenodd" clip-rule="evenodd" d="M50.4899 21.9258C50.7609 22.2996 50.6755 22.8193 50.297 23.087C49.9185 23.3547 49.3924 23.2703 49.1213 22.8965C48.8503 22.5226 48.937 22.0029 49.3142 21.7352C49.6915 21.4663 50.2189 21.5519 50.4899 21.9258Z" fill="white"/>
<path fill-rule="evenodd" clip-rule="evenodd" d="M81.8823 8.14185C81.8823 8.14185 90.6137 9.23676 91.3218 11.6255C92.0299 14.0131 85.275 19.5877 85.275 19.5877C85.275 19.5877 86.9183 28.1288 84.838 29.5312C82.7577 30.9336 75.3033 26.3103 75.3033 26.3103C75.3033 26.3103 67.5876 30.4934 65.594 28.9729C63.6004 27.4523 65.7478 19.021 65.7478 19.021C65.7478 19.021 59.336 13.0653 60.1845 10.7224C61.033 8.37941 69.8144 7.79216 69.8144 7.79216C69.8144 7.79216 73.5673 -0.0723734 76.0846 -2.26425e-05C78.6032 0.073534 81.8823 8.14185 81.8823 8.14185Z" fill="url(#paint10_linear)"/>
<path fill-rule="evenodd" clip-rule="evenodd" d="M80.6029 9.77815C80.6029 9.77815 87.7704 10.6777 88.3515 12.6372C88.9327 14.5967 83.3876 19.1729 83.3876 19.1729C83.3876 19.1729 84.7367 26.1837 83.0287 27.3353C81.3208 28.4869 75.202 24.6921 75.202 24.6921C75.202 24.6921 68.8683 28.1263 67.2324 26.8771C65.5965 25.6278 67.3593 18.7086 67.3593 18.7086C67.3593 18.7086 62.0963 13.8201 62.7922 11.8968C63.4881 9.97349 70.6971 9.49115 70.6971 9.49115C70.6971 9.49115 73.7773 3.03626 75.8441 3.09655C77.911 3.15564 80.6029 9.77815 80.6029 9.77815Z" fill="url(#paint11_linear)"/>
<path fill-rule="evenodd" clip-rule="evenodd" d="M80.3538 10.0965C80.3538 10.0965 87.2173 10.9575 87.7728 12.835C88.3295 14.7125 83.0201 19.0921 83.0201 19.0921C83.0201 19.0921 84.3117 25.805 82.677 26.9072C81.0411 28.0093 75.1823 24.3761 75.1823 24.3761C75.1823 24.3761 69.1173 27.6645 67.5509 26.4683C65.9846 25.2733 67.6718 18.6459 67.6718 18.6459C67.6718 18.6459 62.6322 13.9648 63.2988 12.1235C63.9654 10.2822 70.8679 9.82035 70.8679 9.82035C70.8679 9.82035 73.8175 3.63918 75.7964 3.69706C77.7766 3.75494 80.3538 10.0965 80.3538 10.0965Z" fill="url(#paint12_radial)"/>
<path opacity="0.5" fill-rule="evenodd" clip-rule="evenodd" d="M68.3482 20.3318C68.3482 20.3318 67.3593 24.334 68.3482 25.2456C69.337 26.1585 75.1225 23.0848 75.1225 23.0848C75.1225 23.0848 79.8386 25.0057 81.2487 24.3328C82.6587 23.66 81.7834 18.2336 81.7834 18.2336C81.7834 18.2336 86.7656 15.0092 87.1795 13.3837C87.1795 13.3837 86.4983 16.8409 82.7308 18.8583C82.7308 18.8583 83.9467 25.605 82.439 26.6372C80.9313 27.6694 75.1225 23.9723 75.1225 23.9723C75.1225 23.9723 70.2124 27.7622 67.9087 26.3249C66.3069 25.3252 68.3482 20.3318 68.3482 20.3318Z" fill="white"/>
<path fill-rule="evenodd" clip-rule="evenodd" d="M72.9103 11.6678C72.9103 12.2044 72.4696 12.6397 71.9263 12.6397C71.3831 12.6397 70.9424 12.2044 70.9424 11.6678C70.9424 11.1312 71.3831 10.6959 71.9263 10.6959C72.4696 10.6959 72.9103 11.1312 72.9103 11.6678Z" fill="white"/>
<path fill-rule="evenodd" clip-rule="evenodd" d="M102.723 55.4907C102.723 71.1546 90.3316 81.8396 74.9809 81.8396C59.6302 81.8396 47.1337 71.1546 47.1337 55.4907C47.1337 39.8267 59.5777 27.128 74.9284 27.128C90.2791 27.128 102.723 39.8267 102.723 55.4907Z" fill="url(#paint13_linear)"/>
<path d="M74.9284 27.1292C90.2791 27.1292 102.723 39.8279 102.723 55.4919C102.723 71.1558 90.3316 81.8408 74.9809 81.8408C59.6301 81.8408 47.1337 71.1558 47.1337 55.4919C47.1337 39.8267 59.5776 27.1292 74.9284 27.1292ZM74.9284 25.9233C58.9294 25.9233 45.9129 39.1876 45.9129 55.4919C45.9129 71.2004 58.4093 83.0467 74.9809 83.0467C91.4926 83.0467 103.944 71.2004 103.944 55.4919C103.944 39.1876 90.9274 25.9233 74.9284 25.9233Z" fill="white"/>
<path fill-rule="evenodd" clip-rule="evenodd" d="M99.8469 55.1048C99.8469 68.5271 88.7385 76.8185 74.9773 76.8185C61.2161 76.8185 50.0138 68.5271 50.0138 55.1048C50.0138 41.6825 61.1697 30.8009 74.9309 30.8009C88.6921 30.8009 99.8469 41.6825 99.8469 55.1048Z" fill="url(#paint14_linear)"/>
<path fill-rule="evenodd" clip-rule="evenodd" d="M79.3562 74.8686C66.7487 77.4274 54.9152 71.9083 52.3673 59.6207C52.1793 58.6922 52.0438 57.7528 51.9705 56.8352V56.8243C51.072 45.5581 58.9158 35.0974 70.5516 32.7448C80.7565 30.6707 90.7722 35.4579 95.5457 43.8868C95.5457 43.8868 95.5457 43.8965 95.5566 43.9073C96.6737 45.8777 97.51 48.0446 97.9898 50.3658C100.55 62.6643 91.9527 72.3098 79.3562 74.8686Z" fill="url(#paint15_radial)"/>
<path d="M54.48 51.296V47.48H61.128V65H56.856V51.296H54.48ZM64.9355 56C64.9355 53.248 65.4635 51.08 66.5195 49.496C67.5915 47.912 69.3115 47.12 71.6795 47.12C74.0475 47.12 75.7595 47.912 76.8155 49.496C77.8875 51.08 78.4235 53.248 78.4235 56C78.4235 58.784 77.8875 60.968 76.8155 62.552C75.7595 64.136 74.0475 64.928 71.6795 64.928C69.3115 64.928 67.5915 64.136 66.5195 62.552C65.4635 60.968 64.9355 58.784 64.9355 56ZM74.3915 56C74.3915 54.384 74.2155 53.144 73.8635 52.28C73.5115 51.4 72.7835 50.96 71.6795 50.96C70.5755 50.96 69.8475 51.4 69.4955 52.28C69.1435 53.144 68.9675 54.384 68.9675 56C68.9675 57.088 69.0315 57.992 69.1595 58.712C69.2875 59.416 69.5435 59.992 69.9275 60.44C70.3275 60.872 70.9115 61.088 71.6795 61.088C72.4475 61.088 73.0235 60.872 73.4075 60.44C73.8075 59.992 74.0715 59.416 74.1995 58.712C74.3275 57.992 74.3915 57.088 74.3915 56ZM81.5917 56C81.5917 53.248 82.1197 51.08 83.1757 49.496C84.2477 47.912 85.9677 47.12 88.3357 47.12C90.7037 47.12 92.4157 47.912 93.4717 49.496C94.5437 51.08 95.0797 53.248 95.0797 56C95.0797 58.784 94.5437 60.968 93.4717 62.552C92.4157 64.136 90.7037 64.928 88.3357 64.928C85.9677 64.928 84.2477 64.136 83.1757 62.552C82.1197 60.968 81.5917 58.784 81.5917 56ZM91.0477 56C91.0477 54.384 90.8717 53.144 90.5197 52.28C90.1677 51.4 89.4397 50.96 88.3357 50.96C87.2317 50.96 86.5037 51.4 86.1517 52.28C85.7997 53.144 85.6237 54.384 85.6237 56C85.6237 57.088 85.6877 57.992 85.8157 58.712C85.9437 59.416 86.1997 59.992 86.5837 60.44C86.9837 60.872 87.5677 61.088 88.3357 61.088C89.1037 61.088 89.6797 60.872 90.0637 60.44C90.4637 59.992 90.7277 59.416 90.8557 58.712C90.9837 57.992 91.0477 57.088 91.0477 56Z" fill="white"/>
<path opacity="0.2" fill-rule="evenodd" clip-rule="evenodd" d="M79.3563 74.8686C66.7488 77.4274 54.9153 71.9083 52.3674 59.6207C52.1794 58.6922 52.0439 57.7528 51.9706 56.8352C52.4614 57.877 53.2305 63.8303 59.5825 66.6544C71.4526 71.9324 87.9522 66.6206 93.5192 59.1818C98.9091 51.9503 95.6825 44.2691 95.5579 43.9085C96.675 45.8789 97.5113 48.0458 97.9911 50.367C100.55 62.6643 91.9528 72.3098 79.3563 74.8686Z" fill="url(#paint16_linear)"/>
<path d="M59.5314 46.9473C60.8017 46.9473 61.8314 45.9301 61.8314 44.6754C61.8314 43.4208 60.8017 42.4036 59.5314 42.4036C58.2611 42.4036 57.2314 43.4208 57.2314 44.6754C57.2314 45.9301 58.2611 46.9473 59.5314 46.9473Z" fill="white"/>
<path fill-rule="evenodd" clip-rule="evenodd" d="M92.1703 67.5069C89.5394 69.868 86.7144 71.0304 85.8598 70.1019C85.0052 69.1734 86.4458 66.5061 89.0779 64.145C91.7088 61.784 94.5338 60.6216 95.3884 61.5501C96.2417 62.4786 94.8012 65.1447 92.1703 67.5069Z" fill="white"/>
<g style="mix-blend-mode:soft-light">
<path fill-rule="evenodd" clip-rule="evenodd" d="M54.3672 54.4838C54.3672 54.4838 63.0986 58.8308 67.0333 46.946C71.0572 34.7911 85.4215 35.3108 89.5283 38.1795C89.5283 38.1795 81.3488 30.8009 67.4289 35.3132C52.6214 40.1137 54.3672 54.4838 54.3672 54.4838Z" fill="url(#paint17_linear)"/>
</g>
</g>
<defs>
<radialGradient id="paint0_radial" cx="0" cy="0" r="1" gradientUnits="userSpaceOnUse" gradientTransform="translate(76.4937 172.471) scale(54.6485 54.2383)">
<stop stop-color="#FF9689"/>
<stop offset="0.9888" stop-color="#FF909C"/>
</radialGradient>
<linearGradient id="paint1_linear" x1="75.8228" y1="165.138" x2="75.8228" y2="110.85" gradientUnits="userSpaceOnUse">
<stop stop-color="#48365E"/>
<stop offset="1" stop-color="#685763"/>
</linearGradient>
<radialGradient id="paint2_radial" cx="0" cy="0" r="1" gradientUnits="userSpaceOnUse" gradientTransform="translate(74.4997 149.5) scale(15.5003 10.4998)">
<stop stop-color="#006FFF"/>
<stop offset="1"/>
</radialGradient>
<linearGradient id="paint3_linear" x1="9.74252" y1="162.095" x2="137.353" y2="162.095" gradientUnits="userSpaceOnUse">
<stop stop-color="#C77CBD"/>
<stop offset="1" stop-color="#974577"/>
</linearGradient>
<linearGradient id="paint4_linear" x1="96.8541" y1="38.1156" x2="96.3013" y2="12.3383" gradientUnits="userSpaceOnUse">
<stop stop-color="#C1BDF1"/>
<stop offset="1" stop-color="#FBF9FE"/>
</linearGradient>
<linearGradient id="paint5_linear" x1="86.9423" y1="18.4412" x2="106.093" y2="29.0808" gradientUnits="userSpaceOnUse">
<stop stop-color="#C44C25"/>
<stop offset="1" stop-color="#FF5E42"/>
</linearGradient>
<radialGradient id="paint6_radial" cx="0" cy="0" r="1" gradientUnits="userSpaceOnUse" gradientTransform="translate(96.4031 19.1603) rotate(28.4589) scale(10.306 10.2373)">
<stop stop-color="#FFC62D"/>
<stop offset="0.9973" stop-color="#FF9200"/>
</radialGradient>
<linearGradient id="paint7_linear" x1="67.5028" y1="29.1496" x2="43.8174" y2="18.309" gradientUnits="userSpaceOnUse">
<stop stop-color="#C1BDF1"/>
<stop offset="1" stop-color="#FBF9FE"/>
</linearGradient>
<linearGradient id="paint8_linear" x1="45.2569" y1="29.489" x2="62.9543" y2="16.6267" gradientUnits="userSpaceOnUse">
<stop stop-color="#C44C25"/>
<stop offset="1" stop-color="#FF5E42"/>
</linearGradient>
<radialGradient id="paint9_radial" cx="0" cy="0" r="1" gradientUnits="userSpaceOnUse" gradientTransform="translate(49.9967 21.3699) rotate(-35.339) scale(10.2922 10.2509)">
<stop stop-color="#FFC62D"/>
<stop offset="0.9973" stop-color="#FF9200"/>
</radialGradient>
<linearGradient id="paint10_linear" x1="84.0732" y1="29.9704" x2="69.1071" y2="3.72634" gradientUnits="userSpaceOnUse">
<stop stop-color="#C1BDF1"/>
<stop offset="1" stop-color="#FBF9FE"/>
</linearGradient>
<linearGradient id="paint11_linear" x1="62.7281" y1="15.3236" x2="88.3939" y2="15.3236" gradientUnits="userSpaceOnUse">
<stop stop-color="#C44C25"/>
<stop offset="1" stop-color="#FF5E42"/>
</linearGradient>
<radialGradient id="paint12_radial" cx="0" cy="0" r="1" gradientUnits="userSpaceOnUse" gradientTransform="translate(72.826 10.8083) scale(12.0733 11.9251)">
<stop stop-color="#FFC62D"/>
<stop offset="0.9973" stop-color="#FF9200"/>
</radialGradient>
<linearGradient id="paint13_linear" x1="74.9286" y1="81.84" x2="74.9286" y2="27.1286" gradientUnits="userSpaceOnUse">
<stop stop-color="#C1BDF1"/>
<stop offset="1" stop-color="#FBF9FE"/>
</linearGradient>
<linearGradient id="paint14_linear" x1="74.9306" y1="76.819" x2="74.9306" y2="30.8013" gradientUnits="userSpaceOnUse">
<stop stop-color="#C44C25"/>
<stop offset="1" stop-color="#FF5E42"/>
</linearGradient>
<radialGradient id="paint15_radial" cx="0" cy="0" r="1" gradientUnits="userSpaceOnUse" gradientTransform="translate(65.6857 46.1861) scale(22.5773 22.3002)">
<stop stop-color="#FFC62D"/>
<stop offset="0.9973" stop-color="#FF9200"/>
</radialGradient>
<linearGradient id="paint16_linear" x1="51.9704" y1="59.695" x2="98.4422" y2="59.695" gradientUnits="userSpaceOnUse">
<stop stop-color="#C77CBD"/>
<stop offset="1" stop-color="#974577"/>
</linearGradient>
<linearGradient id="paint17_linear" x1="54.3032" y1="44.5564" x2="89.5274" y2="44.5564" gradientUnits="userSpaceOnUse">
<stop stop-color="#FF5942"/>
<stop offset="1"/>
</linearGradient>
<clipPath id="clip0">
<rect width="31" height="21" fill="white" transform="translate(59 139)"/>
</clipPath>
<clipPath id="clip1">
<rect width="68.85" height="83.0455" fill="white" transform="translate(41.1187)"/>
</clipPath>
</defs>
</svg>
