<svg width="1916" height="207" viewBox="0 0 1916 207" fill="none" xmlns="http://www.w3.org/2000/svg">
<path opacity="0.78" d="M1915.82 150.327C1907.04 150.327 1898.27 150.327 1889.49 150.327C1888.37 149.407 1889.08 148.154 1888.92 147.062C1888.76 145.937 1889.12 144.767 1888.68 143.666C1888.52 143.542 1888.37 143.327 1888.23 143.327C1876.93 143.311 1865.63 143.312 1854.4 143.312C1854.19 143.108 1853.94 142.974 1853.93 142.832C1853.87 140.899 1853.84 138.965 1853.82 137.031C1853.82 136.88 1854.02 136.727 1854.12 136.575C1854.28 136.483 1854.43 136.31 1854.59 136.31C1858.86 136.295 1863.13 136.298 1867.26 136.298C1867.54 136.024 1867.79 135.889 1867.8 135.748C1867.83 133.806 1867.85 131.862 1867.83 129.919C1867.83 129.775 1867.6 129.633 1867.47 129.491C1867.3 129.422 1867.14 129.292 1866.97 129.292C1848.84 129.283 1830.71 129.283 1812.57 129.292C1812.41 129.292 1812.24 129.419 1812.07 129.487C1811.95 129.629 1811.71 129.77 1811.71 129.914C1811.68 131.857 1811.69 133.801 1811.69 135.728C1812.04 135.93 1812.35 136.271 1812.66 136.274C1816.56 136.311 1820.46 136.291 1824.36 136.31C1824.72 136.312 1825.07 136.479 1825.57 136.607C1825.96 138.63 1825.54 140.753 1825.85 142.929C1827.24 143.793 1828.82 143.168 1830.31 143.285C1831.86 143.407 1833.43 143.243 1834.99 143.332C1836.5 143.419 1838.06 142.968 1839.48 143.551C1839.61 143.816 1839.76 143.977 1839.76 144.139C1839.78 146.065 1839.77 147.991 1839.77 149.742C1839.46 150.05 1839.32 150.308 1839.19 150.308C1830.22 150.328 1821.25 150.326 1812.17 150.326C1811.01 148.227 1812.21 145.821 1811.46 143.66C1811.31 143.543 1811.16 143.328 1811.01 143.327C1804.39 143.31 1797.77 143.312 1791.26 143.312C1790.77 143.013 1790.63 142.695 1790.63 142.291C1790.64 140.538 1790.64 138.785 1790.62 137.031C1790.62 136.878 1790.43 136.727 1790.32 136.574C1790.17 136.482 1790.01 136.31 1789.85 136.31C1776.6 136.297 1763.34 136.297 1750.08 136.304C1749.71 136.304 1749.34 136.387 1748.95 136.433C1748.11 137.444 1748.62 138.644 1748.53 139.754C1748.45 140.878 1748.52 142.014 1748.52 142.997C1746.82 143.513 1745.47 143.264 1744.13 143.303C1742.77 143.344 1741.4 143.312 1740.04 143.312C1738.67 143.312 1737.31 143.312 1735.94 143.312C1734.58 143.312 1733.21 143.282 1731.85 143.321C1730.51 143.36 1729.16 143.116 1727.85 143.505C1727.71 143.658 1727.48 143.799 1727.47 143.942C1727.45 145.886 1727.46 147.83 1727.46 149.725C1727.19 150.14 1726.87 150.326 1726.48 150.326C1710.69 150.327 1694.9 150.327 1679.11 150.315C1678.95 150.315 1678.79 150.146 1678.63 150.056C1678.53 149.904 1678.33 149.754 1678.33 149.601C1678.31 147.666 1678.32 145.732 1678.32 143.896C1678.56 143.66 1678.69 143.413 1678.83 143.401C1680.92 143.223 1683.02 143.37 1685.06 143.291C1685.7 140.916 1685.01 138.776 1685.5 136.721C1685.65 136.576 1685.78 136.318 1685.92 136.317C1692.55 136.298 1699.18 136.3 1705.92 136.3C1707.08 134.199 1705.88 131.793 1706.63 129.632C1706.78 129.515 1706.93 129.298 1707.08 129.298C1713.7 129.281 1720.32 129.284 1726.83 129.284C1727.32 128.985 1727.46 128.667 1727.46 128.264C1727.45 126.511 1727.45 124.757 1727.47 123.004C1727.47 122.85 1727.66 122.699 1727.76 122.547C1727.92 122.454 1728.08 122.281 1728.23 122.281C1734.85 122.267 1741.46 122.27 1747.93 122.27C1748.2 121.997 1748.46 121.861 1748.46 121.721C1748.5 119.779 1748.51 117.835 1748.5 115.892C1748.5 115.749 1748.26 115.606 1748.14 115.463C1742.97 115.185 1712.13 115.181 1706.78 115.458C1706.65 115.6 1706.42 115.74 1706.41 115.884C1706.39 117.827 1706.4 119.772 1706.4 121.699C1706.05 121.901 1705.74 122.235 1705.43 122.245C1703.67 122.297 1701.92 122.27 1700.16 122.27C1665.85 122.27 1631.53 122.268 1597.22 122.279C1596.28 122.279 1595.31 122.094 1594.48 122.42C1594.3 122.686 1594.1 122.836 1594.1 122.988C1594.08 124.923 1594.08 126.859 1594.08 128.634C1593.76 129.181 1593.44 129.291 1593.02 129.291C1572.94 129.283 1552.86 129.282 1532.78 129.292C1532.23 129.292 1531.69 129.408 1531.13 129.472C1530.56 131.671 1531.22 133.81 1530.75 135.87C1530.61 136.012 1530.47 136.27 1530.33 136.27C1512.01 136.288 1493.68 136.287 1475.36 136.287C1475.15 136.6 1474.79 136.897 1474.78 137.205C1474.72 139.123 1474.75 141.044 1474.75 142.769C1474.38 143.074 1474.23 143.297 1474.09 143.298C1439.39 143.313 1404.69 143.312 1370.07 143.312C1369.62 143.028 1369.45 142.712 1369.45 142.316C1369.46 140.563 1369.46 138.81 1369.44 137.056C1369.44 136.901 1369.26 136.747 1369.17 136.592C1369.01 136.494 1368.86 136.311 1368.7 136.31C1355.07 136.297 1341.44 136.298 1327.89 136.298C1326.92 135.18 1327.5 133.972 1327.34 132.868C1327.19 131.753 1327.66 130.57 1326.99 129.511C1322.22 129.22 1298.69 129.192 1292.64 129.469C1292.51 129.609 1292.26 129.747 1292.26 129.888C1292.23 131.834 1292.24 133.781 1292.24 135.72C1292.56 135.918 1292.87 136.27 1293.19 136.273C1297.09 136.311 1300.99 136.291 1304.89 136.309C1305.24 136.31 1305.6 136.467 1305.95 136.552C1306.06 136.702 1306.26 136.85 1306.27 137C1306.29 138.937 1306.28 140.874 1306.28 142.864C1307.76 143.776 1309.34 143.171 1310.84 143.286C1312.39 143.405 1313.95 143.312 1315.51 143.312C1317.04 143.312 1318.56 143.312 1320.05 143.312C1320.66 145.692 1320.02 147.829 1320.47 149.892C1320.61 150.032 1320.75 150.29 1320.89 150.291C1325.17 150.312 1329.46 150.308 1333.73 150.308C1333.95 150.626 1334.32 150.92 1334.33 151.226C1334.39 152.978 1334.35 154.732 1334.37 156.486C1334.37 156.65 1334.51 156.814 1334.58 156.978C1334.73 157.099 1334.87 157.325 1335.02 157.325C1343.98 157.342 1352.94 157.34 1361.82 157.34C1362.27 157.625 1362.44 157.94 1362.44 158.337C1362.43 160.09 1362.43 161.844 1362.45 163.597C1362.45 163.753 1362.63 163.906 1362.73 164.061C1362.88 164.159 1363.04 164.342 1363.19 164.343C1369.8 164.357 1376.42 164.355 1382.98 164.355C1383.65 166.156 1383.69 168.172 1383.14 171.145C1382.78 171.22 1382.42 171.358 1382.06 171.36C1345.18 171.586 1321.08 171.52 1313.7 171.185C1313.57 171.046 1313.32 170.907 1313.32 170.766C1313.29 168.82 1313.3 166.873 1313.3 164.934C1312.98 164.736 1312.67 164.38 1312.35 164.379C1303.97 164.349 1295.59 164.358 1287.2 164.349C1286.65 164.348 1286.1 164.258 1285.64 164.219C1285.44 163.953 1285.24 163.805 1285.23 163.655C1285.21 161.718 1285.22 159.781 1285.22 157.979C1284.91 157.461 1284.59 157.334 1284.18 157.335C1275.01 157.342 1265.85 157.341 1256.69 157.341C1231.73 157.341 1206.78 157.339 1181.82 157.351C1181.27 157.352 1180.65 157.088 1180.04 157.95C1179.6 159.713 1180.21 161.848 1179.78 163.915C1179.64 164.053 1179.51 164.311 1179.37 164.311C1172.74 164.331 1166.12 164.328 1159.51 164.328C1159.28 164.65 1158.91 164.941 1158.9 165.243C1158.84 166.995 1158.86 168.749 1158.88 170.502C1158.88 170.668 1159.01 170.833 1159.08 170.998C1159.23 171.122 1159.37 171.354 1159.51 171.354C1189.53 171.369 1219.55 171.369 1249.64 171.369C1250.8 173.512 1249.56 175.922 1250.37 178.055C1250.55 178.179 1250.71 178.37 1250.86 178.37C1257.47 178.385 1264.09 178.383 1270.66 178.383C1271.33 180.084 1271.37 181.9 1270.83 185.207C1268.78 185.767 1266.63 185.064 1264.62 185.552C1264.44 185.72 1264.18 185.852 1264.18 185.988C1264.15 187.936 1264.16 189.884 1264.16 191.829C1263.85 192.025 1263.54 192.385 1263.23 192.387C1257.18 192.42 1251.14 192.408 1245.1 192.417C1244.54 192.418 1243.99 192.505 1243.53 192.544C1243.33 192.804 1243.12 192.951 1243.12 193.1C1243.1 195.038 1243.1 196.976 1243.1 198.794C1242.8 199.295 1242.48 199.431 1242.07 199.43C1229.01 199.424 1215.95 199.423 1202.88 199.433C1202.34 199.433 1201.79 199.543 1201.2 199.606C1200.67 201.794 1201.26 203.929 1200.84 205.996C1200.71 206.134 1200.57 206.392 1200.43 206.392C1142.33 206.42 1084.24 206.43 1026.14 206.424C1026 206.424 1025.85 206.192 1025.67 206.033C1025.14 204.01 1025.84 201.869 1025.33 199.84C1025.15 199.682 1025.01 199.441 1024.87 199.441C1008.89 199.424 992.901 199.425 976.848 199.425C975.673 197.296 976.908 194.885 976.11 192.742C975.939 192.622 975.788 192.424 975.636 192.424C966.681 192.41 957.725 192.411 948.864 192.411C948.632 192.179 948.386 192.051 948.372 191.902C948.184 189.82 948.341 187.714 948.262 185.81C947.782 185.563 947.63 185.445 947.459 185.406C947.273 185.364 947.071 185.397 946.876 185.397C940.637 185.397 934.398 185.398 928.159 185.39C927.987 185.39 927.814 185.288 927.642 185.233C927.504 185.096 927.248 184.96 927.246 184.82C927.22 182.873 927.228 180.926 927.228 178.973C927.526 178.78 927.826 178.419 928.137 178.41C929.89 178.354 931.646 178.389 933.4 178.372C933.564 178.371 933.726 178.227 933.889 178.149C934.006 178.003 934.223 177.858 934.225 177.71C934.248 175.77 934.24 173.83 934.24 171.991C934.536 171.514 934.854 171.364 935.255 171.365C939.154 171.371 943.054 171.359 946.953 171.382C947.386 171.384 947.733 171.368 947.997 171.065C948.091 170.909 948.266 170.754 948.267 170.598C948.286 168.667 948.279 166.736 948.279 165.042C948.635 164.408 948.962 164.34 949.393 164.342C955.632 164.36 961.871 164.347 968.11 164.37C968.552 164.372 968.89 164.354 969.153 163.939C969.524 163.263 969.309 162.483 969.328 161.732C969.363 160.394 969.338 159.054 969.338 157.905C968.996 157.596 968.854 157.356 968.712 157.356C950.388 157.34 932.064 157.34 913.672 157.34C912.497 159.47 913.732 161.881 912.934 164.023C912.763 164.143 912.612 164.341 912.46 164.341C901.165 164.356 889.869 164.355 878.703 164.355C877.785 165.017 878.141 165.854 878.094 166.584C878.044 167.36 878.131 168.145 878.069 168.92C878.011 169.656 878.383 170.467 877.763 171.111C877.587 171.203 877.434 171.321 877.263 171.359C877.077 171.401 876.875 171.369 876.68 171.369C868.101 171.369 859.523 171.368 850.944 171.376C850.771 171.376 850.599 171.477 850.426 171.531C850.289 171.669 850.033 171.805 850.031 171.945C850.004 173.892 850.013 175.839 850.013 177.781C849.7 177.985 849.395 178.356 849.089 178.358C843.046 178.392 837.001 178.38 830.957 178.389C830.402 178.39 829.846 178.472 829.384 178.509C829.181 178.761 828.962 178.906 828.96 179.053C828.938 180.993 828.945 182.933 828.945 184.777C828.651 185.249 828.334 185.401 827.933 185.401C819.354 185.397 810.776 185.402 802.197 185.385C801.765 185.384 801.417 185.398 801.151 185.698C801.057 185.853 800.881 186.008 800.879 186.165C800.861 188.096 800.867 190.027 800.867 191.727C800.514 192.355 800.187 192.424 799.757 192.424C791.179 192.408 782.6 192.417 774.021 192.396C773.58 192.395 773.241 192.412 772.95 192.866C772.428 194.838 773.135 196.98 772.622 199.011C772.45 199.168 772.308 199.41 772.167 199.41C765.541 199.428 758.915 199.426 752.22 199.426C751.045 201.555 752.279 203.965 751.482 206.109C751.312 206.228 751.161 206.427 751.01 206.427C728.016 206.441 705.022 206.44 682.119 206.44C681.89 206.212 681.636 206.077 681.632 205.936C681.579 204 681.553 202.062 681.548 200.125C681.548 199.976 681.755 199.827 681.916 199.611C683.368 199.168 684.917 199.512 686.442 199.44C687.803 199.375 689.172 199.459 690.535 199.417C692.073 199.37 693.62 199.593 695.115 199.3C695.286 199.128 695.542 198.992 695.544 198.852C695.571 196.906 695.562 194.959 695.562 193.019C695.877 192.812 696.18 192.439 696.485 192.438C702.529 192.403 708.573 192.416 714.617 192.406C715.172 192.406 715.727 192.324 716.192 192.287C716.395 192.037 716.615 191.893 716.617 191.745C716.64 189.805 716.632 187.865 716.632 186.017C716.924 185.549 717.241 185.395 717.641 185.395C728.364 185.399 739.088 185.4 749.811 185.391C750.359 185.39 750.907 185.286 751.357 185.239C751.538 184.945 751.716 184.791 751.717 184.635C751.736 182.703 751.729 180.771 751.729 179.065C751.379 178.444 751.052 178.371 750.624 178.372C742.045 178.388 733.466 178.378 724.888 178.399C724.447 178.401 724.108 178.384 723.814 177.932C723.288 175.961 723.997 173.819 723.485 171.786C723.315 171.63 723.174 171.386 723.033 171.386C711.728 171.368 700.422 171.37 689.128 171.37C688.391 170.03 688.391 170.03 688.816 164.677C688.966 164.57 689.117 164.369 689.267 164.369C695.884 164.353 702.501 164.355 709.027 164.355C709.255 164.128 709.5 164 709.514 163.85C709.712 161.769 709.547 159.663 709.631 157.699C711.247 157.096 712.603 157.4 713.934 157.352C715.297 157.303 716.663 157.341 718.028 157.341C719.393 157.341 720.758 157.341 722.122 157.341C723.487 157.341 724.852 157.365 726.216 157.335C727.56 157.304 728.913 157.494 730.239 157.188C730.383 157.044 730.639 156.908 730.641 156.768C730.667 154.822 730.659 152.876 730.659 150.936C730.974 150.728 731.275 150.356 731.581 150.353C735.285 150.313 738.99 150.333 742.694 150.321C743.25 150.32 743.805 150.239 744.269 150.203C744.472 149.952 744.692 149.808 744.694 149.661C744.717 147.721 744.71 145.78 744.71 143.932C745.001 143.465 745.319 143.31 745.718 143.31C751.957 143.314 758.197 143.307 764.436 143.326C764.867 143.327 765.216 143.313 765.482 143.015C765.578 142.86 765.755 142.705 765.756 142.549C765.775 140.617 765.769 138.686 765.769 136.883C765.504 136.619 765.367 136.361 765.229 136.36C739.889 136.328 714.549 136.313 689.208 136.314C689.064 136.314 688.919 136.541 688.73 136.699C688.187 138.719 688.897 140.861 688.387 142.896C688.22 143.051 688.08 143.296 687.939 143.297C681.313 143.315 674.686 143.313 667.985 143.313C666.807 145.435 668.039 147.845 667.247 149.994C667.083 150.111 666.933 150.313 666.782 150.314C655.486 150.328 644.19 150.327 632.824 150.327C631.818 152.539 632.926 154.934 632.181 157.025C631.907 157.171 631.748 157.329 631.587 157.331C617.688 157.514 504.971 157.386 499.459 157.192C499.321 157.055 499.065 156.918 499.063 156.779C499.037 154.834 499.046 152.889 499.046 150.958C498.725 150.737 498.427 150.354 498.128 150.353C487.599 150.322 477.071 150.331 466.542 150.319C465.792 150.318 465.013 150.495 464.326 150.149C464.17 149.966 463.943 149.823 463.941 149.677C463.917 147.735 463.925 145.793 463.925 143.924C463.644 143.48 463.328 143.311 462.933 143.311C454.549 143.314 446.165 143.316 437.782 143.306C437.232 143.305 436.683 143.204 436.07 143.144C435.576 140.969 436.074 138.841 435.732 136.769C435.506 136.374 435.181 136.288 434.757 136.289C419.159 136.301 403.562 136.296 387.964 136.313C387.525 136.314 387.184 136.298 386.875 135.85C386.338 133.89 387.048 131.748 386.567 129.793C386.369 129.573 386.239 129.302 386.11 129.302C372.463 129.283 358.816 129.285 345.173 129.285C344.452 130.548 344.452 130.548 344.841 135.964C344.99 136.075 345.138 136.284 345.288 136.284C349.566 136.302 353.845 136.298 358.187 136.298C359.238 138.496 358.074 140.898 358.896 143.086C360.447 143.584 361.997 143.222 363.52 143.298C364.882 143.367 366.25 143.282 367.614 143.321C369.153 143.364 370.701 143.159 372.204 143.431C372.37 143.597 372.627 143.733 372.628 143.873C372.655 145.818 372.646 147.762 372.646 149.691C372.968 149.914 373.264 150.299 373.563 150.301C379.607 150.336 385.651 150.324 391.695 150.332C392.253 150.333 392.81 150.41 393.277 150.445C393.484 150.687 393.712 150.83 393.713 150.975C393.737 152.917 393.729 154.859 393.729 156.731C394.01 157.172 394.325 157.342 394.72 157.342C400.959 157.34 407.198 157.347 413.437 157.329C413.866 157.328 414.217 157.341 414.488 157.626C414.588 157.78 414.773 157.932 414.775 158.087C414.795 160.02 414.788 161.953 414.788 163.687C415.128 164.278 415.453 164.367 415.876 164.366C422.115 164.351 428.354 164.362 434.593 164.34C435.032 164.339 435.373 164.355 435.616 164.709C435.693 164.872 435.835 165.035 435.836 165.199C435.853 166.757 435.858 168.316 435.838 169.874C435.834 170.24 435.725 170.603 435.679 170.882C435.503 171.08 435.375 171.351 435.246 171.352C423.938 171.371 412.631 171.369 401.235 171.369C400.062 169.259 401.282 166.85 400.504 164.694C400.349 164.578 400.2 164.369 400.051 164.369C388.753 164.354 377.456 164.355 366.094 164.355C365.044 162.158 366.208 159.756 365.418 157.655C365.173 157.518 365.024 157.392 364.854 157.351C364.67 157.307 364.466 157.341 364.271 157.341C351.013 157.341 337.755 157.342 324.497 157.335C324.322 157.335 324.147 157.244 323.972 157.196C323.835 157.058 323.578 156.922 323.576 156.782C323.55 154.838 323.559 152.893 323.559 150.966C323.236 150.741 322.94 150.353 322.643 150.353C309.97 150.322 297.297 150.332 284.623 150.315C283.679 150.314 282.706 150.53 281.809 150.139C281.663 149.97 281.432 149.828 281.431 149.683C281.407 147.741 281.415 145.798 281.415 143.92C281.137 143.486 280.822 143.311 280.429 143.311C264.636 143.312 248.844 143.311 233.051 143.324C232.895 143.324 232.738 143.499 232.449 143.672C232.023 145.65 232.491 147.776 232.169 149.85C231.942 150.242 231.618 150.336 231.197 150.336C220.278 150.324 209.36 150.33 198.441 150.311C198.003 150.31 197.661 150.326 197.344 150.777C196.81 152.729 197.514 154.871 197.026 156.876C196.854 157.058 196.721 157.323 196.587 157.323C185.279 157.342 173.971 157.34 162.563 157.34C161.398 159.445 162.609 161.853 161.84 164.014C158.864 164.465 145.475 164.569 127.497 164.283C127.359 164.146 127.105 164.011 127.101 163.869C127.042 161.936 127.01 160.001 126.998 158.067C126.997 157.916 127.193 157.764 127.369 157.507C129.355 157.023 131.491 157.62 133.56 157.2C133.698 157.061 133.954 156.925 133.956 156.786C133.982 154.842 133.974 152.898 133.974 150.974C134.298 150.744 134.592 150.355 134.888 150.353C140.737 150.317 146.587 150.334 152.436 150.317C153.187 150.315 153.968 150.51 154.682 150.123C154.813 149.973 155.045 149.831 155.046 149.686C155.07 147.744 155.063 145.801 155.063 143.918C155.338 143.489 155.653 143.311 156.045 143.311C164.429 143.312 172.813 143.315 181.196 143.305C181.746 143.305 182.296 143.206 182.93 143.145C183.392 140.975 182.93 138.849 183.248 136.775C183.476 136.383 183.8 136.287 184.221 136.288C190.46 136.302 196.699 136.291 202.938 136.313C203.376 136.314 203.718 136.298 203.963 135.95C204.042 135.787 204.188 135.626 204.189 135.463C204.205 133.537 204.2 131.612 204.2 129.91C203.874 129.566 203.741 129.302 203.607 129.302C196.978 129.281 190.35 129.284 183.623 129.284C182.456 127.178 183.669 124.77 182.899 122.612C182.746 122.495 182.598 122.284 182.45 122.284C175.831 122.267 169.212 122.27 162.714 122.27C162.213 121.964 162.073 121.646 162.076 121.239C162.089 119.486 162.089 117.732 162.068 115.979C162.066 115.826 161.872 115.676 161.767 115.525C161.609 115.435 161.451 115.266 161.293 115.266C150.004 115.254 138.715 115.255 127.568 115.255C127.289 114.976 127.033 114.84 127.031 114.7C127.005 112.757 127.013 110.812 127.013 108.846C127.278 108.659 127.568 108.279 127.869 108.269C129.622 108.212 131.378 108.247 133.132 108.232C133.299 108.23 133.464 108.1 133.63 108.03C133.754 107.886 133.985 107.744 133.987 107.599C134.011 105.657 134.003 103.714 134.003 101.834C133.726 101.402 133.412 101.226 133.019 101.226C122.296 101.227 111.572 101.229 100.849 101.22C100.3 101.22 99.751 101.121 99.2968 101.077C99.1084 100.795 98.9198 100.643 98.9183 100.489C98.8981 98.5554 98.9051 96.6215 98.9051 94.8759C99.2406 94.2972 99.5647 94.2029 99.9855 94.2034C108.564 94.216 117.143 94.2078 125.722 94.2277C126.16 94.2289 126.502 94.2128 126.819 93.7621C127.354 91.8093 126.649 89.6679 127.137 87.663C127.309 87.4806 127.443 87.2161 127.576 87.2161C138.884 87.1971 150.192 87.1986 161.6 87.1986C162.765 85.0941 161.555 82.6864 162.323 80.5272C162.475 80.4109 162.623 80.1987 162.771 80.1984C171.73 80.1827 180.689 80.1844 189.575 80.1844C189.785 79.9749 190.039 79.8407 190.043 79.6987C190.102 77.7651 190.134 75.8304 190.146 73.8956C190.147 73.7448 189.951 73.5925 189.846 73.4412C189.689 73.3509 189.531 73.1813 189.374 73.1813C161.707 73.1696 134.04 73.1702 106.47 73.1702C105.525 74.3203 106.084 75.5226 105.928 76.6288C105.771 77.7417 106.259 78.928 105.534 80.0199C104.03 80.3966 102.483 80.1242 100.952 80.1718C99.2017 80.2265 97.4459 80.1847 95.691 80.1847C94.1312 80.1847 92.5714 80.1847 91.0116 80.1847C89.2567 80.1847 87.5021 80.1847 85.7475 80.1847C84.1876 80.1847 82.6278 80.1847 81.0683 80.1847C79.3134 80.1847 77.5588 80.1847 75.8042 80.1847C74.2698 80.1847 72.7351 80.1847 71.3921 80.1847C71.0832 80.5322 70.8483 80.6734 70.8463 80.8171C70.822 82.7604 70.8299 84.7042 70.8299 86.596C70.5588 87.0151 70.2449 87.1986 69.855 87.1986C63.6161 87.1986 57.3768 87.1942 51.1378 87.2103C50.7854 87.2111 50.4336 87.3804 49.9407 87.5075C49.5359 89.532 49.9685 91.6555 49.6684 93.7308C49.5306 93.8685 49.3929 94.1269 49.2548 94.1272C23.9181 94.1678 -1.41854 94.1906 -26.7555 94.1988C-26.9035 94.1988 -27.0515 93.9863 -27.2112 93.8644C-27.6605 92.7655 -27.3569 91.6026 -27.444 90.4678C-27.5171 89.518 -27.2855 88.55 -27.5955 87.6326C-27.7508 87.4774 -27.8871 87.2214 -28.0267 87.2197C-30.1723 87.1931 -32.3183 87.1998 -34.4642 87.1986C-37.0357 81.935 -36.8503 81.4224 -30.2267 76.2962C-29.5584 71.2454 -30.3993 64.9166 -23.6306 63.1262C-21.7128 57.1241 -24.1068 51.2199 -21.3668 45.9768C-20.2369 44.0871 -18.0383 43.3714 -16.389 41.4021C-15.0851 36.2432 -16.062 30.6213 -15.747 25.0719C-15.5853 22.2224 -16.0465 19.1853 -13.4054 17.0568C9.79616 17.0568 32.998 17.0568 56.206 17.0568C57.3376 17.9727 56.6161 19.2274 56.774 20.3178C56.9369 21.4424 56.5819 22.6132 57.0174 23.715C57.1753 23.8395 57.3224 24.056 57.4695 24.0563C68.7691 24.0721 80.0686 24.0707 91.2643 24.0707C91.746 24.3682 91.8955 24.6856 91.8931 25.0883C91.8835 26.8416 91.8814 28.5951 91.9022 30.3484C91.9039 30.5021 92.0929 30.6538 92.1949 30.8063C92.3514 30.8993 92.5079 31.0734 92.6644 31.0734C110.974 31.0857 129.283 31.0848 147.546 31.0848C148.193 29.2372 148.221 26.8673 147.664 24.2399C146.158 23.8526 144.611 24.1431 143.08 24.0821C141.718 24.0277 140.35 24.1116 138.987 24.0598C137.455 24.0017 135.907 24.2779 134.433 23.9172C134.263 23.7279 134.025 23.5873 134.023 23.4438C133.998 21.5 134.006 19.5556 134.006 17.6278C133.664 17.4259 133.352 17.0834 133.037 17.0805C129.138 17.0436 125.238 17.0635 121.339 17.0448C120.986 17.043 120.633 16.877 120.282 16.7879C120.176 16.6345 119.982 16.484 119.981 16.3314C119.96 14.3967 119.967 12.4616 119.967 10.6967C120.295 10.1387 120.618 10.0341 121.035 10.0344C143.457 10.0438 165.878 10.044 188.3 10.0347C188.849 10.0344 189.467 10.2521 190.005 9.58637C190.521 7.65046 189.843 5.51055 190.322 3.45364C190.466 3.30984 190.604 3.0515 190.742 3.0515C206.729 3.03338 222.716 3.03455 238.7 3.03455C238.902 2.72417 239.263 2.4243 239.273 2.11334C239.329 0.361843 239.294 -1.39258 239.31 -3.14583C239.312 -3.3092 239.455 -3.4714 239.533 -3.6339C239.679 -3.75109 239.826 -3.97087 239.972 -3.97116C248.933 -3.98753 257.893 -3.98577 266.757 -3.98577C267.23 -4.27949 267.384 -4.59659 267.382 -4.99727C267.374 -6.90922 267.378 -8.82089 267.378 -10.5344C267.836 -10.8115 267.992 -10.988 268.148 -10.9883C277.099 -11.0014 286.05 -11 294.907 -11C295.865 -9.86278 295.297 -8.6581 295.453 -7.55278C295.61 -6.43928 295.13 -5.25447 295.841 -4.15587C297.341 -3.76571 298.888 -4.04832 300.419 -3.99922C302.172 -3.94281 303.928 -3.98607 305.683 -3.98607C307.242 -3.98607 308.802 -3.98607 310.362 -3.98607C312.117 -3.98607 313.872 -3.98607 315.626 -3.98607C317.186 -3.98607 318.746 -3.98607 320.306 -3.98607C322.061 -3.98607 323.817 -4.02611 325.57 -3.97408C327.102 -3.92878 328.65 -4.18949 330.125 -3.83527C330.297 -3.64764 330.537 -3.50764 330.539 -3.36472C330.564 -1.42033 330.555 0.524341 330.555 2.45499C330.893 2.65607 331.201 2.99333 331.52 3.00298C333.273 3.05558 335.028 3.02811 336.783 3.02811C368.759 3.02811 400.734 3.02636 432.71 3.03717C433.65 3.03747 434.62 2.85509 435.445 3.17658C435.634 3.43961 435.834 3.58867 435.836 3.74006C435.857 5.67627 435.85 7.61247 435.85 9.3967C435.53 9.93329 435.209 10.0499 434.795 10.0493C426.217 10.0397 417.638 10.047 409.059 10.028C408.623 10.0271 408.279 10.042 407.924 10.5055C407.425 12.4274 408.08 14.5659 407.616 16.6269C407.475 16.768 407.338 17.0255 407.199 17.0261C402.912 17.0471 398.624 17.0433 394.344 17.0433C394.135 17.3584 393.769 17.6559 393.759 17.9645C393.703 19.716 393.738 21.4704 393.722 23.2237C393.721 23.3876 393.58 23.5504 393.504 23.7138C393.358 23.8325 393.212 24.0552 393.066 24.0555C384.105 24.0721 375.144 24.0704 366.21 24.0704C365.471 25.5872 365.456 26.0212 365.951 30.797C366.106 30.8928 366.261 31.0723 366.416 31.0726C373.028 31.0866 379.641 31.0846 386.161 31.0846C387.124 32.2147 386.552 33.4209 386.708 34.5259C386.865 35.6397 386.389 36.8239 387.058 37.8714C387.243 37.9532 387.408 38.0897 387.573 38.0897C403.366 38.0993 419.159 38.0993 434.951 38.0908C435.12 38.0908 435.288 37.9707 435.457 37.9067C435.588 37.7662 435.831 37.627 435.833 37.4847C435.858 35.5397 435.85 33.5942 435.85 31.66C436.181 31.4601 436.486 31.1287 436.807 31.1106C437.974 31.0451 439.146 31.0846 440.315 31.0846C491.398 31.0846 542.481 31.0828 593.564 31.0962C594.698 31.0965 595.863 30.8621 596.959 31.3251C597.079 31.4861 597.285 31.6343 597.286 31.7845C597.308 33.7216 597.3 35.6593 597.3 37.4607C596.988 37.9786 596.668 38.1049 596.258 38.1049C580.855 38.0979 565.453 38.097 550.05 38.1066C549.504 38.1069 548.958 38.2194 548.382 38.2831C547.834 40.4754 548.455 42.6112 548.015 44.6775C547.877 44.8151 547.739 45.0732 547.601 45.0735C536.296 45.0922 524.991 45.0907 513.7 45.0907C513.478 45.4104 513.103 45.7024 513.093 46.0061C513.036 47.7575 513.071 49.512 513.056 51.2652C513.055 51.4306 512.921 51.5952 512.848 51.76C512.704 51.8825 512.56 52.1119 512.416 52.1122C503.453 52.1291 494.491 52.1274 485.572 52.1274C485.39 52.3095 485.159 52.429 485.128 52.5877C484.725 54.6534 485.281 56.786 484.824 58.7628C484.547 58.9423 484.394 59.1284 484.24 59.129C479.966 59.1448 475.692 59.1416 471.462 59.1416C470.788 60.9188 470.755 62.8299 471.312 65.974C472.812 66.391 474.36 66.0891 475.888 66.1417C477.641 66.2022 479.397 66.1557 481.152 66.1557C482.712 66.1557 484.272 66.1557 485.832 66.1557C487.587 66.1557 489.341 66.1557 491.096 66.1557C492.656 66.1557 494.216 66.1557 495.776 66.1557C497.531 66.1557 499.285 66.1557 501.04 66.1557C502.577 66.1557 504.114 66.1557 505.374 66.1557C505.757 66.498 506.026 66.6251 506.028 66.7561C506.055 68.7025 506.046 70.6492 506.046 72.5907C505.726 72.788 505.416 73.1439 505.104 73.1457C499.06 73.1787 493.016 73.1664 486.971 73.1764C486.418 73.1772 485.865 73.2661 485.407 73.3058C485.21 73.5703 485.004 73.7182 485.002 73.8681C484.98 75.8055 484.988 77.7432 484.988 79.5473C484.676 80.0622 484.357 80.1908 483.947 80.1903C477.708 80.1818 471.469 80.1905 465.23 80.1704C464.795 80.1689 464.45 80.1841 464.077 80.6491C463.599 82.5608 464.222 84.6969 463.781 86.7629C463.642 86.9005 463.504 87.1586 463.366 87.1589C456.74 87.1787 450.114 87.1761 443.502 87.1761C443.282 87.4958 442.908 87.7884 442.898 88.0929C442.841 89.8444 442.864 91.5988 442.88 93.3521C442.881 93.5175 443.016 93.6814 443.089 93.8463C443.233 93.9684 443.377 94.1973 443.522 94.1973C473.542 94.2128 503.562 94.2125 533.643 94.2125C534.793 92.0629 533.564 89.653 534.37 87.525C534.562 87.3994 534.715 87.2112 534.869 87.2109C548.502 87.1974 562.135 87.1983 575.684 87.1983C576.67 86.0921 576.081 84.8816 576.237 83.7777C576.395 82.6625 575.932 81.4809 576.575 80.4264C576.757 80.3393 576.913 80.2288 577.085 80.1929C577.271 80.1537 577.473 80.1841 577.668 80.1841C578.448 80.1841 579.228 80.1841 580.007 80.1841C596.775 80.1841 613.543 80.1841 630.31 80.1841C630.505 80.1841 630.7 80.1841 630.895 80.1841C631.09 80.1841 631.289 80.2069 631.479 80.1774C631.654 80.1502 631.821 80.0663 631.942 80.0246C632.117 79.8586 632.38 79.727 632.381 79.5917C632.408 77.6444 632.4 75.6968 632.4 73.7515C632.714 73.5557 633.017 73.2109 633.336 73.1962C634.697 73.1343 636.064 73.1699 637.429 73.1699C706.839 73.1699 776.249 73.1685 845.659 73.1813C846.991 73.1816 848.347 72.9434 849.646 73.3903C849.774 73.5502 849.99 73.6954 849.993 73.8433C850.015 75.783 850.008 77.7227 850.008 79.5613C850.304 80.0389 850.622 80.1879 851.024 80.1879C864.087 80.1835 877.15 80.1821 890.213 80.1914C890.76 80.1917 891.308 80.2981 891.91 80.3606C892.426 82.5426 891.864 84.6749 892.256 86.7441C892.48 87.1436 892.807 87.2115 893.237 87.2106C901.816 87.1939 910.395 87.2036 918.973 87.1825C919.415 87.1813 919.753 87.1983 920.043 87.6534C920.562 89.6264 919.856 91.768 920.37 93.7978C920.544 93.9556 920.686 94.1961 920.828 94.1964C927.453 94.2148 934.079 94.2125 940.682 94.2125C941.776 95.1805 941.091 96.4216 941.249 97.5167C941.41 98.639 941.026 99.8113 941.518 100.901C941.682 101.016 941.833 101.214 941.985 101.214C962.639 101.227 983.293 101.227 1003.85 101.227C1004.09 101.458 1004.26 101.575 1004.35 101.74C1004.43 101.895 1004.43 102.101 1004.44 102.286C1004.44 104.039 1004.43 105.792 1004.45 107.546C1004.46 107.696 1004.66 107.843 1004.77 107.992C1004.93 108.075 1005.09 108.193 1005.26 108.231C1005.44 108.273 1005.65 108.241 1005.84 108.241C1023.78 108.241 1041.72 108.241 1059.65 108.248C1059.83 108.248 1060 108.348 1060.17 108.401C1060.31 108.539 1060.57 108.675 1060.57 108.815C1060.59 110.761 1060.59 112.708 1060.59 114.649C1060.9 114.855 1061.2 115.227 1061.51 115.23C1066.19 115.266 1070.87 115.255 1075.55 115.255C1095.24 115.255 1114.93 115.259 1134.62 115.243C1135.56 115.242 1136.54 115.472 1137.43 115.057C1137.57 114.884 1137.79 114.74 1137.8 114.593C1137.82 112.652 1137.81 110.711 1137.81 108.712C1135.64 107.593 1133.23 108.805 1130.98 107.948C1130.5 105.888 1131.04 103.757 1130.65 101.596C1129.25 100.758 1127.67 101.362 1126.18 101.252C1124.63 101.139 1123.06 101.227 1121.5 101.227C1119.98 101.227 1118.46 101.227 1117.04 101.227C1116.39 98.8044 1117.1 96.6625 1116.59 94.6295C1116.42 94.4732 1116.28 94.23 1116.14 94.2294C1109.51 94.2107 1102.88 94.2131 1096.19 94.2131C1095.01 92.0878 1096.24 89.6772 1095.45 87.5312C1095.28 87.4125 1095.13 87.2123 1094.98 87.2121C1083.68 87.1974 1072.39 87.1986 1061.18 87.1986C1060.95 86.9703 1060.7 86.8359 1060.69 86.6945C1060.64 84.7583 1060.62 82.8209 1060.61 80.8838C1060.61 80.735 1060.82 80.586 1060.93 80.4369C1061.09 80.3527 1061.24 80.2329 1061.41 80.1941C1061.6 80.1517 1061.8 80.1844 1061.99 80.1844C1100.99 80.1844 1139.98 80.1847 1178.98 80.178C1179.15 80.178 1179.32 80.0818 1179.5 80.0307C1179.64 79.893 1179.89 79.7568 1179.89 79.6171C1179.92 77.6716 1179.91 75.7257 1179.91 73.7907C1180.23 73.5762 1180.53 73.1965 1180.83 73.1957C1191.36 73.165 1201.89 73.174 1212.42 73.1615C1213.17 73.1606 1213.95 73.3412 1214.63 72.9884C1214.79 72.8032 1215.01 72.6597 1215.01 72.5135C1215.04 70.5726 1215.03 68.6312 1215.03 66.7701C1215.31 66.3168 1215.63 66.1537 1216.03 66.1537C1224.41 66.1566 1232.79 66.159 1241.18 66.1487C1241.73 66.1482 1242.28 66.0459 1242.73 66.0006C1242.91 65.7106 1243.09 65.5572 1243.09 65.402C1243.11 63.4696 1243.11 61.5369 1243.11 59.599C1241.57 58.6678 1239.99 59.2772 1238.5 59.1673C1236.95 59.0533 1235.38 59.2149 1233.82 59.1211C1232.31 59.0299 1230.75 59.5028 1229.28 58.866C1228.7 56.7255 1229.41 54.5832 1228.9 52.5456C1228.74 52.3916 1228.6 52.1446 1228.46 52.1444C1219.49 52.1262 1210.52 52.128 1201.57 52.128C1200.83 50.8181 1200.83 50.8181 1201.25 45.4405C1201.4 45.3315 1201.55 45.1272 1201.7 45.1272C1234.05 45.1132 1266.4 45.1138 1298.83 45.1138C1299.86 47.3165 1298.72 49.7151 1299.49 51.8118C1299.74 51.9532 1299.9 52.1075 1300.06 52.116C1300.65 52.1467 1301.23 52.128 1301.82 52.128C1312.34 52.128 1322.87 52.1274 1333.4 52.1341C1333.58 52.1341 1333.75 52.2273 1333.92 52.277C1334.06 52.4147 1334.32 52.5509 1334.32 52.6906C1334.35 54.6355 1334.34 56.5805 1334.34 58.5115C1334.66 58.7318 1334.96 59.1144 1335.26 59.1161C1341.3 59.1512 1347.34 59.1389 1353.39 59.1477C1353.95 59.1486 1354.5 59.2263 1354.97 59.2614C1355.18 59.5046 1355.4 59.6478 1355.4 59.7933C1355.43 61.7348 1355.42 63.6768 1355.42 65.5449C1355.7 65.9903 1356.02 66.1581 1356.41 66.1581C1367.14 66.156 1377.86 66.154 1388.58 66.1633C1389.13 66.1639 1389.68 66.2648 1390.29 66.3255C1390.79 68.5005 1390.29 70.6288 1390.63 72.7011C1390.86 73.0957 1391.18 73.1816 1391.61 73.181C1400.19 73.1673 1408.77 73.1758 1417.34 73.1556C1417.78 73.1544 1418.12 73.1708 1418.43 73.6194C1418.97 75.5819 1418.26 77.7239 1418.76 79.7662C1418.92 79.9179 1419.06 80.168 1419.2 80.1683C1432.85 80.1862 1446.49 80.185 1460.23 80.185C1461.4 82.2968 1460.18 84.7059 1460.96 86.861C1461.11 86.9774 1461.26 87.1854 1461.41 87.1854C1489.09 87.1998 1516.76 87.1992 1544.36 87.1992C1544.58 86.9858 1544.83 86.8517 1544.84 86.7099C1544.89 84.7758 1544.92 82.8404 1544.94 80.9054C1544.94 80.7549 1544.74 80.6035 1544.63 80.4524C1544.47 80.3633 1544.32 80.2367 1544.15 80.1952C1543.97 80.1505 1543.77 80.185 1543.57 80.185C1534.99 80.185 1526.42 80.1859 1517.84 80.1789C1517.66 80.1789 1517.49 80.0886 1517.31 80.0406C1517.17 79.903 1516.92 79.7668 1516.92 79.6271C1516.89 77.683 1516.9 75.7383 1516.9 73.8117C1516.57 73.5858 1516.28 73.1983 1515.98 73.1971C1507.79 73.1644 1499.6 73.1767 1491.41 73.1612C1490.66 73.1597 1489.88 73.3573 1489.17 72.9648C1489.04 72.8143 1488.81 72.6719 1488.81 72.527C1488.78 70.5846 1488.79 68.6423 1488.79 66.7648C1488.51 66.3296 1488.2 66.1557 1487.81 66.1557C1481.57 66.1572 1475.33 66.1514 1469.09 66.1689C1468.66 66.1701 1468.31 66.1566 1467.89 65.727C1467.47 63.8165 1467.95 61.6898 1467.61 59.5282C1466.21 58.662 1464.63 59.2789 1463.14 59.1679C1461.59 59.0527 1460.02 59.2138 1458.46 59.122C1456.95 59.0329 1455.39 59.4955 1453.91 58.8686C1453.32 56.7348 1454.03 54.5932 1453.55 52.6245C1453.36 52.4144 1453.23 52.1461 1453.1 52.1458C1446.47 52.1256 1439.84 52.128 1433.22 52.128C1432.49 50.8628 1432.49 50.8628 1432.88 45.4487C1433.03 45.3371 1433.18 45.1278 1433.33 45.1278C1458.67 45.1135 1484 45.1141 1509.22 45.1141C1509.72 44.8084 1509.86 44.4895 1509.86 44.0827C1509.84 42.3295 1509.84 40.5759 1509.86 38.8227C1509.87 38.6701 1510.06 38.5202 1510.17 38.3688C1510.32 38.2791 1510.48 38.1113 1510.64 38.111C1517.25 38.0979 1523.86 38.0996 1530.33 38.0996C1530.61 37.819 1530.86 37.6828 1530.86 37.5434C1530.89 35.5991 1530.88 33.6547 1530.88 31.729C1531.2 31.5016 1531.5 31.1158 1531.8 31.1123C1535.5 31.0711 1539.21 31.0904 1542.91 31.0799C1543.47 31.0784 1544.03 31.0033 1544.49 30.9691C1544.7 30.7295 1544.93 30.5871 1544.93 30.4422C1544.96 28.4998 1544.95 26.5569 1544.95 24.6788C1544.67 24.2445 1544.36 24.0701 1543.96 24.0701C1535.58 24.0712 1527.2 24.0742 1518.81 24.0642C1518.26 24.0637 1517.71 23.9643 1517.09 23.9038C1516.61 21.7317 1517.09 19.6053 1516.76 17.5317C1516.53 17.1389 1516.21 17.0462 1515.79 17.0474C1509.55 17.0617 1503.31 17.0503 1497.07 17.0723C1496.63 17.0737 1496.29 17.0571 1495.98 16.6076C1495.44 14.6512 1496.15 12.5092 1495.66 10.5292C1495.48 10.3281 1495.35 10.0613 1495.21 10.061C1488.59 10.0405 1481.96 10.0432 1475.24 10.0432C1474.07 7.93482 1475.28 5.52634 1474.51 3.36948C1474.36 3.25316 1474.21 3.04332 1474.06 3.04302C1465.1 3.02753 1456.14 3.02899 1447.26 3.02899C1447.05 2.81564 1446.79 2.68151 1446.79 2.53976C1446.73 0.605308 1446.7 -1.32974 1446.69 -3.26477C1446.69 -3.41529 1446.89 -3.56667 1446.99 -3.71777C1447.15 -3.80691 1447.31 -3.97408 1447.47 -3.97408C1468.11 -3.98607 1488.76 -3.98548 1509.26 -3.98548C1509.54 -3.7055 1509.8 -3.56931 1509.8 -3.42962C1509.83 -1.48581 1509.82 0.458584 1509.82 2.38339C1510.14 2.61194 1510.44 3.00151 1510.74 3.00239C1520.09 3.03424 1529.45 3.0287 1538.81 3.0287C1549.34 3.0287 1559.87 3.03309 1570.4 3.01935C1571.15 3.01848 1571.93 3.21107 1572.64 2.82676C1572.78 2.67683 1573.01 2.53537 1573.01 2.39071C1573.03 0.44807 1573.03 -1.49516 1573.03 -3.38022C1573.3 -3.80692 1573.62 -3.98607 1574.01 -3.98607C1582.39 -3.98549 1590.77 -3.98256 1599.16 -3.99249C1599.71 -3.99308 1600.26 -4.09128 1600.9 -4.15236C1601.35 -6.32208 1600.9 -8.44709 1601.21 -10.5215C1601.35 -10.6592 1601.49 -10.9175 1601.62 -10.9178C1626.96 -10.9573 1652.3 -10.9789 1677.64 -10.9859C1677.78 -10.9859 1677.93 -10.7711 1678.14 -10.6077C1678.69 -8.6014 1677.99 -6.46061 1678.48 -4.41334C1678.63 -4.26225 1678.77 -4.00302 1678.91 -4.00302C1694.89 -3.9849 1710.88 -3.98607 1726.87 -3.98607C1727.58 -2.77583 1727.58 -2.77583 1727.22 2.68325C1727.07 2.7984 1726.92 3.01379 1726.78 3.01379C1717.82 3.02986 1708.86 3.02811 1700.01 3.02811C1699.52 3.32767 1699.37 3.64566 1699.37 4.04926C1699.39 5.80252 1699.39 7.55606 1699.37 9.30931C1699.36 9.46275 1699.17 9.61413 1699.07 9.76611C1698.91 9.85817 1698.76 10.0303 1698.6 10.0309C1691.99 10.0443 1685.38 10.0426 1678.9 10.0426C1678.63 10.3159 1678.38 10.4515 1678.37 10.5917C1678.34 12.535 1678.32 14.4785 1678.34 16.4217C1678.34 16.5652 1678.57 16.7072 1678.71 16.8589C1679.82 17.2389 1680.98 16.9834 1682.12 17.0562C1683.07 17.1167 1684.04 16.9194 1684.89 17.1801C1685.09 17.4054 1685.32 17.5469 1685.32 17.691C1685.35 19.6342 1685.34 21.5777 1685.34 23.468C1685.61 23.8889 1685.93 24.0715 1686.32 24.0715C1690.22 24.0712 1694.12 24.08 1698.01 24.0593C1698.44 24.0569 1698.79 24.0713 1699.23 24.5093C1699.62 26.4061 1699.18 28.5302 1699.48 30.6052C1699.71 30.996 1700.03 31.0954 1700.45 31.0948C1709.03 31.0828 1717.61 31.091 1726.19 31.0711C1726.63 31.0702 1726.97 31.0857 1727.3 31.539C1727.82 33.4855 1727.13 35.6265 1727.62 37.6659C1727.77 37.8225 1727.91 38.083 1728.04 38.083C1772.11 38.1005 1816.17 38.0999 1860.24 38.0999C1861.38 37.1872 1860.69 35.9325 1860.8 34.8415C1860.92 33.7122 1860.83 32.5605 1860.83 31.622C1861.21 31.3186 1861.36 31.1006 1861.51 31.1003C1870.47 31.084 1879.43 31.0857 1888.29 31.0857C1888.76 30.79 1888.91 30.4723 1888.91 30.0707C1888.9 28.3175 1888.9 26.5639 1888.92 24.8107C1888.92 24.6566 1889.11 24.505 1889.21 24.3521C1889.37 24.2586 1889.53 24.0841 1889.68 24.0835C1893.95 24.0689 1898.23 24.0718 1902.45 24.0718C1903.09 22.2218 1903.12 19.8309 1902.57 17.2263C1901.06 16.8405 1899.51 17.1298 1897.98 17.0691C1896.62 17.015 1895.25 17.0577 1893.89 17.0577C1892.35 17.0577 1890.82 17.0577 1889.47 17.0577C1889.16 16.714 1888.93 16.5734 1888.93 16.4299C1888.9 14.4861 1888.91 12.542 1888.91 10.6145C1888.57 10.4126 1888.25 10.0704 1887.94 10.0674C1884.04 10.0309 1880.14 10.0505 1876.24 10.0318C1875.89 10.03 1875.54 9.86373 1875.18 9.77401C1875.08 9.62028 1874.88 9.46977 1874.88 9.31721C1874.86 7.38247 1874.87 5.44742 1874.87 3.68423C1875.2 3.12455 1875.52 3.02023 1875.94 3.02081C1884.52 3.03192 1893.1 3.02432 1901.67 3.04361C1902.11 3.04449 1902.45 3.029 1902.79 2.57249C1903.31 0.633657 1902.62 -1.50685 1903.11 -3.56201C1903.25 -3.70726 1903.39 -3.96474 1903.53 -3.96533C1907.63 -3.98754 1911.72 -3.98432 1915.82 -3.9852C1915.82 47.4518 1915.82 98.8892 1915.82 150.327Z" fill="#00BBE2"/>
</svg>
